<?xml version="1.0" encoding="utf-8"?>
<!-- Generator: Adobe Illustrator 22.0.1, SVG Export Plug-In . SVG Version: 6.00 Build 0)  -->
<svg version="1.1" id="Capa_1" xmlns="http://www.w3.org/2000/svg" xmlns:xlink="http://www.w3.org/1999/xlink" x="0px" y="0px"
	 viewBox="0 0 512 512" style="enable-background:new 0 0 512 512;" xml:space="preserve">
<style type="text/css">
	.st0{fill:#FFFFFF;}
</style>
<g>
	<path class="st0" d="M459.86,36.37c-10.76-10.8-25.07-16.75-40.28-16.75H84.77c-31.44,0-57.01,25.58-57.01,57.01v228.83
		c0,31.43,25.58,57,57.01,57h334.72c31.44,0,57.01-25.57,57.01-57V76.73C476.55,61.51,470.64,47.17,459.86,36.37z M58.16,76.72
		c0-14.67,11.93-26.6,26.6-26.6h334.72c14.67,0,26.6,11.93,26.6,26.6l0,228.8l0.06,1.17c-0.65,14.23-12.31,25.37-26.57,25.37H84.77
		c-14.67,0-26.6-11.93-26.6-26.6V76.72z"/>
	<path class="st0" d="M83.99,93.12l107.35,95.95L84.38,289.19c-6.06,5.72-6.36,15.37-0.65,21.53c2.94,3.06,7,4.81,11.12,4.81
		c3.85,0,7.53-1.44,10.37-4.06l108.95-101.93l28.15,25.15c2.78,2.47,6.38,3.83,10.12,3.83c3.73,0,7.43-1.44,10.13-3.93l28.95-25.94
		l108.29,102.88c2.8,2.7,6.52,4.19,10.48,4.19c4.18,0,8.1-1.68,11.03-4.74c2.77-2.94,4.25-6.8,4.15-10.87
		c-0.11-4.08-1.78-7.86-4.72-10.63L314.19,188.26l106.1-95.16c6.18-5.62,6.68-15.27,1.1-21.5c-5.62-6.18-15.26-6.68-21.49-1.12
		L252.34,202.93l-26.81-23.95l-0.52-0.57c-0.73-0.73-1.45-1.36-2.19-1.9L104.25,70.39c-3.04-2.72-6.94-4.08-10.99-3.86
		c-4.06,0.23-7.79,2.04-10.51,5.1c-2.72,3.05-4.08,6.96-3.84,11C79.14,86.68,80.95,90.41,83.99,93.12z"/>
</g>
</svg>
