<?xml version="1.0" encoding="utf-8"?>
<!-- Generator: Adobe Illustrator 27.0.1, SVG Export Plug-In . SVG Version: 6.00 Build 0)  -->
<svg version="1.1" id="Layer_1" xmlns="http://www.w3.org/2000/svg" xmlns:xlink="http://www.w3.org/1999/xlink" x="0px" y="0px"
	 viewBox="0 0 113.39 113.39" style="enable-background:new 0 0 113.39 113.39;" xml:space="preserve">
<style type="text/css">
	.st0{fill:#FFFFFF;}
</style>
<path class="st0" d="M62.94,83.76c-0.69,0-1.27-0.47-1.61-1.31l-2.89-7.02c-0.49,0.05-1.06,0.07-1.75,0.07
	c-15.64,0-28.35-10.28-28.35-22.93c0-12.66,12.7-22.93,28.35-22.93c15.64,0,28.35,10.27,28.35,22.93c0,7.27-4.12,13.93-11.3,18.31
	l-9.25,12C64.05,83.43,63.5,83.76,62.94,83.76z M56.69,39.64c-9.93,0-18.33,5.91-18.33,12.9c0,7.01,8.4,12.92,18.33,12.92
	c0.21,0,0.37-0.01,0.54-0.01c0.23,0,0.49-0.04,0.97-0.04c4.2,0,8.81-2.18,8.85-2.2l1.41-0.87c4.17-2.51,6.55-6.09,6.55-9.79
	C75.01,45.55,66.62,39.64,56.69,39.64z"/>
</svg>
