<?xml version="1.0" encoding="utf-8"?>
<!-- Generator: Adobe Illustrator 22.0.1, SVG Export Plug-In . SVG Version: 6.00 Build 0)  -->
<svg version="1.1" id="Objects" xmlns="http://www.w3.org/2000/svg" xmlns:xlink="http://www.w3.org/1999/xlink" x="0px" y="0px"
	 viewBox="0 0 48.23 25.81" style="enable-background:new 0 0 48.23 25.81;" xml:space="preserve">
<style type="text/css">
	.st0{fill:#4285F4;}
</style>
<path class="st0" d="M41.31,17.09c-7.39,0.21-14.17,0.27-21.22-2.4C12.49,11.81,5.93,6.78,1.11,0.25c-0.44-0.59-1.44-0.03-1,0.59
	C8.75,13.11,26.2,22.55,41.5,18.48C42.26,18.28,42.12,17.07,41.31,17.09z"/>
<path class="st0" d="M47.49,15.86c-4.47-0.94-8.5-2.66-12.84-3.94c-1.05-0.31-1.64,1.18-0.73,1.74c3.25,2.02,7.34,3.12,11.18,3.83
	c-3.91,3.55-8.54,5.58-13.6,7.26c-0.54,0.18-0.49,1.13,0.14,1.06c6.24-0.73,11.71-4.12,16.29-8.26
	C48.48,17.05,48.22,16.02,47.49,15.86z"/>
</svg>
