<?xml version="1.0" encoding="utf-8"?>
<!-- Generator: Adobe Illustrator 22.0.1, SVG Export Plug-In . SVG Version: 6.00 Build 0)  -->
<svg version="1.1" id="Capa_1" xmlns="http://www.w3.org/2000/svg" xmlns:xlink="http://www.w3.org/1999/xlink" x="0px" y="0px"
	 viewBox="0 0 512 490.667" style="enable-background:new 0 0 512 490.667;" xml:space="preserve">
<style type="text/css">
	.st0{fill:#FFFFFF;}
</style>
<g>
	<g>
		<g>
			<path class="st0" d="M378.368,107.925c-3.435-1.856-7.68-1.664-10.944,0.533L320,140.074v-22.741
				c0-5.888-4.779-10.667-10.667-10.667H160c-31.104,0-32,76.608-32,85.333c0,8.725,0.896,85.334,32,85.334h149.333
				c5.888,0,10.667-4.779,10.667-10.667v-22.741l47.424,31.616c1.771,1.195,3.84,1.792,5.909,1.792c1.728,0,3.456-0.427,5.035-1.259
				c3.456-1.856,5.632-5.461,5.632-9.408V117.333C384,113.386,381.845,109.781,378.368,107.925z M362.667,246.741l-47.424-31.616
				c-3.264-2.176-7.488-2.368-10.944-0.533c-3.456,1.856-5.632,5.461-5.632,9.408v32.021l-136.747,0.448
				c-4.245-3.051-12.587-25.792-12.587-64.469s8.341-61.419,10.667-64h138.667v32c0,3.947,2.155,7.552,5.632,9.408
				c3.456,1.856,7.68,1.643,10.944-0.533l47.424-31.616V246.741z"/>
			<path class="st0" d="M437.333,0H74.667C33.493,0,0,33.493,0,74.666v234.667C0,350.506,33.493,384,74.667,384h32v96
				c0,4.139,2.389,7.915,6.144,9.664c1.429,0.661,2.987,1.003,4.523,1.003c2.453,0,4.885-0.853,6.827-2.475L249.196,384h188.139
				C478.507,384,512,350.506,512,309.333V74.666C512,33.493,478.507,0,437.333,0z M490.667,309.333
				c0,29.397-23.936,53.333-53.333,53.333h-192c-2.496,0-4.907,0.875-6.827,2.475L128,457.237v-83.904
				c0-5.888-4.779-10.667-10.667-10.667H74.667c-29.397,0-53.333-23.936-53.333-53.333V74.666
				c-0.001-29.397,23.935-53.333,53.333-53.333h362.667c29.397,0,53.333,23.936,53.333,53.333V309.333z"/>
		</g>
	</g>
</g>
</svg>
