<?xml version="1.0" encoding="utf-8"?>
<!-- Generator: Adobe Illustrator 22.0.1, SVG Export Plug-In . SVG Version: 6.00 Build 0)  -->
<svg version="1.1" id="Capa_1" xmlns="http://www.w3.org/2000/svg" xmlns:xlink="http://www.w3.org/1999/xlink" x="0px" y="0px"
	 viewBox="0 0 512 378.44" style="enable-background:new 0 0 512 378.44;" xml:space="preserve">
<style type="text/css">
	.st0{fill:#4285f4;}
</style>
<g>
	<g>
		<g>
			<path class="st0" d="M510.67,295.27c-1.91-3.61-5.68-5.88-9.8-5.88h-33.39v-256C467.48,14.98,452.5,0,434.09,0H77.92
				C59.51,0,44.53,14.98,44.53,33.39v256H11.13c-4.1,0-7.86,2.25-9.8,5.88c-1.96,3.61-1.76,8.01,0.53,11.42l24.69,37.04
				c14.49,21.73,38.71,34.71,64.82,34.71h329.24c26.09,0,50.31-12.98,64.82-34.71l24.69-37.04
				C512.41,303.28,512.63,298.9,510.67,295.27z M66.79,33.39c0-6.14,5.01-11.13,11.13-11.13h356.17c6.12,0,11.13,4.99,11.13,11.13
				v256h-67.83c-4.27-23.04-21.5-41.92-44.88-47.77l-33.41-8.35l-1.4-5.59c8.66-9.57,14.83-21.79,17.39-34.48
				c5.94-3.07,10.24-8.9,11.13-15.92l2.4-19.37c0.73-5.88-1.07-11.8-4.96-16.25c-1.2-1.36-2.58-2.56-4.05-3.56l0.56-11.82l2.03-2.03
				c5.74-6.1,13.51-19.12,1.22-37.91c-5.83-8.93-17.85-19.57-41.94-19.57c-7.1,0-23.11,0-38.65,9.73
				c-45.81,1.62-51.2,26.31-51.2,44.94c0,3.67,0.67,10.55,1.29,16.29c-1.65,1.05-3.16,2.34-4.47,3.83
				c-3.96,4.5-5.79,10.44-5.03,16.34l2.4,19.37c0.91,7.26,5.52,13.27,12.31,16.23c2.49,12.13,8.33,23.89,16.45,33.21l-1.62,6.54
				l-33.41,8.35c-23.37,5.85-40.6,24.73-44.88,47.77H66.79V33.39z M234.52,215.31c-8.66-8.15-14.4-20.06-15.34-31.86
				c-0.47-5.77-5.41-8.97-11.22-8.97l-2.87-17.72c3.21,0,6.23-1.36,8.35-3.76c2.12-2.38,3.09-5.56,2.69-8.75
				c-0.85-6.72-2.2-18.88-2.2-22.79c0-11.53,0-22.42,32.55-22.75c2.27-0.02,4.5-0.73,6.37-2.07c10.6-7.59,22.79-7.59,28.65-7.59
				c11.51,0,19.12,3.09,23.31,9.48c4.52,6.92,2.67,8.88,1.42,10.24l-4.83,4.83c-1.96,1.96-3.12,4.56-3.25,7.32l-1.18,24.22
				c-0.13,3.03,0.22,5.14,2.29,7.35c2.09,2.2,4.23,2.65,7.26,2.67l-1.42,18.1c-5.81,0-10.62,4.45-11.09,10.24
				c-0.98,12-7.15,24.44-16.09,32.48c-3.05,2.74-4.36,6.97-3.36,10.97l4.54,18.19c1,3.99,4.1,7.12,8.1,8.1l39.89,9.97
				c13.4,3.36,23.64,13.47,27.47,26.18l-197.1-0.02c3.83-12.69,14.09-22.79,27.54-26.18l39.89-9.97c3.99-1,7.1-4.12,8.1-8.1
				l4.74-18.99C238.71,222.21,237.48,218.07,234.52,215.31z M466.93,331.4c-10.35,15.52-27.65,24.78-46.3,24.78H91.41
				c-18.65,0-35.95-9.26-46.3-24.78l-13.16-19.75h448.11L466.93,331.4z"/>
			<path class="st0" d="M256,66.78c6.14,0,11.13-4.99,11.13-11.13S262.15,44.52,256,44.52c-6.14,0-11.13,4.99-11.13,11.13
				S249.86,66.78,256,66.78z"/>
		</g>
	</g>
</g>
</svg>
