<svg xmlns="http://www.w3.org/2000/svg" x="0px" y="0px" viewBox="0 0 284.57 241.23" xml:space="preserve">
	<path fill="#001588" d="M132.38,153.72l-8.26,0.06l0.03,30.92c-1.17-3.52-2.89-6.63-5.19-8.98c-8.66-9.57-31.16-10.04-39.77,0.21
		c-3.01,3.24-5,7.38-6,12.33c-0.89-8.97-5.82-15.22-14.32-18.8c-8.13-3.06-18.76-1.42-24.01,5.49c0,0,0-13.96,0-13.96
		c0.11-3.9-3.65-7.39-7.85-7.29l-7.83,0.06l0.06,69.41l15.62-0.06v-27.72c0-4.5,1.04-8.07,3.1-10.62
		c3.68-4.93,13.37-5.17,17.04,0.19c2.53,3.36,2.83,6.3,2.9,10.25l0.07,27.97h14.82l0.58-0.06c0,0,0-9.51,0-18.04
		c2.66,11.7,11.15,19.39,25.52,19.45c6.8,0,12.52-1.58,17.02-4.68c3.82-2.49,6.61-6.13,8.29-10.54l0.01,13.87l16.05,0v-62.39
		c0-1.99-0.79-3.69-2.32-5.06C136.37,154.41,134.51,153.72,132.38,153.72z M99.07,180.99c6.7,0.06,9.58,3.48,10.34,9.68l-20.65,0.06
		C89.07,184.89,92.9,180.99,99.07,180.99z M113.83,206.18c-5.14-0.12-5.45,2.81-8.21,4.46c-3.79,2.27-11.23,1.71-13.83-1.69
		c-1.78-1.78-2.83-4.56-3.09-8.26l35.45-0.03l0.01,5.53C121.4,206.18,113.83,206.18,113.83,206.18z"/>
	<path fill="#001588" d="M265.33,168.6c0,0-7.36,0-7.36,0c-4.73-0.13-8.45,4.15-8.39,9.18l0,19.44c-0.07,6.98-5.56,12.16-11.32,12.22
		c-5.71,0.05-11.1-6.27-11.09-12.23c0.02-10.46-0.07-28.6-0.07-28.6l-15.98,0.08v12.61c-1.08-2.12-2.4-4.02-4-5.58
		c-4.52-4.75-12.65-7.26-20.78-7.32c-8.14,0.06-16.26,2.57-20.78,7.32c-2.72,2.63-4.65,6.22-5.86,10.28v-25.19
		c0-1.99-0.79-3.69-2.32-5.06c-1.53-1.35-3.39-2.03-5.53-2.03l-8.26,0.06l0,69.41l16.12,0v-16.21c1.92,6.19,5.66,11.13,11.31,14.16
		c0.33,0.17,0.67,0.33,1.01,0.49c0.27,0.13,0.55,0.26,0.84,0.38c3.15,1.37,6.82,2.21,10.99,2.44c0.29,0.02,0.58,0.03,0.87,0.04
		c0.43,0.01,0.83,0.05,1.27,0.06c0.12,0,0.24-0.01,0.36-0.01c0.12,0,0.24,0.01,0.36,0.01c0.44,0,0.84-0.04,1.27-0.06
		c0.29-0.01,0.58-0.02,0.87-0.04c4.17-0.23,7.84-1.07,10.99-2.44c0.28-0.12,0.56-0.25,0.84-0.38c0.34-0.16,0.68-0.32,1.01-0.49
		c5.35-2.87,8.99-7.45,10.99-13.19c1.38,4.81,3.67,8.32,6.87,10.49c5.47,3.72,11.61,5.77,18.28,6.11c6.8,0,13.14-1.89,18.83-5.6
		c5.83-3.78,8.77-11.82,8.77-23.86L265.33,168.6z M198.59,198.38c-0.08,1.21-0.24,2.36-0.48,3.44c-0.8,3.63-2.48,6.51-5.06,8.25
		c-0.14,0.09-0.29,0.18-0.44,0.27c-0.12,0.07-0.24,0.14-0.37,0.21c-1.38,0.76-2.98,1.22-4.81,1.35c-0.13,0.01-0.25,0.02-0.38,0.02
		c-0.19,0.01-0.36,0.03-0.56,0.03c-0.05,0-0.1-0.01-0.16-0.01c-0.05,0-0.1,0.01-0.16,0.01c-0.19,0-0.37-0.02-0.56-0.03
		c-0.13-0.01-0.26-0.01-0.38-0.02c-1.83-0.13-3.43-0.59-4.81-1.35c-0.12-0.07-0.25-0.14-0.37-0.21c-0.15-0.09-0.3-0.18-0.44-0.27
		c-2.58-1.74-4.26-4.62-5.06-8.25c-0.24-1.08-0.4-2.23-0.48-3.44c-0.04-0.63-0.07-1.26-0.07-1.92c0-0.16,0-0.31,0.01-0.47
		c0-0.08,0.01-0.16,0.01-0.25c0.13-4.24,1.19-8.24,3.22-10.72c1.98-2.62,5.54-4,9.1-4.04c3.56,0.03,7.12,1.42,9.1,4.04
		c2.03,2.48,3.09,6.47,3.22,10.71c0,0.09,0.01,0.17,0.01,0.25c0,0.15,0,0.31,0.01,0.47C198.65,197.12,198.63,197.76,198.59,198.38z"
		/>
	<path fill="#001588" d="M99.53,88.4c3.81,0,6.91-3.94,6.91-8.78c0-4.84-3.1-8.78-6.91-8.78c-3.81,0-6.91,3.94-6.91,8.78
		C92.61,84.47,95.72,88.4,99.53,88.4z"/>
	<path fill="#001588" d="M97.78,128.28l8.86,21.21c1.36,3.48,4.95,3.84,7.08,0.95l8.44-11.7c7.35,1.88,15.09,2.87,23,2.79
		c41.21,0.43,77.85-28,77.39-62.59c-2.06-41.51-39.73-62.25-77.39-62.25c-37.67,0-75.33,20.75-77.39,62.25
		C67.5,98.89,79.6,116.78,97.78,128.28z M178.41,54.62h3.65c1.52,0,2.75,1.19,2.8,2.71l0.01,0.09c0,0.03,0,0.06-0.01,0.09v20.73
		c1-1.03,3.66-3.79,10.8-11.19c1.33-1.38,2.93-1.39,4.1-1.4l0.18,0c0.85-0.01,3.4,0,3.4,0l0.79,0l-10.96,11.76l11.42,16.07l-0.67,0
		c0,0-2.33,0-3.34,0c0,0-0.01,0-0.01,0c-1.96,0-3.38-0.63-4.25-1.86l-7.35-10.49l-4.1,3.88v8.47h-6.45V54.62z M151.9,72.41
		c1.19-2.15,2.89-3.9,5.04-5.21c2.15-1.3,4.74-1.97,7.68-1.97c2.84,0,5.35,0.64,7.47,1.91c2.12,1.27,3.71,2.98,4.71,5.09
		c0.12,0.38-0.08,0.45-0.69,0.64c-0.49,0.16-1.46,0.47-3.41,1.07c-1.67,0.52-2.61-0.47-3.12-1l-0.16-0.17
		c-0.39-0.38-0.85-0.72-1.34-1.01c-1.07-0.61-2.28-0.92-3.57-0.92c-1.46,0-2.8,0.37-3.97,1.11c-1.18,0.74-2.12,1.77-2.8,3.06
		c-0.68,1.3-1.03,2.83-1.03,4.56c0,1.65,0.36,3.17,1.06,4.5c0.7,1.33,1.66,2.4,2.84,3.17c1.17,0.77,2.51,1.16,3.97,1.16
		c0.89,0,1.78-0.16,2.63-0.47c0.84-0.32,1.59-0.75,2.22-1.3c0.2-0.17,0.36-0.36,0.52-0.55c0.08-0.1,0.12-0.13,0.16-0.17
		c0.03-0.03,0.05-0.05,0.07-0.08c0.69-0.65,1.59-0.89,2.42-0.75l4.59,1.36l-0.16,0.36c-0.61,1.4-1.53,2.66-2.73,3.73
		c-1.2,1.07-2.62,1.93-4.24,2.55c-1.62,0.62-3.45,0.94-5.43,0.94c-2.16,0-4.15-0.38-5.92-1.14c-1.76-0.76-3.3-1.82-4.58-3.16
		c-1.28-1.34-2.28-2.89-2.97-4.62c-0.69-1.73-1.05-3.58-1.05-5.52C150.11,76.97,150.71,74.56,151.9,72.41z M145.97,56.23
		c1.78,0,3.22,1.45,3.22,3.22s-1.45,3.22-3.22,3.22s-3.22-1.45-3.22-3.22S144.19,56.23,145.97,56.23z M142.74,65.44h3.64
		c1.55,0,2.8,1.26,2.8,2.8v25.24h-6.45V65.44z M115.73,65.65h6.45v15.79c-0.08,6.67,6.05,6.95,6.31,6.95
		c0.24-0.01,6.36-0.28,6.28-6.95V78.1c0,0,0-9.83,0-9.93c0-1.39,1.25-2.52,2.77-2.52h3.67v16.96c0,2.67-0.92,11.4-12.74,11.4
		c-10.53,0-12.74-6.2-12.74-11.4V65.65z M87.05,74.01c0.66-1.73,1.6-3.26,2.79-4.57c1.19-1.31,2.61-2.35,4.22-3.09
		c1.61-0.74,3.36-1.12,5.22-1.12c2.14,0,4.11,0.52,5.85,1.55c1.39,0.82,2.55,1.85,3.48,3.07v-4.2h5.77v38.98h-3.64
		c-1.55,0-2.8-1.26-2.8-2.8V89.21c-2.32,3.19-5.48,4.8-9.43,4.8c-1.82,0-3.52-0.39-5.04-1.15c-1.52-0.76-2.85-1.82-3.96-3.14
		c-1.1-1.32-1.96-2.88-2.55-4.62c-0.58-1.74-0.88-3.6-0.88-5.52C86.06,77.6,86.4,75.73,87.05,74.01z"/>
</svg>
