<?xml version="1.0" encoding="UTF-8"?><svg id="a" xmlns="http://www.w3.org/2000/svg" viewBox="0 0 284.57 241.23"><defs><style>.b{fill:#fff;}</style></defs><g><path class="b" d="M200.85,241.23c-.9,0-1.67-.62-2.12-1.69l-3.78-9.19c-20.65,1.34-39.59-12.69-39.36-29.9,1.97-39.76,72.17-39.75,74.14,0,0,9.5-5.39,18.23-14.78,23.96l-12.1,15.69c-.57,.73-1.29,1.13-2,1.13Zm-8.2-57.68c-12.99,0-23.96,7.73-23.96,16.88s10.97,16.88,23.96,16.88c.8,0,1.01-.06,1.98-.06,5.49,0,11.51-2.86,11.56-2.89,20.24-10.82,8.23-30.71-13.55-30.8Z"/><path class="b" d="M0,153.68l7.91-.07c4.24-.11,8.03,3.67,7.92,7.91v15.14c5.31-7.5,16.03-9.28,24.24-5.96,9.68,4.39,14.78,12.45,14.6,24.28v33.96l-.58,.07h-14.96l-.07-30.35c-.07-4.29-.37-7.48-2.92-11.12-3.7-5.82-13.48-5.55-17.19-.2-2.07,2.77-3.13,6.64-3.13,11.52v30.07l-15.76,.07-.06-75.32Z"/><path class="b" d="M85,230.09c-17.93-.08-26.8-12.81-26.69-30.79,0-9.31,2.29-16.7,6.83-21.96,8.69-11.13,31.4-10.62,40.14-.23,5.14,5.64,7.44,15.25,7.05,24.99,0,1.01-.09,1.46-.41,2.05l-37.18,.04c.26,4.02,1.32,7.02,3.12,8.96,2.63,3.69,10.09,4.2,13.96,1.84,.84-.24,1.59-1.23,2.19-1.78,.99-1.83,3.43-3.17,6.1-3.06h11.44c-1.43,6.34-4.63,11.53-9.38,14.85-4.54,3.37-10.31,5.08-17.18,5.08Zm.21-47.27c-6.22,0-10.09,4.24-10.4,10.58l20.84-.07c-.77-6.73-3.67-10.44-10.44-10.51Z"/><path class="b" d="M116.14,229l-.07-75.32,8.34-.07c2.16,0,4.04,.75,5.58,2.21,1.55,1.48,2.34,3.33,2.34,5.49v67.63l-.58,.07h-15.62Z"/><path class="b" d="M135.77,229l-.07-75.32,8.34-.07c2.16,0,4.04,.75,5.58,2.21,1.55,1.48,2.34,3.33,2.34,5.49v67.63l-.58,.07h-15.62Z"/><path class="b" d="M258.53,230.09c-6.29-.29-12.09-2.06-17.24-5.26-5.26-3.26-7.93-10.03-7.93-20.13v-34.18l16.19-.07,.07,37.26c0,3.25,.94,5.64,2.8,7.1,5.87,4.76,16.65,1.75,16.12-7.09v-29.37c-.06-4.34,3.45-8.03,7.92-7.92h8.06l.07,34.24c0,10.38-2.78,17.31-8.27,20.57-5.37,3.2-11.35,4.83-17.77,4.83h0Z"/></g><g><path class="b" d="M66.42,55.64c-12.08-16.57-34.55-6.4-34.53,12.77,.43,22.61,26.5,28.9,36.61,8.32l-.05-16.06c-.23-1.73-.92-3.43-2.03-5.02Z"/><path class="b" d="M259.97,5.07Q145.28-1.69,24.45,5.07C12.02,5.77,2.55,15.28,1.82,27.7Q-.61,68.7,1.82,107.12c.78,12.42,10.2,22,22.63,22.63,2.78,.14,5.48,.28,8.14,.42l6.8,16.53c1.59,4.1,5.8,4.53,8.31,1.11l12.53-16.24c83.49,4.14,95.31,3.52,199.76-1.81,12.43-.64,21.79-10.21,22.63-22.63q2.63-38.91,0-79.42c-.8-12.43-10.21-21.91-22.63-22.64ZM76.07,115.19c-3.68,.9-7.73-1.16-7.61-5.31v-26.21c-15.09,21.34-42.53,8.37-42.26-15.35-.1-23.27,27.93-36.45,42.65-16.29v-9.07h5.21V108.17c.05,2.01,.98,2.06,2.01,2.1v4.93Zm55.83-21.78c-3.16,.82-7.22-.97-7.13-4.64v-5.93c-4.38,7.22-12.43,11.65-20.82,11.6-10.8,0-16.28-7.54-16.28-22.4v-29.09h5.6v28.42c0,12.08,3.97,17.94,12.12,17.94,8.69-.01,16.27-6.62,18.93-14.73l-.02-31.64h5.6v43.44c.05,2.01,.98,1.99,2.01,1.98v5.06Zm17.98,.07h-5.6V42.95h5.6v50.54Zm0-61h-5.6v-9.61h5.6v9.61Zm56.29,49.55c-3.07,8.04-12.19,12.44-20.56,12.41-14.13,.26-25.26-12.65-24.98-26.42-.08-10.13,5.5-19.86,14.88-23.9,10.69-4.82,25.58-1.13,30.28,10.18l-5.45,1.79c-10.28-17.5-34.62-7.18-34.1,11.94-.41,12.5,11.53,24.58,24.19,20.55,4.33-1.34,9.07-4.08,10.42-8.52l5.49,1.57-.16,.42Zm46.16,11.45l-19.26-26.38-11.29,10.37v16h-5.6V22.87h5.6v48.22l29.64-28.05h6.71l-21.22,20.63,21.68,29.81h-6.27Z"/></g></svg>