<?xml version="1.0" encoding="utf-8"?>
<!-- Generator: Adobe Illustrator 26.2.1, SVG Export Plug-In . SVG Version: 6.00 Build 0)  -->
<svg version="1.1" id="a" xmlns="http://www.w3.org/2000/svg" xmlns:xlink="http://www.w3.org/1999/xlink" x="0px" y="0px"
	 viewBox="0 0 284.57 241.23" style="enable-background:new 0 0 284.57 241.23;" xml:space="preserve">
<style type="text/css">
	.st0{fill:#FFFFFF;}
</style>
<g>
	<path class="st0" d="M130.98,157.45l-9.13,0.07l0.03,34.17c-1.29-3.89-3.19-7.32-5.74-9.92c-9.57-10.58-34.43-11.1-43.95,0.24
		c-3.33,3.58-5.52,8.16-6.63,13.63c-0.98-9.91-6.43-16.82-15.82-20.78c-8.99-3.38-20.73-1.57-26.54,6.07c0,0,0-15.42,0-15.42
		c0.12-4.31-4.04-8.16-8.68-8.05l-8.66,0.07l0.06,76.72l17.26-0.07v-30.63c0-4.98,1.15-8.92,3.42-11.74
		c4.07-5.44,14.77-5.72,18.83,0.21c2.79,3.71,3.13,6.96,3.2,11.32l0.07,30.92h16.38l0.64-0.07c0,0,0-10.51,0-19.94
		c2.94,12.93,12.33,21.43,28.21,21.5c7.51,0,13.84-1.74,18.81-5.17c4.22-2.75,7.31-6.78,9.17-11.65l0.01,15.33h17.1l0.64-0.07
		v-68.88c0-2.2-0.87-4.08-2.56-5.59C135.4,158.21,133.34,157.45,130.98,157.45z M94.17,187.59c7.41,0.07,10.59,3.84,11.43,10.7
		l-22.82,0.07C83.13,191.91,87.36,187.59,94.17,187.59z M110.49,215.43c-5.68-0.13-6.02,3.1-9.07,4.93
		c-4.19,2.5-12.41,1.89-15.29-1.87c-1.97-1.97-3.13-5.04-3.41-9.13l39.18-0.04l0.01,6.11C118.85,215.43,110.49,215.43,110.49,215.43
		z"/>
	<path class="st0" d="M277.92,173.07c0,0-8.14,0-8.14,0c-5.23-0.15-9.34,4.58-9.27,10.15l0,22.31c-0.08,7.71-6.14,13.44-12.51,13.5
		c-6.31,0.06-12.27-6.93-12.26-13.52c0.02-11.56-0.08-32.44-0.08-32.44L218,173.17v14.77c-1.19-2.34-2.65-4.44-4.43-6.16
		c-5-5.25-13.98-8.02-22.97-8.09c-8.99,0.07-17.97,2.84-22.97,8.09c-3,2.91-5.14,6.88-6.48,11.36v-27.85c0-2.2-0.87-4.08-2.56-5.59
		c-1.7-1.49-3.75-2.25-6.11-2.25l-9.13,0.07l0.07,76.72h17.1l0.64-0.07v-17.85c2.12,6.84,6.26,12.3,12.5,15.65
		c0.36,0.19,0.74,0.37,1.11,0.54c0.3,0.15,0.61,0.28,0.93,0.42c3.49,1.52,7.53,2.45,12.15,2.7c0.32,0.02,0.64,0.03,0.96,0.04
		c0.47,0.02,0.92,0.06,1.4,0.06c0.13,0,0.26-0.01,0.4-0.01c0.13,0,0.26,0.01,0.4,0.01c0.48,0,0.93-0.05,1.4-0.06
		c0.32-0.01,0.65-0.02,0.96-0.04c4.61-0.25,8.66-1.18,12.15-2.7c0.31-0.14,0.62-0.28,0.92-0.42c0.38-0.17,0.75-0.35,1.11-0.54
		c5.91-3.17,9.94-8.24,12.15-14.58c1.52,5.31,4.05,9.2,7.59,11.6c6.04,4.11,12.83,6.38,20.2,6.75c7.52,0,14.52-2.08,20.81-6.19
		c6.44-4.18,9.69-13.06,9.69-26.37L277.92,173.07z M204.16,206.82c-0.09,1.34-0.27,2.6-0.54,3.8c-0.89,4.01-2.75,7.19-5.6,9.12
		c-0.16,0.1-0.32,0.2-0.49,0.3c-0.13,0.08-0.27,0.16-0.4,0.23c-1.53,0.84-3.3,1.35-5.32,1.49c-0.14,0.01-0.28,0.02-0.42,0.02
		c-0.21,0.01-0.4,0.03-0.61,0.03c-0.06,0-0.11-0.01-0.17-0.01c-0.06,0-0.11,0.01-0.17,0.01c-0.21,0-0.41-0.03-0.61-0.03
		c-0.14-0.01-0.28-0.01-0.42-0.02c-2.02-0.14-3.79-0.65-5.32-1.49c-0.14-0.08-0.27-0.15-0.41-0.23c-0.16-0.1-0.33-0.19-0.49-0.3
		c-2.85-1.93-4.71-5.11-5.6-9.12c-0.27-1.2-0.45-2.47-0.54-3.8c-0.05-0.69-0.07-1.4-0.07-2.12c0-0.17,0-0.35,0.01-0.52
		c0-0.09,0.01-0.18,0.01-0.27c0.15-4.69,1.31-9.1,3.56-11.84c2.19-2.9,6.12-4.42,10.05-4.46c3.94,0.04,7.87,1.57,10.05,4.46
		c2.24,2.74,3.41,7.16,3.56,11.84c0,0.09,0.01,0.19,0.01,0.28c0,0.17,0,0.34,0.01,0.51C204.23,205.42,204.2,206.12,204.16,206.82z"
		/>
	<path class="st0" d="M94.68,85.27c4.21,0,7.64-4.35,7.64-9.7c0-5.35-3.43-9.7-7.64-9.7c-4.21,0-7.64,4.35-7.64,9.7
		C87.04,80.91,90.47,85.27,94.68,85.27z"/>
	<path class="st0" d="M92.75,129.33l9.79,23.44c1.5,3.84,5.47,4.25,7.83,1.04l9.33-12.93c8.12,2.08,16.67,3.18,25.42,3.09
		c45.55,0.47,86.04-30.94,85.53-69.18C228.37,28.93,186.74,6,145.11,6c-41.63,0-83.26,22.93-85.53,68.8
		C59.28,96.86,72.65,116.63,92.75,129.33z M181.86,47.93h4.04c1.68,0,3.03,1.32,3.09,3l0.01,0.1c0,0.04,0,0.07-0.01,0.1v22.91
		c1.1-1.14,4.05-4.19,11.94-12.36c1.47-1.53,3.24-1.54,4.54-1.55l0.2,0c0.94-0.01,3.75,0,3.75,0l0.88,0l-12.12,13l12.62,17.76
		l-0.74,0c0,0-2.57,0-3.69,0c-0.01,0-0.01,0-0.01,0c-2.16,0-3.74-0.69-4.7-2.06l-8.13-11.59l-4.53,4.29v9.36h-7.13V47.93z
		 M152.56,67.59c1.32-2.38,3.19-4.31,5.57-5.75c2.38-1.44,5.24-2.17,8.49-2.17c3.14,0,5.92,0.71,8.26,2.11
		c2.35,1.4,4.1,3.29,5.21,5.63c0.13,0.42-0.09,0.49-0.76,0.71c-0.54,0.17-1.61,0.52-3.77,1.19c-1.84,0.57-2.88-0.52-3.44-1.11
		l-0.18-0.19c-0.43-0.43-0.93-0.8-1.49-1.11c-1.19-0.68-2.51-1.02-3.94-1.02c-1.62,0-3.09,0.41-4.39,1.22
		c-1.3,0.81-2.35,1.95-3.1,3.39c-0.76,1.44-1.14,3.13-1.14,5.04c0,1.83,0.39,3.5,1.17,4.98c0.78,1.47,1.83,2.65,3.14,3.5
		c1.3,0.85,2.77,1.28,4.39,1.28c0.99,0,1.96-0.18,2.9-0.52c0.93-0.35,1.76-0.83,2.45-1.43c0.22-0.19,0.39-0.39,0.58-0.61
		c0.09-0.11,0.13-0.15,0.17-0.19c0.03-0.03,0.06-0.06,0.08-0.09c0.77-0.72,1.76-0.99,2.67-0.83l5.08,1.5l-0.17,0.4
		c-0.68,1.55-1.69,2.94-3.02,4.12c-1.32,1.18-2.9,2.13-4.68,2.82c-1.79,0.69-3.81,1.04-6,1.04c-2.39,0-4.59-0.42-6.54-1.26
		c-1.95-0.84-3.65-2.01-5.07-3.49c-1.41-1.48-2.52-3.2-3.29-5.11c-0.77-1.91-1.16-3.96-1.16-6.1
		C150.58,72.63,151.25,69.96,152.56,67.59z M146,49.7c1.96,0,3.56,1.6,3.56,3.56s-1.6,3.56-3.56,3.56c-1.96,0-3.56-1.6-3.56-3.56
		S144.04,49.7,146,49.7z M142.44,59.89h4.03c1.71,0,3.1,1.39,3.1,3.1v27.9h-7.13V59.89z M112.59,60.12h7.12v17.45
		c-0.09,7.38,6.68,7.68,6.97,7.69c0.26-0.01,7.03-0.31,6.95-7.68v-3.7c0,0,0-10.87,0-10.97c0-1.53,1.38-2.79,3.07-2.79h4.06v18.74
		c0,2.96-1.02,12.6-14.08,12.6c-11.64,0-14.08-6.85-14.08-12.6V60.12z M80.89,69.36c0.73-1.91,1.76-3.61,3.08-5.05
		c1.32-1.44,2.89-2.59,4.66-3.41c1.78-0.82,3.72-1.24,5.77-1.24c2.37,0,4.54,0.58,6.47,1.71c1.53,0.91,2.82,2.05,3.84,3.39v-4.64
		h6.37v43.08h-4.03c-1.71,0-3.1-1.39-3.1-3.1V86.16c-2.56,3.52-6.06,5.31-10.43,5.31c-2.01,0-3.89-0.43-5.58-1.27
		c-1.68-0.84-3.15-2.01-4.37-3.48c-1.22-1.46-2.17-3.18-2.81-5.11c-0.65-1.92-0.97-3.97-0.97-6.11
		C79.8,73.33,80.16,71.26,80.89,69.36z"/>
</g>
</svg>
