<?xml version="1.0" encoding="UTF-8"?><svg id="a" xmlns="http://www.w3.org/2000/svg" viewBox="0 0 557.86 198.95"><defs><style>.b{fill:#001588;}.c{fill:#4285f4;}</style></defs><g><path class="c" d="M27.89,57.04c-4.23,0-8.04-.8-11.45-2.42-3.41-1.61-6.34-3.78-8.79-6.5-2.46-2.72-4.34-5.78-5.66-9.19-1.32-3.41-1.98-6.93-1.98-10.58s.7-7.31,2.1-10.69c1.4-3.38,3.35-6.4,5.86-9.07,2.51-2.67,5.48-4.77,8.91-6.3,3.43-1.53,7.18-2.3,11.25-2.3s7.96,.81,11.37,2.42c3.41,1.61,6.34,3.79,8.79,6.54,2.46,2.75,4.34,5.82,5.66,9.23,1.32,3.41,1.98,6.88,1.98,10.42,0,3.75-.69,7.32-2.06,10.69-1.37,3.38-3.33,6.4-5.86,9.07-2.53,2.67-5.51,4.78-8.91,6.34-3.41,1.56-7.14,2.34-11.21,2.34ZM13.23,28.52c0,2.17,.32,4.27,.95,6.3,.63,2.03,1.57,3.84,2.81,5.43,1.24,1.58,2.79,2.85,4.63,3.8,1.85,.95,3.96,1.43,6.34,1.43s4.65-.49,6.5-1.47c1.85-.98,3.38-2.28,4.6-3.92,1.21-1.64,2.12-3.47,2.73-5.51,.61-2.03,.91-4.11,.91-6.22s-.32-4.25-.95-6.26c-.63-2.01-1.58-3.81-2.85-5.43-1.27-1.61-2.83-2.86-4.67-3.76-1.85-.9-3.94-1.35-6.26-1.35-2.48,0-4.63,.48-6.46,1.43-1.82,.95-3.35,2.23-4.59,3.84-1.24,1.61-2.17,3.43-2.77,5.47-.61,2.03-.91,4.11-.91,6.22Z"/><path class="c" d="M84.37,57.44c-3.12,0-5.84-.66-8.16-1.99-2.32-1.33-4.15-3.14-5.47-5.43v23.5h-12.68V15.53h11.01v6.78c1.53-2.34,3.46-4.16,5.78-5.46,2.32-1.3,5.04-1.95,8.16-1.95,2.8,0,5.37,.55,7.72,1.64,2.35,1.09,4.4,2.6,6.14,4.53,1.74,1.93,3.09,4.16,4.04,6.71s1.43,5.31,1.43,8.27c0,4.06-.77,7.7-2.3,10.93-1.53,3.23-3.66,5.78-6.38,7.65-2.72,1.87-5.82,2.81-9.31,2.81Zm-4.28-10.69c1.37,0,2.63-.29,3.76-.88,1.14-.59,2.13-1.37,2.97-2.35,.84-.97,1.49-2.12,1.94-3.42,.45-1.31,.67-2.68,.67-4.11s-.25-2.85-.75-4.08c-.5-1.23-1.2-2.32-2.1-3.27-.9-.95-1.95-1.68-3.17-2.19-1.22-.51-2.54-.77-3.96-.77-.85,0-1.7,.13-2.57,.38s-1.69,.62-2.46,1.1c-.77,.48-1.47,1.05-2.1,1.71-.63,.66-1.16,1.42-1.58,2.28v8.43c.58,1.38,1.35,2.6,2.3,3.67s2.03,1.92,3.25,2.56c1.21,.64,2.48,.95,3.8,.95Z"/><path class="c" d="M124.69,57.44c-3.54,0-6.68-.56-9.43-1.68-2.75-1.12-5.08-2.65-7.01-4.58-1.93-1.93-3.39-4.17-4.4-6.7-1-2.53-1.51-5.18-1.51-7.95,0-3.94,.88-7.53,2.65-10.78,1.77-3.24,4.32-5.86,7.65-7.86,3.33-2,7.34-3,12.04-3s8.7,.99,12,2.96c3.3,1.98,5.82,4.56,7.57,7.76,1.74,3.2,2.61,6.67,2.61,10.41,0,.73-.04,1.44-.12,2.15-.08,.7-.15,1.31-.2,1.83h-30.74c.16,1.8,.67,3.31,1.54,4.54,.87,1.23,1.99,2.17,3.37,2.81,1.37,.64,2.82,.96,4.36,.96,1.9,0,3.68-.45,5.35-1.35,1.66-.9,2.81-2.11,3.45-3.64l10.77,3.01c-1.06,2.17-2.55,4.08-4.48,5.74-1.93,1.66-4.2,2.97-6.81,3.92s-5.51,1.43-8.67,1.43Zm-9.19-25.19h18.06c-.21-1.66-.71-3.11-1.51-4.35-.79-1.23-1.85-2.19-3.17-2.87-1.32-.68-2.77-1.02-4.36-1.02s-3.1,.34-4.4,1.02c-1.29,.68-2.34,1.64-3.13,2.87-.79,1.24-1.29,2.68-1.5,4.35Z"/><path class="c" d="M188.78,56.64h-12.68v-22.9c0-2.69-.51-4.64-1.54-5.86-1.03-1.22-2.39-1.82-4.08-1.82-1.16,0-2.35,.31-3.56,.92-1.22,.61-2.31,1.45-3.29,2.52-.98,1.07-1.73,2.29-2.26,3.66v23.49h-12.68V15.53h11.41v7.01c1.06-1.61,2.38-2.99,3.96-4.14,1.58-1.14,3.41-2.02,5.47-2.61,2.06-.6,4.3-.9,6.73-.9,2.69,0,4.87,.48,6.54,1.44s2.93,2.22,3.8,3.78c.87,1.56,1.45,3.24,1.74,5.03,.29,1.79,.44,3.55,.44,5.27v26.22Z"/><path class="c" d="M242.5,16.95c-.16-.26-.71-.67-1.66-1.23s-2.14-1.15-3.56-1.78c-1.43-.63-2.98-1.19-4.67-1.66-1.69-.48-3.38-.71-5.07-.71-2.22,0-3.94,.38-5.15,1.14-1.22,.76-1.82,1.93-1.82,3.5,0,1.26,.46,2.26,1.39,2.99,.92,.74,2.26,1.38,4,1.93s3.88,1.19,6.42,1.93c3.59,.94,6.71,2.09,9.35,3.42,2.64,1.34,4.66,3.06,6.06,5.15,1.4,2.1,2.1,4.88,2.1,8.34,0,3.15-.58,5.81-1.74,7.99-1.16,2.18-2.73,3.93-4.71,5.27s-4.24,2.31-6.77,2.91-5.15,.9-7.84,.9-5.56-.28-8.44-.83c-2.88-.55-5.64-1.35-8.28-2.38-2.64-1.03-5.07-2.28-7.29-3.76l5.7-11.33c.21,.27,.9,.75,2.06,1.47,1.16,.71,2.6,1.45,4.32,2.22,1.72,.77,3.63,1.44,5.74,2.02,2.11,.58,4.25,.87,6.42,.87,2.32,0,4.05-.36,5.19-1.09,1.13-.72,1.7-1.73,1.7-3.03,0-1.42-.59-2.52-1.78-3.31-1.19-.79-2.8-1.5-4.83-2.13-2.03-.63-4.37-1.34-7.01-2.13-3.43-1.05-6.27-2.23-8.52-3.54-2.25-1.31-3.91-2.91-4.99-4.81-1.08-1.89-1.62-4.25-1.62-7.09,0-3.94,.94-7.26,2.81-9.97,1.87-2.7,4.4-4.75,7.57-6.14s6.63-2.09,10.38-2.09c2.64,0,5.19,.32,7.65,.95,2.46,.63,4.75,1.43,6.89,2.38,2.14,.95,4.05,1.9,5.74,2.85l-5.7,10.77Z"/><path class="c" d="M272.28,57.44c-3.54,0-6.69-.57-9.47-1.72-2.77-1.15-5.11-2.71-7.01-4.68-1.9-1.98-3.34-4.24-4.32-6.79-.98-2.55-1.47-5.23-1.47-8.04s.49-5.57,1.47-8.12c.98-2.55,2.42-4.81,4.32-6.79,1.9-1.98,4.24-3.54,7.01-4.68,2.77-1.15,5.93-1.72,9.47-1.72s6.68,.57,9.43,1.72c2.74,1.15,5.07,2.71,6.97,4.68,1.9,1.98,3.35,4.24,4.36,6.79,1,2.55,1.51,5.26,1.51,8.12s-.5,5.49-1.51,8.04c-1,2.55-2.46,4.81-4.36,6.79-1.9,1.98-4.23,3.54-6.97,4.68-2.75,1.14-5.89,1.72-9.43,1.72Zm-9.27-21.23c0,2.1,.41,3.95,1.23,5.54,.82,1.59,1.91,2.82,3.29,3.69,1.37,.87,2.96,1.31,4.75,1.31s3.31-.45,4.71-1.35c1.4-.9,2.5-2.14,3.29-3.73,.79-1.59,1.19-3.41,1.19-5.46s-.4-3.95-1.19-5.54c-.79-1.59-1.89-2.82-3.29-3.69-1.4-.87-2.97-1.31-4.71-1.31s-3.38,.44-4.75,1.31c-1.37,.87-2.47,2.1-3.29,3.69-.82,1.59-1.23,3.44-1.23,5.54Z"/><path class="c" d="M296.44,41.85V15.53h12.68v23.49c0,2.5,.5,4.41,1.5,5.74,1,1.33,2.43,1.99,4.28,1.99,1.16,0,2.27-.19,3.33-.58,1.06-.38,2.09-1.01,3.09-1.88,1-.87,1.9-2,2.69-3.38V15.53h12.68v27.07c0,1.25,.2,2.12,.59,2.61,.4,.49,1.1,.79,2.1,.9v10.54c-1.16,.21-2.18,.37-3.05,.48-.87,.11-1.65,.16-2.34,.16-2.22,0-3.99-.46-5.31-1.37-1.32-.92-2.14-2.21-2.46-3.88l-.24-2.5c-1.9,2.72-4.27,4.71-7.09,5.99-2.83,1.28-5.98,1.92-9.47,1.92-4.23,0-7.45-1.33-9.67-3.99-2.22-2.66-3.33-6.53-3.33-11.59Z"/><path class="c" d="M368.93,25.91c-3.06,0-5.84,.49-8.32,1.47-2.48,.98-4.28,2.42-5.39,4.32v24.95h-12.67V15.53h11.65v7.92c1.43-2.8,3.27-4.99,5.54-6.58,2.27-1.58,4.65-2.4,7.13-2.46h1.31c.29,0,.54,.03,.75,.08v11.41Z"/><path class="c" d="M389.84,57.44c-3.54,0-6.68-.57-9.43-1.72-2.75-1.15-5.08-2.71-7.01-4.68-1.93-1.98-3.39-4.24-4.4-6.79-1-2.55-1.5-5.26-1.5-8.12,0-3.75,.88-7.23,2.65-10.46,1.77-3.23,4.32-5.83,7.64-7.81s7.34-2.97,12.04-2.97,8.78,1.02,12.08,3.05c3.3,2.03,5.77,4.69,7.41,7.96l-12.36,3.72c-.79-1.27-1.81-2.24-3.05-2.93-1.24-.69-2.63-1.03-4.16-1.03-1.74,0-3.31,.44-4.71,1.31-1.4,.87-2.51,2.08-3.33,3.61-.82,1.54-1.23,3.38-1.23,5.54s.42,3.95,1.27,5.54c.84,1.59,1.95,2.83,3.33,3.73,1.37,.9,2.93,1.35,4.67,1.35,1.06,0,2.05-.17,2.97-.51,.92-.34,1.77-.83,2.53-1.47s1.36-1.35,1.78-2.14l12.36,3.8c-1,2.11-2.44,4-4.32,5.66-1.88,1.66-4.08,2.97-6.62,3.92s-5.41,1.43-8.63,1.43Z"/><path class="c" d="M430.64,57.44c-3.54,0-6.68-.56-9.43-1.68-2.75-1.12-5.08-2.65-7.01-4.58-1.93-1.93-3.39-4.17-4.4-6.7-1-2.53-1.5-5.18-1.5-7.95,0-3.94,.88-7.53,2.65-10.78,1.77-3.24,4.32-5.86,7.64-7.86,3.33-2,7.34-3,12.04-3s8.7,.99,12,2.96c3.3,1.98,5.82,4.56,7.57,7.76,1.74,3.2,2.61,6.67,2.61,10.41,0,.73-.04,1.44-.12,2.15-.08,.7-.15,1.31-.2,1.83h-30.74c.16,1.8,.67,3.31,1.54,4.54,.87,1.23,1.99,2.17,3.37,2.81,1.37,.64,2.83,.96,4.36,.96,1.9,0,3.68-.45,5.35-1.35,1.66-.9,2.81-2.11,3.45-3.64l10.77,3.01c-1.06,2.17-2.55,4.08-4.48,5.74-1.93,1.66-4.2,2.97-6.81,3.92-2.62,.95-5.51,1.43-8.67,1.43Zm-9.19-25.19h18.06c-.21-1.66-.71-3.11-1.5-4.35-.79-1.23-1.85-2.19-3.17-2.87-1.32-.68-2.77-1.02-4.36-1.02s-3.1,.34-4.4,1.02c-1.29,.68-2.34,1.64-3.13,2.87-.79,1.24-1.29,2.68-1.51,4.35Z"/></g><g><path class="b" d="M105.17,71.4l17.6,54.59,17.39-54.59h18.23l-27.19,74.82h-16.97l-27.4-74.82h18.34Z"/><path class="b" d="M158.7,84.57v-15.28h16.86v15.28h-16.86Zm0,61.65v-55.32h16.86v55.32h-16.86Z"/><path class="b" d="M178.72,118.92c0-5.33,1.05-10.12,3.16-14.38,2.11-4.26,4.99-7.63,8.64-10.12,3.65-2.49,7.87-3.74,12.65-3.74,3.86,0,7.38,.93,10.54,2.79,3.16,1.86,5.55,4.3,7.17,7.32v-31.51h16.86v58.17c0,1.69,.28,2.86,.84,3.53,.56,.67,1.48,1.07,2.74,1.21v14.02c-2.95,.56-5.34,.84-7.17,.84-2.88,0-5.22-.63-7.01-1.9s-2.9-3.02-3.32-5.27l-.32-2.85c-1.97,3.44-4.64,6.01-8.01,7.69-3.37,1.69-6.92,2.53-10.64,2.53s-7.29-.71-10.49-2.13c-3.2-1.42-5.97-3.41-8.32-5.97-2.35-2.56-4.16-5.57-5.43-9.03-1.26-3.46-1.9-7.2-1.9-11.21Zm42.26,6.65v-11.25c-.7-1.84-1.7-3.44-3-4.81-1.3-1.36-2.78-2.46-4.43-3.27-1.65-.82-3.32-1.23-5.01-1.23-1.83,0-3.5,.38-5.01,1.13-1.51,.75-2.83,1.79-3.95,3.12-1.12,1.33-1.99,2.85-2.58,4.55-.6,1.71-.9,3.51-.9,5.42s.33,3.8,1,5.47c.67,1.67,1.6,3.14,2.79,4.4,1.19,1.26,2.6,2.23,4.22,2.92,1.62,.68,3.37,1.02,5.27,1.02,1.19,0,2.35-.19,3.48-.56,1.12-.38,2.19-.87,3.21-1.48,1.02-.61,1.95-1.4,2.79-2.35,.84-.96,1.54-1.98,2.11-3.07Z"/><path class="b" d="M271.98,147.27c-4.71,0-8.89-.75-12.54-2.24-3.65-1.49-6.76-3.53-9.33-6.1-2.57-2.57-4.51-5.54-5.85-8.91-1.34-3.37-2-6.89-2-10.58,0-5.24,1.18-10.02,3.53-14.33,2.35-4.31,5.74-7.79,10.17-10.45,4.43-2.66,9.76-3.99,16.02-3.99s11.57,1.31,15.96,3.94c4.39,2.63,7.75,6.07,10.06,10.32,2.32,4.25,3.48,8.87,3.48,13.85,0,.97-.05,1.92-.16,2.85s-.19,1.75-.26,2.44h-40.89c.21,2.39,.9,4.41,2.06,6.04,1.16,1.64,2.65,2.89,4.48,3.74,1.83,.85,3.76,1.28,5.8,1.28,2.53,0,4.9-.6,7.11-1.79,2.21-1.19,3.74-2.81,4.58-4.85l14.33,4c-1.41,2.88-3.39,5.43-5.95,7.64-2.57,2.21-5.58,3.95-9.06,5.22s-7.32,1.9-11.54,1.9Zm-12.22-33.51h24.03c-.28-2.21-.95-4.14-2-5.78-1.05-1.64-2.46-2.92-4.22-3.82-1.76-.91-3.69-1.36-5.8-1.36s-4.13,.45-5.85,1.36c-1.72,.91-3.11,2.18-4.16,3.82-1.05,1.64-1.72,3.57-2,5.78Z"/><path class="b" d="M330.25,147.27c-4.71,0-8.9-.76-12.59-2.28-3.69-1.52-6.8-3.6-9.33-6.23-2.53-2.63-4.45-5.64-5.74-9.03-1.3-3.39-1.95-6.96-1.95-10.69s.65-7.41,1.95-10.8c1.3-3.39,3.21-6.4,5.74-9.03,2.53-2.63,5.64-4.71,9.33-6.23,3.69-1.52,7.88-2.29,12.59-2.29s8.89,.76,12.54,2.29c3.65,1.52,6.74,3.6,9.27,6.23,2.53,2.63,4.46,5.64,5.79,9.03,1.33,3.39,2,6.99,2,10.8s-.67,7.3-2,10.69c-1.34,3.39-3.27,6.4-5.79,9.03-2.53,2.63-5.62,4.71-9.27,6.23-3.65,1.52-7.83,2.28-12.54,2.28Zm-12.33-28.24c0,2.8,.54,5.25,1.63,7.37,1.09,2.11,2.54,3.75,4.37,4.91,1.83,1.16,3.93,1.74,6.32,1.74s4.41-.6,6.27-1.79c1.86-1.19,3.32-2.85,4.37-4.96,1.05-2.11,1.58-4.53,1.58-7.26s-.53-5.25-1.58-7.37c-1.05-2.11-2.51-3.75-4.37-4.91-1.86-1.16-3.95-1.74-6.27-1.74s-4.5,.58-6.32,1.74c-1.83,1.16-3.29,2.8-4.37,4.91-1.09,2.11-1.63,4.57-1.63,7.37Z"/></g><g><path class="b" d="M336.67,159.75c0-4.57,.84-9.04,2.53-13.44,1.69-4.39,4.14-8.38,7.38-11.96,3.23-3.58,7.17-6.44,11.8-8.59,4.64-2.14,9.91-3.21,15.81-3.21,7.02,0,13.12,1.51,18.28,4.53,5.16,3.02,9.01,6.95,11.54,11.8l-13.28,9.27c-1.12-2.67-2.62-4.74-4.48-6.22-1.86-1.48-3.9-2.51-6.11-3.11-2.21-.6-4.34-.9-6.38-.9-3.3,0-6.18,.65-8.64,1.95-2.46,1.3-4.5,3.04-6.11,5.22-1.62,2.18-2.81,4.6-3.58,7.27-.77,2.67-1.16,5.34-1.16,8.01,0,2.95,.46,5.8,1.37,8.54,.91,2.74,2.23,5.16,3.95,7.27,1.72,2.11,3.81,3.78,6.27,5.01,2.46,1.23,5.16,1.84,8.11,1.84,2.11,0,4.25-.35,6.43-1.05,2.18-.7,4.2-1.81,6.06-3.32,1.86-1.51,3.28-3.49,4.27-5.95l14.12,8.32c-1.48,3.65-3.9,6.78-7.27,9.38-3.37,2.6-7.18,4.58-11.43,5.95-4.25,1.37-8.45,2.05-12.59,2.05-5.41,0-10.38-1.11-14.91-3.32s-8.43-5.16-11.7-8.85c-3.27-3.69-5.8-7.83-7.59-12.43-1.79-4.6-2.69-9.29-2.69-14.07Z"/><path class="b" d="M460.17,197.89h-16.86v-30.46c0-3.51-.72-6.09-2.16-7.74-1.44-1.65-3.36-2.48-5.74-2.48-1.26,0-2.69,.39-4.27,1.17-1.58,.78-3.04,1.88-4.37,3.29-1.34,1.42-2.35,3.08-3.06,4.97v31.25h-16.86V120.97h16.86v31.56c2.04-3.25,4.72-5.76,8.06-7.52,3.34-1.77,7.01-2.65,11.01-2.65,3.79,0,6.83,.62,9.12,1.87,2.28,1.25,4.02,2.89,5.22,4.93,1.19,2.04,2,4.27,2.42,6.69,.42,2.42,.63,4.81,.63,7.16v34.88Z"/><path class="b" d="M462.6,181.61c0-3.6,1.02-6.75,3.06-9.45,2.04-2.7,4.85-4.83,8.43-6.39s7.69-2.34,12.33-2.34c2.25,0,4.46,.19,6.64,.58,2.18,.39,4.07,.93,5.69,1.63v-2.42c0-2.92-.91-5.16-2.74-6.72-1.83-1.56-4.6-2.34-8.33-2.34-3.09,0-5.99,.53-8.69,1.58-2.71,1.05-5.57,2.56-8.59,4.53l-5.06-10.75c3.65-2.39,7.46-4.18,11.43-5.37,3.97-1.19,8.17-1.79,12.59-1.79,8.29,0,14.73,1.95,19.34,5.84,4.6,3.89,6.9,9.52,6.9,16.89v14.15c0,1.65,.26,2.81,.79,3.46,.53,.66,1.46,1.05,2.79,1.19v14.02c-1.41,.28-2.72,.49-3.95,.63-1.23,.14-2.3,.21-3.21,.21-3.16,0-5.57-.63-7.22-1.9-1.65-1.26-2.69-2.99-3.11-5.16l-.32-2.42c-2.46,3.16-5.39,5.57-8.8,7.22-3.41,1.65-6.97,2.48-10.7,2.48s-6.94-.76-9.85-2.28c-2.92-1.52-5.22-3.6-6.9-6.23-1.69-2.63-2.53-5.57-2.53-8.83Zm33.51,1.97c.77-.61,1.4-1.29,1.9-2.03,.49-.74,.74-1.46,.74-2.13v-4.77c-1.41-.54-2.97-.96-4.69-1.27-1.72-.3-3.32-.46-4.79-.46-3.09,0-5.66,.66-7.69,1.98-2.04,1.32-3.06,3.06-3.06,5.23,0,1.22,.35,2.34,1.05,3.35,.7,1.02,1.67,1.83,2.9,2.44,1.23,.61,2.69,.91,4.37,.91s3.37-.3,5.06-.91c1.69-.61,3.09-1.39,4.22-2.33Z"/><path class="b" d="M557.86,194.94c-1.55,.63-3.25,1.26-5.11,1.9-1.86,.63-3.81,1.14-5.85,1.53-2.04,.39-4.04,.58-6.01,.58-2.81,0-5.39-.47-7.75-1.4-2.35-.94-4.21-2.47-5.58-4.62-1.37-2.15-2.05-4.98-2.05-8.52v-28.46h-7.06v-12.75h7.06v-17.6h16.86v17.6h11.28v12.75h-11.28v22.56c0,1.79,.46,3.07,1.37,3.86,.91,.79,2.07,1.18,3.48,1.18,1.19,0,2.48-.21,3.85-.63,1.37-.42,2.54-.88,3.53-1.37l3.27,13.38Z"/></g></svg>