
<!-- Generator: Adobe Illustrator 22.0.1, SVG Export Plug-In . SVG Version: 6.00 Build 0)  -->
<svg id="Capa_1" xmlns="http://www.w3.org/2000/svg" xmlns:xlink="http://www.w3.org/1999/xlink" x="0px" y="0px"
	 viewBox="0 0 512 512" style="enable-background:new 0 0 512 512;" xml:space="preserve">
<style type="text/css">
	.st0{fill:#FFFFFF;}
</style>
<path class="st0" d="M391.4,460.1c-5.12,2.96-6.85,9.49-3.88,14.59c1.02,1.75,1.86,3.52,2.52,5.31H116.5
	c4.39-12.42,16.26-21.33,30.17-21.33h148.54c5.89,0,10.67-4.78,10.67-10.67s-4.78-10.67-10.67-10.67h-52.54v-23.04
	c3.05-1.88,5.21-5.1,5.21-8.96c0-5.89-4.78-10.67-10.67-10.67H61.33c-17.64,0-32-14.36-32-32V352H240c5.89,0,10.67-4.78,10.67-10.67
	s-4.78-10.67-10.67-10.67H29.33V64c0-17.64,14.36-32,32-32h384c17.64,0,32,14.36,32,32v170.67c0,5.89,4.78,10.67,10.67,10.67
	s10.67-4.78,10.67-10.67V64c0-29.4-23.92-53.33-53.33-53.33h-384C31.92,10.67,8,34.6,8,64v298.67C8,392.06,31.92,416,61.33,416h160
	v21.33h-74.67c-29.42,0-53.33,23.94-53.33,53.33c0,5.89,4.78,10.67,10.67,10.67h298.67c5.89,0,10.67-4.78,10.69-10.69
	c0-9.3-2.48-18.28-7.36-26.69C402.99,458.84,396.44,457.13,391.4,460.1z"/>
<g>
	<path class="st0" d="M384.83,447.33c62.77,0,113.83-51.07,113.83-113.83S447.6,219.67,384.83,219.67S271,270.73,271,333.5
		S322.07,447.33,384.83,447.33z M384.83,240.36c51.36,0,93.14,41.78,93.14,93.14s-41.78,93.14-93.14,93.14
		c-51.36,0-93.14-41.78-93.14-93.14S333.48,240.36,384.83,240.36z"/>
	<path class="st0" d="M408.56,371.86c2.02,2.02,4.67,3.03,7.32,3.03s5.3-1.01,7.32-3.03c4.04-4.04,4.04-10.59,0-14.63l-28.01-28.01
		v-57.81c0-5.72-4.63-10.35-10.35-10.35s-10.35,4.63-10.35,10.35v62.09c0,2.75,1.09,5.38,3.03,7.32L408.56,371.86z"/>
</g>
</svg>
