
<!-- Generator: Adobe Illustrator 22.0.1, SVG Export Plug-In . SVG Version: 6.00 Build 0)  -->
<svg  xmlns="http://www.w3.org/2000/svg" xmlns:xlink="http://www.w3.org/1999/xlink" x="0px" y="0px"
	 viewBox="0 0 518 518" style="enable-background:new 0 0 518 518;" xml:space="preserve">
<style type="text/css">
	.st0{fill:#FFFFFF;}
</style>
<g>
	<path class="st0" d="M475.33,305.83V88.33c0-25.18-20.49-45.67-45.67-45.67h-61v-29c0-3.65-1.42-7.09-4-9.67s-6.01-4-9.67-4
		c-7.54,0-13.67,6.13-13.67,13.67v29h-186v-29C155.33,6.13,149.2,0,141.67,0C134.13,0,128,6.13,128,13.67v29H45.67
		C20.49,42.67,0,63.15,0,88.33v341.33c0,25.18,20.49,45.67,45.67,45.67h260.16C328.81,502.47,362.2,518,397.67,518
		C464.02,518,518,464.02,518,397.67C518,362.19,502.47,328.81,475.33,305.83z M27.33,176.67H448v111.82
		c-15.92-7.4-32.83-11.15-50.33-11.15c-66.35,0-120.33,53.98-120.33,120.33c0,17.5,3.75,34.41,11.15,50.33H45.67
		c-10.11,0-18.33-8.22-18.33-18.33V176.67z M397.67,490.67c-51.28,0-93-41.72-93-93s41.72-93,93-93s93,41.72,93,93
		S448.95,490.67,397.67,490.67z M27.33,88.33C27.33,78.22,35.56,70,45.67,70H128v15.52c-12.01,1.48-21.33,11.75-21.33,24.15
		c0,13.42,10.92,24.33,24.33,24.33s24.33-10.92,24.33-24.33V70h186v15.52C329.33,87,320,97.26,320,109.67
		c0,13.42,10.92,24.33,24.33,24.33s24.33-10.92,24.33-24.33V70h61C439.78,70,448,78.22,448,88.33v61H27.33V88.33z"/>
	<path class="st0" d="M440.33,384h-29v-29c0-7.54-6.13-13.67-13.67-13.67c-7.54,0-13.67,6.13-13.67,13.67v29h-29
		c-7.54,0-13.67,6.13-13.67,13.67s6.13,13.67,13.67,13.67h29v29c0,7.54,6.13,13.67,13.67,13.67s13.67-6.13,13.67-13.67v-29h29
		c7.54,0,13.67-6.13,13.67-13.67S447.87,384,440.33,384z"/>
</g>
</svg>
