
<!-- Generator: Adobe Illustrator 22.0.1, SVG Export Plug-In . SVG Version: 6.00 Build 0)  -->
<svg id="Isolation_Mode" xmlns="http://www.w3.org/2000/svg" xmlns:xlink="http://www.w3.org/1999/xlink" x="0px"
	 y="0px" viewBox="0 0 384 384" style="enable-background:new 0 0 384 384;" xml:space="preserve">
<style type="text/css">
	.st0{fill:#FFFFFF;}
</style>
<path class="st0" d="M314.75,284.63L314.75,284.63l-58.77-14.68l-4.35-17.43c15.57-15.91,26.33-37.25,29.91-59.26
	c9.15-3.29,16.09-11.5,17.36-21.63l3.95-31.53c0.94-7.47-1.37-14.98-6.29-20.63c-2.43-2.79-5.4-5.01-8.68-6.55l1.32-26.67l5.18-5.21
	c9.58-10.18,17.54-27.56,1.15-52.57C283.16,9.58,262.29,0,233.47,0c-11.11,0-36.61,0-60.63,15.83
	c-69.25,1.73-78.23,35.97-78.23,65.79c0,6.78,1.49,20.99,2.62,30.78c-3.67,1.54-6.98,3.86-9.66,6.91
	c-5.03,5.67-7.36,13.25-6.42,20.78l3.95,31.53c1.34,10.84,9.17,19.48,19.26,22.23c3.56,21.1,13.76,41.69,28.37,57.24l-4.71,18.86
	l-58.77,14.68C28.46,294.8,0,331.28,0,373.33c0,2.84,1.11,5.57,3.12,7.55c2.01,1.98,4.74,3.11,7.55,3.11l362.67-0.04
	c5.89,0,10.67-4.78,10.67-10.67C384,331.29,355.52,294.83,314.75,284.63z M22.15,362.63L22.15,362.63
	c4.2-27.56,24.51-50.37,52.29-57.3l64.98-16.23c3.82-0.96,6.83-3.95,7.77-7.77l7.72-30.93c0.96-3.75-0.23-7.72-3.05-10.37
	c-15.42-14.46-25.64-35.69-27.33-56.75c-0.45-5.55-5.08-9.81-10.65-9.81h-2.56c-2.56,0-4.74-1.92-5.06-4.46l-3.95-31.53
	c-0.26-1.98,0.66-3.37,1.24-4.01s1.84-1.73,5.46-1.73c3.07,0,5.97-1.3,8-3.61c2.03-2.28,2.97-5.35,2.58-8.38
	c-1-8.02-3.65-30.53-3.65-38.08c0-19.58,0-43.93,60.39-44.52c2.18-0.02,4.33-0.7,6.1-1.98c16.98-12.14,35.33-13.78,51.05-13.78
	c21.16,0,36.03,6.34,44.2,18.84c9.34,14.27,5.82,21.29,1.37,26.03l-7.87,7.89c-1.88,1.88-2.99,4.37-3.11,7.02l-1.92,39.47
	c-0.13,2.9,0.92,5.72,2.9,7.83c1.96,2.11,4.74,3.33,7.64,3.35c2.01,0.02,3.24,1.11,3.8,1.75s1.45,1.98,1.22,3.95l-3.95,31.53
	c-0.32,2.54-2.5,4.46-5.82,4.46c-5.57,0-10.2,4.27-10.65,9.81c-1.73,21.72-12.42,43.35-28.63,57.88c-2.94,2.62-4.18,6.68-3.22,10.52
	l7.4,29.63c0.96,3.82,3.95,6.83,7.77,7.77l64.98,16.23c27.73,6.93,48.04,29.76,52.27,57.34L22.15,362.63z"/>
</svg>
