<?xml version="1.0" encoding="utf-8"?>
<!-- Generator: Adobe Illustrator 22.0.1, SVG Export Plug-In . SVG Version: 6.00 Build 0)  -->
<svg version="1.1" id="Capa_1" xmlns="http://www.w3.org/2000/svg" xmlns:xlink="http://www.w3.org/1999/xlink" x="0px" y="0px"
	 viewBox="0 0 512 395.6" style="enable-background:new 0 0 512 395.6;" xml:space="preserve">
<style type="text/css">
	.st0{fill:#FFFFFF;}
</style>
<path class="st0" d="M298.2,0c-35.4,0-70,9.4-100.3,27.2c-27,15.9-49.9,38.1-66.7,64.5H55.6c-30.7,0-55.6,25-55.6,55.7v100.8
	c0,30.7,24.9,55.6,55.6,55.6h75.6c16.8,26.4,39.7,48.6,66.7,64.5c30.3,17.8,64.9,27.2,100.3,27.2c7.9,0,14.3-6.3,14.3-14.3V14.3
	C312.5,6.4,306.1,0,298.2,0z M125,275.3H55.6c-15,0-27.1-12.1-27.1-27.1V147.4c0-15,12.1-27.1,27.1-27.1H125
	C125,120.2,125,275.3,125,275.3z M284,366.5c-53.5-4.5-102.3-34.6-130.5-80.9V110c28.2-46.2,77-76.3,130.5-80.9V366.5z"/>
<g>
	<path class="st0" d="M508.5,262.6l-3.2,3.2c-4.7,4.7-12.3,4.7-17,0l-116-116c-4.7-4.7-4.7-12.3,0-17l3.2-3.2c4.7-4.7,12.3-4.7,17,0
		l116,116C513.2,250.3,513.2,258,508.5,262.6z"/>
	<path class="st0" d="M375.6,265.8l-3.2-3.2c-4.7-4.7-4.7-12.3,0-17l116-116c4.7-4.7,12.3-4.7,17,0l3.2,3.2c4.7,4.7,4.7,12.3,0,17
		l-116,116C387.9,270.5,380.2,270.5,375.6,265.8z"/>
</g>
</svg>
