<?xml version="1.0" encoding="utf-8"?>
<!-- Generator: Adobe Illustrator 22.0.1, SVG Export Plug-In . SVG Version: 6.00 Build 0)  -->
<svg version="1.1" id="Capa_1" xmlns="http://www.w3.org/2000/svg" xmlns:xlink="http://www.w3.org/1999/xlink" x="0px" y="0px"
	 viewBox="0 0 320 512" style="enable-background:new 0 0 320 512;" xml:space="preserve">
<style type="text/css">
	.st0{fill:#4285f4;}
</style>
<g>
	<g>
		<g>
			<path class="st0" d="M181.33,42.67h-42.67c-5.89,0-10.67,4.78-10.67,10.67S132.78,64,138.67,64h42.67
				c5.89,0,10.67-4.78,10.67-10.67S187.22,42.67,181.33,42.67z"/>
			<path class="st0" d="M245.76,42.67h-0.21c-5.89,0-10.56,4.78-10.56,10.67S239.87,64,245.76,64s10.67-4.78,10.67-10.67
				S251.65,42.67,245.76,42.67z"/>
			<path class="st0" d="M160,469.33c11.78,0,21.33-9.56,21.33-21.33s-9.56-21.33-21.33-21.33s-21.33,9.56-21.33,21.33
				S148.22,469.33,160,469.33z"/>
			<path class="st0" d="M245.33,0H74.67C33.49,0,0,33.49,0,74.67v362.67C0,478.51,33.49,512,74.67,512h170.67
				c41.17,0,74.67-33.49,74.67-74.67V74.67C320,33.49,286.51,0,245.33,0z M298.67,437.33c0,29.4-23.94,53.33-53.33,53.33H74.67
				c-29.4,0-53.33-23.94-53.33-53.33v-32h277.33L298.67,437.33L298.67,437.33z M133.78,298.24c-10.35-9.71-17.2-23.92-18.3-38.02
				c-0.45-5.52-5.08-9.81-10.65-9.81l-2.26-0.4l-1.17-22.78c3.07,0,5.97-1.3,8-3.6c2.03-2.28,2.96-5.33,2.58-8.38
				c-0.98-7.81-2.54-21.89-2.54-26.5c0-13.72,0-27.9,39.53-28.29c2.18-0.02,4.33-0.7,6.1-1.98c12.78-9.15,27.26-9.15,34.22-9.15
				c13.99,0,23.34,3.88,28.59,11.88c6.12,9.39,3.14,12.57,1.36,14.44l-5.57,5.57c-1.88,1.88-2.99,4.37-3.11,7.02l-1.34,27.86
				c-0.15,2.9,1.13,5.97,3.11,8.09s4.97,3.58,7.87,3.6l-3.78,22.68c-5.57,0-10.2,4.27-10.64,9.81
				c-1.13,14.32-8.49,29.18-19.18,38.76c-2.94,2.62-4.18,6.68-3.22,10.52l5.23,20.91c0.96,3.82,3.95,6.83,7.77,7.77l45.87,11.48
				c17.11,4.29,29.95,17.71,33.86,34.3l-232.19-0.02c3.9-16.58,16.75-29.99,33.84-34.3l45.87-11.48c3.82-0.96,6.83-3.95,7.76-7.77
				l5.46-21.82C137.77,304.85,136.6,300.89,133.78,298.24z M298.67,384h-0.94c-4.18-26.43-23.68-48.3-50.35-54.98l-39.66-9.92
				l-2.2-8.81c10.37-11.09,17.64-25.54,20.44-40.49c6.7-3.07,11.63-9.43,12.59-17.13l2.77-22.25c0.77-6.14-1.13-12.35-5.18-17
				c-1.54-1.75-3.33-3.22-5.27-4.4l0.77-15.64l2.88-2.88c6.17-6.55,14.51-20.59,1.15-40.98c-6.42-9.81-19.69-21.52-46.42-21.52
				c-8.02,0-26.28,0-43.78,11.2c-50.77,1.56-57.39,27.2-57.39,49.56c0,4.42,0.85,13.1,1.62,19.88c-2.15,1.17-4.12,2.75-5.8,4.65
				c-4.14,4.69-6.08,10.92-5.29,17.13l2.77,22.25c1,7.94,6.21,14.44,13.91,17.39c2.75,14.36,9.64,28.29,19.39,39.17l-2.45,9.86
				L72.57,329c-26.65,6.68-46.14,28.54-50.35,55h-0.9V106.67h277.33L298.67,384L298.67,384z M298.67,85.33H21.33V74.67
				c0-29.4,23.94-53.33,53.33-53.33h170.67c29.4,0,53.33,23.94,53.33,53.33L298.67,85.33L298.67,85.33z"/>
		</g>
	</g>
</g>
</svg>
