<?xml version="1.0" encoding="utf-8"?>
<!-- Generator: Adobe Illustrator 22.0.1, SVG Export Plug-In . SVG Version: 6.00 Build 0)  -->
<svg version="1.1" id="Capa_1" xmlns="http://www.w3.org/2000/svg" xmlns:xlink="http://www.w3.org/1999/xlink" x="0px" y="0px"
	 viewBox="0 0 512 512" style="enable-background:new 0 0 512 512;" xml:space="preserve">
<style type="text/css">
	.st0{fill:#FFFFFF;}
</style>
<g>
	<g>
		<path class="st0" d="M485.79,202.25l-35.94-6.1c-3.74-12.09-8.56-23.74-14.44-34.87l21.18-29.63c8.98-12.62,7.59-29.84-3.42-40.75
			L421.3,59.04c-5.99-5.99-13.9-9.31-22.35-9.31c-6.63,0-12.94,2.03-18.29,5.88l-29.73,21.18c-11.55-6.1-23.64-11.12-36.15-14.87
			l-5.99-35.51C306.21,11.12,293.06,0,277.55,0h-45.03c-15.51,0-28.66,11.12-31.23,26.42l-6.2,36.36
			c-11.98,3.74-23.64,8.66-34.76,14.65l-29.41-21.18c-5.35-3.85-11.77-5.88-18.4-5.88c-8.45,0-16.47,3.32-22.35,9.31L58.18,91.55
			c-10.91,10.91-12.41,28.13-3.42,40.75l21.39,30.05c-5.88,11.23-10.59,22.89-14.23,34.97l-35.51,5.99
			C11.12,205.89,0,219.05,0,234.55v45.03c0,15.51,11.12,28.66,26.42,31.23l36.36,6.2c3.74,11.98,8.66,23.64,14.65,34.76
			l-21.07,29.31c-8.98,12.62-7.59,29.84,3.42,40.75l31.87,31.87c5.99,5.99,13.9,9.31,22.35,9.31c6.63,0,12.94-2.03,18.29-5.88
			l30.05-21.39c10.8,5.67,22.14,10.27,33.8,13.9l5.99,35.94c2.57,15.29,15.72,26.42,31.23,26.42h45.14
			c15.51,0,28.66-11.12,31.23-26.42l6.1-35.94c12.09-3.74,23.74-8.56,34.87-14.44l29.63,21.18c5.35,3.85,11.77,5.88,18.4,5.88l0,0
			c8.45,0,16.36-3.32,22.35-9.31l31.87-31.87c10.91-10.91,12.41-28.13,3.42-40.75L435.2,350.6c5.88-11.23,10.8-22.89,14.44-34.87
			l35.94-5.99c15.29-2.57,26.42-15.72,26.42-31.23v-45.03C512.21,217.98,501.09,204.82,485.79,202.25z M483.33,278.51
			c0,1.39-0.96,2.57-2.35,2.78l-44.92,7.49c-5.67,0.96-10.16,5.13-11.55,10.59c-4.06,15.72-10.27,30.8-18.61,44.81
			c-2.89,4.92-2.67,11.02,0.64,15.72l26.42,37.22c0.75,1.07,0.64,2.67-0.32,3.64l-31.87,31.87c-0.75,0.75-1.5,0.86-2.03,0.86
			c-0.64,0-1.18-0.21-1.6-0.53l-37.11-26.42c-4.6-3.32-10.8-3.53-15.72-0.64c-14.01,8.34-29.09,14.55-44.81,18.61
			c-5.56,1.39-9.73,5.99-10.59,11.55l-7.59,44.92c-0.21,1.39-1.39,2.35-2.78,2.35h-45.03c-1.39,0-2.57-0.96-2.78-2.35l-7.49-44.92
			c-0.96-5.67-5.13-10.16-10.59-11.55c-15.29-3.96-30.05-10.05-43.85-17.97c-2.25-1.28-4.81-1.93-7.27-1.93
			c-2.89,0-5.88,0.86-8.34,2.67l-37.43,26.63c-0.53,0.32-1.07,0.53-1.6,0.53c-0.43,0-1.28-0.11-2.03-0.86l-31.87-31.87
			c-0.96-0.96-1.07-2.46-0.32-3.64l26.31-36.9c3.32-4.71,3.53-10.91,0.64-15.83c-8.34-13.9-14.76-28.98-18.82-44.71
			c-1.5-5.45-5.99-9.63-11.55-10.59l-45.24-7.7c-1.39-0.21-2.35-1.39-2.35-2.78v-45.03c0-1.39,0.96-2.57,2.35-2.78l44.6-7.49
			c5.67-0.96,10.27-5.13,11.66-10.7c3.96-15.72,10.05-30.91,18.29-44.92c2.89-4.92,2.57-11.02-0.75-15.62L78.4,115.62
			c-0.75-1.07-0.64-2.67,0.32-3.64l31.87-31.87c0.75-0.75,1.5-0.86,2.03-0.86c0.64,0,1.18,0.21,1.6,0.53l36.9,26.31
			c4.71,3.32,10.91,3.53,15.83,0.64c13.9-8.34,28.99-14.76,44.71-18.82c5.45-1.5,9.63-5.99,10.59-11.55l7.7-45.24
			c0.21-1.39,1.39-2.35,2.78-2.35h45.03c1.39,0,2.57,0.96,2.78,2.35l7.49,44.6c0.96,5.67,5.13,10.27,10.7,11.66
			c16.15,4.06,31.55,10.37,45.88,18.82c4.92,2.89,11.02,2.67,15.72-0.64l36.9-26.53c0.53-0.32,1.07-0.53,1.6-0.53
			c0.43,0,1.28,0.11,2.03,0.86l31.87,31.87c0.96,0.96,1.07,2.46,0.32,3.64l-26.42,37.11c-3.32,4.6-3.53,10.8-0.64,15.72
			c8.34,14.01,14.55,29.09,18.61,44.81c1.39,5.56,5.99,9.73,11.55,10.59l44.92,7.59c1.39,0.21,2.35,1.39,2.35,2.78v45.03H483.33z"/>
		<path class="st0" d="M256.05,145.46c-60.96,0-110.49,49.52-110.49,110.49s49.52,110.49,110.49,110.49s110.49-49.52,110.49-110.49
			S317.02,145.46,256.05,145.46z M256.05,337.55c-45.03,0-81.61-36.58-81.61-81.61s36.58-81.61,81.61-81.61s81.61,36.58,81.61,81.61
			S301.08,337.55,256.05,337.55z"/>
	</g>
</g>
</svg>
