
<!-- Generator: Adobe Illustrator 22.0.1, SVG Export Plug-In . SVG Version: 6.00 Build 0)  -->
<svg id="Capa_1" xmlns="http://www.w3.org/2000/svg" xmlns:xlink="http://www.w3.org/1999/xlink" x="0px" y="0px"
	 viewBox="0 0 263.74 208.83" style="enable-background:new 0 0 263.74 208.83;" xml:space="preserve">
<style type="text/css">
	.st0{fill:#F44336;}
</style>
<path class="st0" d="M231.2,0c-8.7,0-16.87,3.39-23.03,9.54L87.69,130.23L55.57,98.12c-6.15-6.15-14.32-9.54-23.02-9.54
	c-8.7,0-16.87,3.39-23.02,9.54C3.38,104.26,0,112.44,0,121.13s3.38,16.87,9.53,23.02l55.14,55.14c6.15,6.15,14.32,9.54,23.02,9.54
	c8.69,0,16.87-3.39,23.03-9.54l143.5-143.71c12.69-12.69,12.69-33.35,0-46.04C248.07,3.39,239.9,0,231.2,0z"/>
</svg>
