
<!-- Generator: Adobe Illustrator 22.0.1, SVG Export Plug-In . SVG Version: 6.00 Build 0)  -->
<svg id="Capa_1" xmlns="http://www.w3.org/2000/svg" xmlns:xlink="http://www.w3.org/1999/xlink" x="0px" y="0px"
	 viewBox="0 0 512 495.43" style="enable-background:new 0 0 512 495.43;" xml:space="preserve">
<style type="text/css">
	.st0{fill:#FFFFFF;}
</style>
<g>
	<g id="c115_arrows">
		<path class="st0" d="M511.98,345.46c0-15.67-12.01-28.34-26.92-28.34c-14.79,0.04-26.94,12.67-26.94,28.34v58.67l-108.64-108.7
			c-10.51-10.52-27.51-10.52-38.02,0c-10.51,10.51-10.51,27.57,0,38.07l108.12,108.08h-58.4c-15.9,0.04-28.72,12.08-28.72,26.92
			c0,14.88,12.82,26.9,28.72,26.9h122.06c15.9,0,28.7-12.01,28.76-26.9c-0.05-0.4-0.11-0.7-0.16-1.1c0.05-0.51,0.16-1.05,0.16-1.57
			V345.46L511.98,345.46L511.98,345.46z"/>
		<path class="st0" d="M162.48,295.44L53.89,404.13v-58.67c0-15.67-12.13-28.31-26.95-28.34c-14.88,0-26.9,12.67-26.9,28.34
			L0,465.86c0,0.52,0.14,1.07,0.18,1.57c-0.04,0.38-0.11,0.69-0.14,1.1c0.04,14.89,12.85,26.9,28.74,26.9h122.07
			c15.87,0,28.7-12.02,28.7-26.9c0-14.84-12.84-26.88-28.7-26.92h-58.4l108.12-108.08c10.47-10.51,10.47-27.57,0-38.07
			C190.04,284.91,173.02,284.91,162.48,295.44z"/>
		<path class="st0" d="M349.49,199.95L458.13,91.33V150c0,15.62,12.15,28.25,26.94,28.31c14.91,0,26.92-12.69,26.92-28.31V29.57
			c0-0.52-0.11-1.07-0.16-1.53c0.05-0.38,0.11-0.74,0.16-1.12C511.93,12.01,499.13,0,483.24,0H361.19
			c-15.9,0-28.72,12.01-28.72,26.92c0,14.82,12.82,26.9,28.72,26.94h58.4L311.47,161.94c-10.51,10.49-10.51,27.51,0,38
			C321.97,210.52,338.98,210.52,349.49,199.95z"/>
		<path class="st0" d="M92.45,53.85h58.38c15.87-0.04,28.7-12.11,28.7-26.94C179.54,12.01,166.7,0,150.83,0H28.78
			C12.89,0,0.07,12.01,0.04,26.92c0.04,0.38,0.11,0.74,0.14,1.12C0.14,28.51,0,29.03,0,29.57l0.04,120.45
			c0,15.62,12.02,28.31,26.9,28.31c14.82-0.05,26.95-12.69,26.95-28.31V91.35l108.59,108.61c10.54,10.56,27.57,10.56,38.09,0
			c10.47-10.49,10.47-27.51,0-38L92.45,53.85z"/>
	</g>
</g>
</svg>
