
<!-- Generator: Adobe Illustrator 22.0.1, SVG Export Plug-In . SVG Version: 6.00 Build 0)  -->
<svg id="Capa_1" xmlns="http://www.w3.org/2000/svg" xmlns:xlink="http://www.w3.org/1999/xlink" x="0px" y="0px"
	 viewBox="0 0 503 503" style="enable-background:new 0 0 503 503;" xml:space="preserve">
<style type="text/css">
	.st0{fill:#FFFFFF;}
</style>
<path class="st0" d="M502.9,406.1c-0.9-20.7-13.4-40.5-38.3-60.5c-73.5-59.1-101.2-31-130.5-1.3l-5.2,5.3c-4.4,4.4-18.4,0-35.7-11.3
	c-18.5-12-41.8-32-69.2-59.4c-35.8-35.8-58.6-64.1-67.9-84.4c-5.4-11.8-4.9-18.4-2.8-20.5l5.2-5.2c29.8-29.3,57.9-57-1.2-130.5
	C137.3,13.4,117.5,0.9,96.9,0.1C66.9-1.3,44,22.8,25.6,42.2l-0.3,0.3c-3,3.2-5.9,6.1-8.7,9c-21.8,21.8-22.1,68.3-0.9,124.5
	C38.4,236.3,83.4,302,142.2,360.8C201,419.6,266.6,464.5,327,487.3c27.3,10.3,53,15.7,74.3,15.7c21.9,0,39.3-5.8,50.2-16.7
	c2.4-2.4,4.9-4.7,7.5-7.2l1.7-1.6C481.1,458.1,504.1,436.2,502.9,406.1z M134.8,155.4c-12.6,12.6-12.6,31.2-0.1,55.1
	c11.8,22.6,35,51,70.8,86.8c28.7,28.7,53.4,49.9,73.4,62.9c30.7,20,53.8,22.6,68.5,7.8l5.4-5.4c12.9-13.1,23.2-23.5,36.2-25
	c14.2-1.6,33,7.4,59.1,28.3c18.4,14.8,28,28.6,28.5,41.2c0.7,18.2-17.7,35.7-34.1,51.3c-3.3,3.2-6.6,6.3-9.7,9.3
	c-13.7,13.7-52.5,11.7-96.7-5c-57-21.5-119.3-64.3-175.5-120.5c-56.2-56.2-99-118.6-120.5-175.6C23.5,122.5,21.5,83.6,35.1,70
	c2.7-2.7,5.4-5.6,8.3-8.6l1.1-1.2c15.2-15.9,32.3-34,50.1-34c0.4,0,0.7,0,1.1,0c12.5,0.5,26.4,10.1,41.2,28.5
	c21,26.1,30,44.9,28.3,59.1c-1.5,13.1-11.9,23.3-25.1,36.3L134.8,155.4z"/>
</svg>
