<?xml version="1.0" encoding="utf-8"?>
<svg version="1.1" id="Layer_1" xmlns="http://www.w3.org/2000/svg" xmlns:xlink="http://www.w3.org/1999/xlink" x="0px" y="0px"
	 viewBox="0 0 323 216" style="enable-background:new 0 0 323 216;" xml:space="preserve">
<style type="text/css">
	.st0{fill:#001588;}
</style>
<g>
	<g>
		<g>
			<path class="st0" d="M207.57,215.18c-0.93,0-1.73-0.64-2.19-1.75l-3.91-9.5c-0.67,0.06-1.43,0.09-2.37,0.09
				c-21.12,0-38.31-13.9-38.31-30.99s17.19-30.99,38.31-30.99s38.31,13.9,38.31,30.99c0,9.82-5.57,18.84-15.27,24.76l-12.5,16.22
				C209.05,214.76,208.31,215.18,207.57,215.18z M199.1,155.57c-13.42,0-24.76,7.99-24.76,17.44c0,9.46,11.34,17.44,24.76,17.44
				c0.29,0,0.49-0.01,0.72-0.02c0.33-0.02,0.69-0.04,1.33-0.04c5.67,0,11.89-2.96,11.95-2.99l1.92-1.17
				c5.62-3.41,8.84-8.23,8.84-13.23C223.86,163.56,212.52,155.57,199.1,155.57z"/>
			<path class="st0" d="M0,124.7l8.17-0.07c2.24,0,4.18,0.81,5.78,2.4c1.6,1.6,2.41,3.54,2.41,5.77v15.65
				c2.66-3.63,6.24-6.01,10.64-7.08c2-0.48,3.99-0.73,5.92-0.73c2.9,0,5.76,0.55,8.49,1.65c4.25,1.82,7.86,4.74,10.74,8.68
				c2.89,3.96,4.35,9.48,4.35,16.41v35.1l-0.6,0.07H40.44l-0.07-31.37c0-2.17-0.18-4.19-0.55-6.02c-0.36-1.77-1.19-3.61-2.47-5.47
				c-2.1-2.94-5.01-4.43-8.66-4.43c-3.94,0-7.01,1.42-9.11,4.22c-2.14,2.86-3.23,6.86-3.23,11.91v31.08l-16.29,0.07L0,124.7z"/>
			<path class="st0" d="M87.84,203.66c-8.62,0-15.45-2.85-20.3-8.46c-4.83-5.43-7.28-13.29-7.28-23.36c0-9.62,2.37-17.26,7.06-22.69
				c4.86-5.61,11.69-8.46,20.3-8.46c9.05,0,16.18,2.77,21.18,8.22c4.84,5.6,7.29,13.46,7.29,23.38v2.45c0,0.84-0.09,1.44-0.28,1.83
				l-0.14,0.29l-38.42,0.04c0.27,4.15,1.36,7.26,3.22,9.26c1.83,2.25,4.6,3.38,8.26,3.38c2.41,0,4.49-0.5,6.17-1.48
				c0.47-0.17,0.8-0.38,1.11-0.69l1.15-1.15c0.22-0.53,0.8-1.14,1.81-1.92c1.07-0.82,2.58-1.24,4.49-1.24h11.82l-0.16,0.65
				c-1.58,6.39-4.79,11.34-9.53,14.7C100.9,201.89,94.93,203.66,87.84,203.66z M88.06,154.81c-3.09,0-5.65,0.99-7.61,2.95
				c-1.87,1.87-2.92,4.55-3.14,7.98l21.54-0.07c-0.41-3.56-1.41-6.22-2.98-7.92C94.07,155.8,91.44,154.81,88.06,154.81z"/>
			<path class="st0" d="M120.02,202.54l-0.07-77.84l8.62-0.07c2.23,0,4.17,0.77,5.77,2.28c1.6,1.53,2.42,3.44,2.42,5.67v69.89
				l-0.6,0.07L120.02,202.54L120.02,202.54z"/>
			<path class="st0" d="M140.31,202.54l-0.07-77.84l8.62-0.07c2.23,0,4.17,0.77,5.77,2.28c1.6,1.53,2.42,3.44,2.42,5.67v69.89
				l-0.6,0.07L140.31,202.54L140.31,202.54z"/>
			<path class="st0" d="M267.18,203.66c-6.5-0.3-12.49-2.13-17.82-5.44c-5.44-3.37-8.2-10.37-8.2-20.8V142.1l16.73-0.07l0.07,38.51
				c0,3.36,0.97,5.83,2.89,7.34c1.96,1.54,4.24,2.33,6.77,2.33s4.85-0.78,6.89-2.33c1.99-1.51,3-3.98,3-7.33V150.2
				c0-2.23,0.77-4.17,2.28-5.76c1.52-1.6,3.51-2.42,5.9-2.42h8.33l0.07,35.39c0,10.73-2.87,17.89-8.55,21.26
				C279.99,201.98,273.81,203.66,267.18,203.66L267.18,203.66z"/>
		</g>
		<g>
			<g>
				<path class="st0" d="M311.64,188.95h-2.08v3h1.65c1.8,0,2.66-0.25,2.66-1.65C313.86,189.68,313.61,188.95,311.64,188.95z"/>
			</g>
			<g>
				<path class="st0" d="M311.64,182.47c-5.84,0-10.6,4.75-10.6,10.59s4.75,10.59,10.6,10.59c5.84,0,10.59-4.75,10.59-10.59
					S317.48,182.47,311.64,182.47z M314.54,199.55l-3.52-5.56l-1.46,0.15v5.41h-2.65v-12.96h5.03c3.19,0,4.74,1.27,4.74,3.87
					c0,1.33-0.53,2.99-2.95,3.6l3.56,5.49H314.54z"/>
			</g>
		</g>
	</g>
	<g>
		<path class="st0" d="M55.42,46.42C45.34,32.6,26.6,41.08,26.61,57.07c0.36,18.86,22.11,24.11,30.54,6.94l-0.04-13.4
			C56.92,49.17,56.34,47.75,55.42,46.42z"/>
		<path class="st0" d="M216.89,4.23c-95.68-5.64-95.68-5.64-196.49,0C10.03,4.81,2.13,12.75,1.52,23.11
			c-2.02,34.2-2.02,34.2,0,66.26c0.65,10.36,8.51,18.35,18.88,18.88c2.32,0.12,4.57,0.23,6.79,0.35l5.67,13.79
			c1.33,3.42,4.84,3.78,6.93,0.93l10.45-13.55c69.65,3.45,79.51,2.94,166.65-1.51c10.37-0.53,18.18-8.52,18.88-18.88
			c2.19-32.46,2.19-32.46,0-66.26C235.1,12.75,227.25,4.84,216.89,4.23z M63.47,96.1c-3.07,0.75-6.45-0.97-6.35-4.43V69.8
			c-12.59,17.8-35.48,6.98-35.26-12.81c-0.08-19.41,23.3-30.41,35.58-13.59v-7.57h4.35v54.41c0.04,1.68,0.82,1.72,1.68,1.75
			C63.47,91.99,63.47,96.1,63.47,96.1z M110.05,77.93c-2.64,0.68-6.02-0.81-5.95-3.87v-4.95c-3.65,6.02-10.37,9.72-17.37,9.68
			c-9.01,0-13.58-6.29-13.58-18.69V35.83h4.67v23.71c0,10.08,3.31,14.97,10.11,14.97c7.25-0.01,13.57-5.52,15.79-12.29l-0.02-26.4
			h4.67v36.24c0.04,1.68,0.82,1.66,1.68,1.65V77.93z M125.05,77.99h-4.67V35.83h4.67V77.99z M125.05,27.1h-4.67v-8.02h4.67V27.1z
			 M172.01,68.44c-2.56,6.71-10.17,10.38-17.15,10.35c-11.79,0.22-21.07-10.55-20.84-22.04c-0.07-8.45,4.59-16.57,12.41-19.94
			c8.92-4.02,21.34-0.94,25.26,8.49l-4.55,1.49c-8.58-14.6-28.88-5.99-28.45,9.96c-0.34,10.43,9.62,20.51,20.18,17.14
			c3.61-1.12,7.57-3.4,8.69-7.11l4.58,1.31L172.01,68.44z M210.52,77.99l-16.07-22.01l-9.42,8.65v13.35h-4.67v-58.9h4.67v40.23
			l24.73-23.4h5.6l-17.7,17.21l18.09,24.87H210.52z"/>
	</g>
</g>
</svg>
