
<!-- Generator: Adobe Illustrator 22.0.1, SVG Export Plug-In . SVG Version: 6.00 Build 0)  -->
<svg id="Capa_1" xmlns="http://www.w3.org/2000/svg" xmlns:xlink="http://www.w3.org/1999/xlink" x="0px" y="0px"
	 viewBox="0 0 520 519.98" style="enable-background:new 0 0 520 519.98;" xml:space="preserve">
<style type="text/css">
	.st0{fill:#FFFFFF;}
</style>
<g>
	<path class="st0" d="M512.7,432.67c4.5-2.63,7.29-7.49,7.29-12.69v-320c0-5.2-2.79-10.06-7.31-12.7
		c-4.49-2.6-10.09-2.61-14.63-0.03l-127.39,72.78v-38.72c0-19.85-16.15-36-36-36H106.05L25.03,4.29c-5.72-5.72-15.02-5.72-20.74,0
		c-5.72,5.72-5.72,15.02,0,20.74L494.97,515.7c2.78,2.75,6.46,4.27,10.37,4.27c3.92,0,7.6-1.52,10.36-4.29
		c5.72-5.72,5.72-15.02,0-20.74L394,373.26l104.06,59.45C502.52,435.26,508.24,435.24,512.7,432.67z M348.64,198.01
		c4.51,2.6,10.11,2.61,14.63,0.03l127.39-72.78v269.44l-127.37-72.77c-2.24-1.3-4.76-1.95-7.29-1.95c-2.55,0-5.1,0.66-7.38,1.98
		c-1.21,0.71-2.29,1.62-3.23,2.72L135.39,114.65h199.28c3.68,0,6.67,2.99,6.67,6.67v64C341.33,190.51,344.13,195.37,348.64,198.01z"
		/>
	<path class="st0" d="M360.05,393.97l-0.03-0.01c-7.36-3.23-16.04,0.07-19.35,7.38c-1.09,2.42-3.44,3.98-6,3.98H59.36
		c-2.52-0.69-10.33-10.79-17.56-36.73c-5.69-20.4-12.47-55.81-12.47-108.61c0-75.74,15.34-134.15,29.55-144.83
		c3.13-2.35,5.17-5.78,5.72-9.66c0.56-3.88-0.44-7.74-2.78-10.86c-4.8-6.45-14-7.78-20.55-2.95
		c-13.59,10.21-24.23,32.87-31.63,67.37C3.43,188.07,0,223.92,0,259.98c0,86.94,18.33,174.67,59.27,174.67h275.39
		c14.09,0,26.94-8.35,32.75-21.29C370.72,405.97,367.42,397.28,360.05,393.97z"/>
</g>
</svg>
