

<svg  xmlns="http://www.w3.org/2000/svg" xmlns:xlink="http://www.w3.org/1999/xlink" x="0px" y="0px"
	 viewBox="0 0 566 367.89" style="enable-background:new 0 0 566 367.89;" xml:space="preserve">
<style type="text/css">
	.st0{fill:#4285F4;}
	.st1{fill:#001588;}
</style>
<g>
	<g>
		<g>
			<path class="st0" d="M30.08,61.91c-4.23,0-8.04-0.8-11.45-2.42c-3.41-1.61-6.34-3.78-8.79-6.5c-2.46-2.72-4.35-5.78-5.66-9.19
				C2.85,40.4,2.2,36.88,2.2,33.23c0-3.75,0.7-7.31,2.1-10.69c1.4-3.38,3.35-6.4,5.86-9.07c2.51-2.67,5.48-4.77,8.91-6.3
				c3.43-1.53,7.18-2.3,11.25-2.3c4.17,0,7.96,0.81,11.37,2.42c3.41,1.61,6.34,3.79,8.79,6.54c2.46,2.75,4.34,5.82,5.66,9.23
				c1.32,3.41,1.98,6.88,1.98,10.42c0,3.75-0.69,7.32-2.06,10.69c-1.37,3.38-3.33,6.4-5.86,9.07c-2.54,2.67-5.51,4.78-8.91,6.34
				C37.88,61.13,34.15,61.91,30.08,61.91z M15.43,33.39c0,2.17,0.32,4.27,0.95,6.3c0.63,2.03,1.57,3.84,2.81,5.43
				c1.24,1.58,2.79,2.85,4.63,3.8c1.85,0.95,3.96,1.43,6.34,1.43c2.48,0,4.65-0.49,6.5-1.47c1.85-0.98,3.38-2.28,4.59-3.92
				c1.21-1.64,2.12-3.47,2.73-5.51c0.61-2.03,0.91-4.11,0.91-6.22c0-2.17-0.32-4.25-0.95-6.26c-0.63-2.01-1.58-3.81-2.85-5.43
				c-1.27-1.61-2.83-2.86-4.67-3.76c-1.85-0.9-3.93-1.35-6.26-1.35c-2.48,0-4.63,0.48-6.46,1.43s-3.35,2.23-4.59,3.84
				c-1.24,1.61-2.17,3.43-2.77,5.47C15.73,29.21,15.43,31.28,15.43,33.39z"/>
			<path class="st0" d="M86.57,62.31c-3.12,0-5.84-0.66-8.16-1.99c-2.32-1.33-4.15-3.14-5.47-5.43v23.5H60.27V20.4h11.01v6.78
				c1.53-2.34,3.46-4.16,5.78-5.46c2.32-1.3,5.04-1.95,8.16-1.95c2.8,0,5.37,0.55,7.72,1.64c2.35,1.09,4.4,2.6,6.14,4.53
				c1.74,1.93,3.09,4.16,4.04,6.71s1.43,5.31,1.43,8.27c0,4.06-0.77,7.7-2.3,10.93c-1.53,3.23-3.66,5.78-6.38,7.65
				C93.15,61.37,90.05,62.31,86.57,62.31z M82.29,51.61c1.37,0,2.63-0.29,3.76-0.88c1.13-0.59,2.12-1.37,2.97-2.35
				c0.84-0.97,1.49-2.12,1.94-3.42c0.45-1.31,0.67-2.68,0.67-4.11c0-1.49-0.25-2.85-0.75-4.08s-1.2-2.32-2.1-3.27
				c-0.9-0.95-1.95-1.68-3.17-2.19c-1.21-0.51-2.54-0.77-3.96-0.77c-0.85,0-1.7,0.13-2.57,0.38c-0.87,0.25-1.69,0.62-2.46,1.1
				c-0.77,0.48-1.46,1.05-2.1,1.71c-0.63,0.66-1.16,1.42-1.58,2.28v8.43c0.58,1.38,1.35,2.6,2.3,3.67s2.03,1.92,3.25,2.56
				C79.7,51.29,80.97,51.61,82.29,51.61z"/>
			<path class="st0" d="M126.89,62.31c-3.54,0-6.68-0.56-9.43-1.68c-2.75-1.12-5.08-2.65-7.01-4.58s-3.39-4.17-4.4-6.7
				c-1-2.53-1.51-5.18-1.51-7.95c0-3.94,0.88-7.53,2.65-10.78c1.77-3.24,4.32-5.86,7.64-7.86c3.33-2,7.34-3,12.04-3
				c4.7,0,8.7,0.99,12,2.96c3.3,1.98,5.82,4.56,7.57,7.76c1.74,3.2,2.62,6.67,2.62,10.41c0,0.73-0.04,1.44-0.12,2.15
				c-0.08,0.7-0.15,1.31-0.2,1.83h-30.74c0.16,1.8,0.67,3.31,1.54,4.54c0.87,1.23,1.99,2.17,3.37,2.81
				c1.37,0.64,2.83,0.96,4.36,0.96c1.9,0,3.68-0.45,5.35-1.35c1.66-0.9,2.81-2.11,3.45-3.64l10.77,3.01
				c-1.06,2.17-2.55,4.08-4.48,5.74s-4.2,2.97-6.81,3.92S130.06,62.31,126.89,62.31z M117.7,37.12h18.06
				c-0.21-1.66-0.71-3.11-1.5-4.35c-0.79-1.23-1.85-2.19-3.17-2.87c-1.32-0.68-2.77-1.02-4.36-1.02c-1.64,0-3.1,0.34-4.4,1.02
				c-1.29,0.68-2.34,1.64-3.13,2.87C118.41,34,117.91,35.45,117.7,37.12z"/>
			<path class="st0" d="M190.98,61.52H178.3v-22.9c0-2.69-0.51-4.64-1.54-5.86c-1.03-1.22-2.39-1.82-4.08-1.82
				c-1.16,0-2.35,0.31-3.57,0.92c-1.21,0.61-2.31,1.45-3.29,2.52c-0.98,1.07-1.73,2.29-2.26,3.66v23.49h-12.68V20.4h11.41v7.01
				c1.06-1.61,2.38-2.99,3.96-4.14c1.58-1.14,3.41-2.02,5.47-2.61c2.06-0.6,4.3-0.9,6.73-0.9c2.69,0,4.87,0.48,6.54,1.44
				c1.66,0.96,2.93,2.22,3.8,3.78c0.87,1.56,1.45,3.24,1.74,5.03c0.29,1.79,0.44,3.55,0.44,5.27V61.52z"/>
			<path class="st0" d="M244.69,21.83c-0.16-0.26-0.71-0.67-1.66-1.23s-2.14-1.15-3.57-1.78c-1.43-0.63-2.98-1.19-4.67-1.66
				c-1.69-0.48-3.38-0.71-5.07-0.71c-2.22,0-3.93,0.38-5.15,1.14c-1.22,0.76-1.82,1.93-1.82,3.5c0,1.26,0.46,2.26,1.39,2.99
				c0.92,0.74,2.26,1.38,4,1.93s3.88,1.19,6.42,1.93c3.59,0.94,6.71,2.09,9.35,3.42c2.64,1.34,4.66,3.06,6.06,5.15
				c1.4,2.1,2.1,4.88,2.1,8.34c0,3.15-0.58,5.81-1.74,7.99c-1.16,2.18-2.73,3.93-4.71,5.27s-4.24,2.31-6.77,2.91s-5.15,0.9-7.84,0.9
				c-2.75,0-5.56-0.28-8.44-0.83c-2.88-0.55-5.64-1.35-8.28-2.38c-2.64-1.03-5.07-2.28-7.29-3.76l5.7-11.33
				c0.21,0.27,0.9,0.75,2.06,1.47c1.16,0.71,2.6,1.45,4.32,2.22c1.71,0.77,3.63,1.44,5.74,2.02c2.11,0.58,4.25,0.87,6.42,0.87
				c2.32,0,4.05-0.36,5.19-1.09c1.13-0.72,1.7-1.73,1.7-3.03c0-1.42-0.59-2.52-1.78-3.31c-1.19-0.79-2.8-1.5-4.83-2.13
				c-2.03-0.63-4.37-1.34-7.01-2.13c-3.43-1.05-6.27-2.23-8.52-3.54c-2.25-1.31-3.91-2.91-4.99-4.81c-1.08-1.89-1.62-4.25-1.62-7.09
				c0-3.94,0.94-7.26,2.81-9.97c1.87-2.7,4.4-4.75,7.57-6.14c3.17-1.39,6.63-2.09,10.38-2.09c2.64,0,5.19,0.32,7.64,0.95
				c2.46,0.63,4.75,1.43,6.89,2.38s4.05,1.9,5.74,2.85L244.69,21.83z"/>
			<path class="st0" d="M274.48,62.31c-3.54,0-6.69-0.57-9.47-1.72c-2.77-1.15-5.11-2.71-7.01-4.68c-1.9-1.98-3.34-4.24-4.32-6.79
				s-1.47-5.23-1.47-8.04c0-2.86,0.49-5.57,1.47-8.12s2.42-4.81,4.32-6.79c1.9-1.98,4.24-3.54,7.01-4.68
				c2.77-1.15,5.93-1.72,9.47-1.72c3.54,0,6.68,0.57,9.43,1.72c2.74,1.15,5.07,2.71,6.97,4.68c1.9,1.98,3.35,4.24,4.36,6.79
				c1,2.55,1.51,5.26,1.51,8.12c0,2.81-0.5,5.49-1.51,8.04c-1,2.55-2.46,4.81-4.36,6.79c-1.9,1.98-4.23,3.54-6.97,4.68
				C281.16,61.73,278.01,62.31,274.48,62.31z M265.21,41.08c0,2.1,0.41,3.95,1.23,5.54c0.82,1.59,1.91,2.82,3.29,3.69
				c1.37,0.87,2.96,1.31,4.75,1.31c1.74,0,3.31-0.45,4.71-1.35c1.4-0.9,2.5-2.14,3.29-3.73c0.79-1.59,1.19-3.41,1.19-5.46
				c0-2.1-0.4-3.95-1.19-5.54c-0.79-1.59-1.89-2.82-3.29-3.69c-1.4-0.87-2.97-1.31-4.71-1.31c-1.8,0-3.38,0.44-4.75,1.31
				s-2.47,2.1-3.29,3.69C265.62,37.13,265.21,38.97,265.21,41.08z"/>
			<path class="st0" d="M298.64,46.72V20.4h12.68v23.49c0,2.5,0.5,4.41,1.5,5.74c1,1.33,2.43,1.99,4.28,1.99
				c1.16,0,2.27-0.19,3.33-0.58c1.06-0.38,2.09-1.01,3.09-1.88c1-0.87,1.9-2,2.69-3.38V20.4h12.68v27.07c0,1.25,0.2,2.12,0.59,2.61
				c0.4,0.49,1.1,0.79,2.1,0.9v10.54c-1.16,0.21-2.18,0.37-3.05,0.48c-0.87,0.11-1.65,0.16-2.34,0.16c-2.22,0-3.99-0.46-5.31-1.37
				c-1.32-0.92-2.14-2.21-2.46-3.88l-0.24-2.5c-1.9,2.72-4.27,4.71-7.09,5.99c-2.83,1.28-5.98,1.92-9.47,1.92
				c-4.23,0-7.45-1.33-9.67-3.99C299.75,55.65,298.64,51.79,298.64,46.72z"/>
			<path class="st0" d="M371.13,30.78c-3.06,0-5.84,0.49-8.32,1.47c-2.48,0.98-4.28,2.42-5.39,4.32v24.95h-12.67V20.4h11.65v7.92
				c1.43-2.8,3.27-4.99,5.54-6.58c2.27-1.58,4.65-2.4,7.13-2.46c0.58,0,1.02,0,1.31,0c0.29,0,0.54,0.03,0.75,0.08V30.78z"/>
			<path class="st0" d="M392.04,62.31c-3.54,0-6.68-0.57-9.43-1.72c-2.75-1.15-5.08-2.71-7.01-4.68c-1.93-1.98-3.39-4.24-4.4-6.79
				c-1-2.55-1.5-5.26-1.5-8.12c0-3.75,0.88-7.23,2.65-10.46c1.77-3.23,4.32-5.83,7.64-7.81s7.34-2.97,12.04-2.97
				c4.75,0,8.78,1.02,12.08,3.05c3.3,2.03,5.77,4.69,7.41,7.96l-12.36,3.72c-0.79-1.27-1.81-2.24-3.05-2.93
				c-1.24-0.69-2.63-1.03-4.16-1.03c-1.74,0-3.31,0.44-4.71,1.31c-1.4,0.87-2.51,2.08-3.33,3.61c-0.82,1.54-1.23,3.38-1.23,5.54
				c0,2.1,0.42,3.95,1.27,5.54c0.84,1.59,1.95,2.83,3.33,3.73c1.37,0.9,2.93,1.35,4.67,1.35c1.06,0,2.05-0.17,2.97-0.51
				c0.92-0.34,1.77-0.83,2.53-1.47s1.36-1.35,1.78-2.14l12.36,3.8c-1,2.11-2.44,4-4.32,5.66c-1.88,1.66-4.08,2.97-6.62,3.92
				S395.26,62.31,392.04,62.31z"/>
			<path class="st0" d="M432.84,62.31c-3.54,0-6.68-0.56-9.43-1.68c-2.75-1.12-5.08-2.65-7.01-4.58c-1.93-1.93-3.39-4.17-4.4-6.7
				c-1-2.53-1.5-5.18-1.5-7.95c0-3.94,0.88-7.53,2.65-10.78c1.77-3.24,4.32-5.86,7.64-7.86c3.33-2,7.34-3,12.04-3
				c4.7,0,8.7,0.99,12,2.96c3.3,1.98,5.82,4.56,7.57,7.76c1.74,3.2,2.61,6.67,2.61,10.41c0,0.73-0.04,1.44-0.12,2.15
				c-0.08,0.7-0.15,1.31-0.2,1.83h-30.74c0.16,1.8,0.67,3.31,1.54,4.54c0.87,1.23,1.99,2.17,3.37,2.81
				c1.37,0.64,2.83,0.96,4.36,0.96c1.9,0,3.68-0.45,5.35-1.35c1.66-0.9,2.81-2.11,3.45-3.64l10.77,3.01
				c-1.06,2.17-2.55,4.08-4.48,5.74c-1.93,1.66-4.2,2.97-6.81,3.92C438.9,61.83,436.01,62.31,432.84,62.31z M423.65,37.12h18.06
				c-0.21-1.66-0.71-3.11-1.5-4.35c-0.79-1.23-1.85-2.19-3.17-2.87c-1.32-0.68-2.77-1.02-4.36-1.02c-1.64,0-3.1,0.34-4.4,1.02
				c-1.29,0.68-2.34,1.64-3.13,2.87C424.36,34,423.86,35.45,423.65,37.12z"/>
		</g>
	</g>
	<g>
		<g>
			<path class="st1" d="M98.37,70.27l17.6,54.59l17.39-54.59h18.23l-27.19,74.82h-16.96l-27.4-74.82H98.37z"/>
			<path class="st1" d="M151.9,83.44V68.16h16.86v15.28H151.9z M151.9,145.09V89.76h16.86v55.32H151.9z"/>
			<path class="st1" d="M171.92,117.79c0-5.33,1.05-10.12,3.16-14.38c2.11-4.26,4.99-7.63,8.64-10.12
				c3.65-2.49,7.87-3.74,12.64-3.74c3.86,0,7.38,0.93,10.54,2.79c3.16,1.86,5.55,4.3,7.17,7.32V68.16h16.86v58.17
				c0,1.69,0.28,2.86,0.84,3.53c0.56,0.67,1.47,1.07,2.74,1.21v14.02c-2.95,0.56-5.34,0.84-7.17,0.84c-2.88,0-5.22-0.63-7.01-1.9
				c-1.79-1.26-2.9-3.02-3.32-5.27l-0.32-2.85c-1.97,3.44-4.64,6.01-8.01,7.69c-3.37,1.69-6.92,2.53-10.64,2.53
				c-3.79,0-7.29-0.71-10.49-2.13c-3.2-1.42-5.97-3.41-8.32-5.97c-2.36-2.56-4.16-5.57-5.43-9.03
				C172.55,125.55,171.92,121.81,171.92,117.79z M214.18,124.45v-11.25c-0.7-1.84-1.7-3.44-3-4.81c-1.3-1.36-2.78-2.46-4.43-3.27
				c-1.65-0.82-3.32-1.23-5.01-1.23c-1.83,0-3.5,0.38-5.01,1.13c-1.51,0.75-2.83,1.79-3.95,3.12c-1.12,1.33-1.99,2.85-2.58,4.55
				c-0.6,1.71-0.9,3.51-0.9,5.42c0,1.98,0.33,3.8,1,5.47c0.67,1.67,1.6,3.14,2.79,4.4c1.19,1.26,2.6,2.23,4.22,2.92
				c1.62,0.68,3.37,1.02,5.27,1.02c1.19,0,2.35-0.19,3.48-0.56c1.12-0.38,2.2-0.87,3.21-1.48c1.02-0.61,1.95-1.4,2.79-2.35
				C212.91,126.56,213.61,125.54,214.18,124.45z"/>
			<path class="st1" d="M265.18,146.14c-4.71,0-8.89-0.75-12.54-2.24c-3.65-1.49-6.76-3.53-9.33-6.1s-4.51-5.54-5.85-8.91
				c-1.34-3.37-2-6.89-2-10.58c0-5.24,1.17-10.02,3.53-14.33c2.35-4.31,5.74-7.79,10.17-10.45c4.43-2.66,9.76-3.99,16.02-3.99
				c6.25,0,11.57,1.31,15.96,3.94c4.39,2.63,7.75,6.07,10.06,10.32c2.32,4.25,3.48,8.87,3.48,13.85c0,0.97-0.05,1.92-0.16,2.85
				s-0.19,1.75-0.26,2.44h-40.89c0.21,2.39,0.9,4.41,2.05,6.04c1.16,1.64,2.65,2.89,4.48,3.74c1.83,0.85,3.76,1.28,5.8,1.28
				c2.53,0,4.9-0.6,7.11-1.79c2.21-1.19,3.74-2.81,4.58-4.85l14.33,4c-1.41,2.88-3.39,5.43-5.95,7.64
				c-2.57,2.21-5.59,3.95-9.06,5.22C273.24,145.51,269.39,146.14,265.18,146.14z M252.95,112.63h24.03c-0.28-2.21-0.95-4.14-2-5.78
				c-1.05-1.64-2.46-2.92-4.22-3.82s-3.69-1.36-5.79-1.36c-2.18,0-4.13,0.45-5.85,1.36c-1.72,0.91-3.11,2.18-4.16,3.82
				C253.9,108.49,253.23,110.42,252.95,112.63z"/>
			<path class="st1" d="M323.45,146.14c-4.71,0-8.9-0.76-12.59-2.28c-3.69-1.52-6.8-3.6-9.33-6.23c-2.53-2.63-4.44-5.64-5.74-9.03
				c-1.3-3.39-1.95-6.96-1.95-10.69c0-3.81,0.65-7.41,1.95-10.8c1.3-3.39,3.21-6.4,5.74-9.03c2.53-2.63,5.64-4.71,9.33-6.23
				c3.69-1.52,7.89-2.29,12.59-2.29c4.71,0,8.89,0.76,12.54,2.29c3.65,1.52,6.74,3.6,9.27,6.23c2.53,2.63,4.46,5.64,5.8,9.03
				c1.33,3.39,2,6.99,2,10.8c0,3.74-0.67,7.3-2,10.69c-1.34,3.39-3.27,6.4-5.8,9.03c-2.53,2.63-5.62,4.71-9.27,6.23
				C332.34,145.38,328.16,146.14,323.45,146.14z M311.12,117.9c0,2.8,0.54,5.25,1.63,7.37c1.09,2.11,2.55,3.75,4.37,4.91
				c1.83,1.16,3.93,1.74,6.32,1.74c2.32,0,4.41-0.6,6.27-1.79c1.86-1.19,3.32-2.85,4.37-4.96s1.58-4.53,1.58-7.26
				c0-2.8-0.53-5.25-1.58-7.37s-2.51-3.75-4.37-4.91c-1.86-1.16-3.95-1.74-6.27-1.74c-2.39,0-4.5,0.58-6.32,1.74
				c-1.83,1.16-3.28,2.8-4.37,4.91C311.66,112.65,311.12,115.1,311.12,117.9z"/>
		</g>
	</g>
	<g>
		<g>
			<path class="st1" d="M71.14,223.36v-44.58l-16.12,32.46h-9.48l-16.12-32.46v44.58H12.13v-74.82h18.76l19.39,39.1l19.5-39.1h18.65
				v74.82H71.14z"/>
			<path class="st1" d="M121.62,224.41c-4.71,0-8.89-0.75-12.54-2.24c-3.65-1.49-6.76-3.53-9.33-6.1c-2.57-2.57-4.51-5.54-5.85-8.91
				c-1.33-3.37-2-6.89-2-10.58c0-5.24,1.18-10.02,3.53-14.33c2.35-4.31,5.74-7.79,10.17-10.45c4.43-2.66,9.76-3.98,16.02-3.98
				c6.25,0,11.57,1.31,15.96,3.94c4.39,2.63,7.75,6.07,10.06,10.32c2.32,4.25,3.48,8.87,3.48,13.85c0,0.97-0.05,1.92-0.16,2.85
				s-0.19,1.75-0.26,2.44h-40.89c0.21,2.39,0.9,4.41,2.05,6.04c1.16,1.64,2.65,2.89,4.48,3.74c1.83,0.85,3.76,1.28,5.8,1.28
				c2.53,0,4.9-0.6,7.11-1.79c2.21-1.19,3.74-2.81,4.58-4.85l14.33,4c-1.41,2.88-3.39,5.43-5.95,7.64
				c-2.57,2.21-5.58,3.95-9.06,5.22C129.68,223.78,125.83,224.41,121.62,224.41z M109.39,190.9h24.03c-0.28-2.21-0.95-4.14-2-5.78
				c-1.05-1.64-2.46-2.91-4.21-3.82c-1.76-0.91-3.69-1.36-5.8-1.36c-2.18,0-4.13,0.45-5.85,1.36c-1.72,0.91-3.11,2.18-4.16,3.82
				C110.34,186.76,109.67,188.69,109.39,190.9z"/>
			<path class="st1" d="M180,224.41c-4.71,0-8.89-0.75-12.54-2.24c-3.65-1.49-6.76-3.53-9.33-6.1c-2.57-2.57-4.51-5.54-5.85-8.91
				c-1.33-3.37-2-6.89-2-10.58c0-5.24,1.18-10.02,3.53-14.33c2.35-4.31,5.74-7.79,10.17-10.45c4.43-2.66,9.76-3.98,16.02-3.98
				c6.25,0,11.57,1.31,15.96,3.94c4.39,2.63,7.75,6.07,10.06,10.32c2.32,4.25,3.48,8.87,3.48,13.85c0,0.97-0.05,1.92-0.16,2.85
				s-0.19,1.75-0.26,2.44h-40.89c0.21,2.39,0.9,4.41,2.05,6.04c1.16,1.64,2.65,2.89,4.48,3.74c1.83,0.85,3.76,1.28,5.8,1.28
				c2.53,0,4.9-0.6,7.11-1.79c2.21-1.19,3.74-2.81,4.58-4.85l14.33,4c-1.41,2.88-3.39,5.43-5.95,7.64
				c-2.57,2.21-5.58,3.95-9.06,5.22C188.06,223.78,184.21,224.41,180,224.41z M167.77,190.9h24.03c-0.28-2.21-0.95-4.14-2-5.78
				c-1.05-1.64-2.46-2.91-4.21-3.82c-1.76-0.91-3.69-1.36-5.8-1.36c-2.18,0-4.13,0.45-5.85,1.36c-1.72,0.91-3.11,2.18-4.16,3.82
				C168.72,186.76,168.05,188.69,167.77,190.9z"/>
			<path class="st1" d="M247.12,220.41c-1.55,0.63-3.25,1.26-5.11,1.9c-1.86,0.63-3.81,1.14-5.85,1.53
				c-2.04,0.39-4.04,0.58-6.01,0.58c-2.81,0-5.39-0.47-7.75-1.4c-2.35-0.94-4.21-2.47-5.58-4.62c-1.37-2.15-2.05-4.98-2.05-8.52
				v-28.46h-7.06v-12.75h7.06v-17.6h16.86v17.6h11.28v12.75h-11.28v22.56c0,1.79,0.46,3.07,1.37,3.86c0.91,0.79,2.07,1.18,3.48,1.18
				c1.19,0,2.48-0.21,3.85-0.63c1.37-0.42,2.54-0.88,3.53-1.37L247.12,220.41z"/>
			<path class="st1" d="M248.39,161.71v-15.28h16.86v15.28H248.39z M248.39,223.36v-55.32h16.86v55.32H248.39z"/>
			<path class="st1" d="M324.89,223.36h-16.86V192.9c0-3.58-0.68-6.18-2.05-7.79c-1.37-1.62-3.18-2.43-5.43-2.43
				c-1.55,0-3.13,0.41-4.74,1.22c-1.62,0.81-3.07,1.93-4.37,3.35c-1.3,1.42-2.3,3.04-3,4.87v31.25h-16.86v-54.69h15.17V178
				c1.4-2.14,3.16-3.98,5.27-5.5c2.11-1.52,4.53-2.68,7.27-3.48c2.74-0.8,5.72-1.19,8.96-1.19c3.58,0,6.48,0.64,8.69,1.92
				c2.21,1.28,3.9,2.96,5.06,5.03c1.16,2.08,1.93,4.31,2.32,6.69c0.38,2.39,0.58,4.72,0.58,7.01V223.36z"/>
			<path class="st1" d="M352.29,224.41c-3.65,0-6.99-0.72-10.01-2.16c-3.02-1.44-5.6-3.44-7.75-6.01c-2.14-2.56-3.81-5.53-5.01-8.9
				c-1.2-3.37-1.79-6.99-1.79-10.85c0-4.07,0.63-7.83,1.9-11.28c1.26-3.44,3.04-6.48,5.32-9.12c2.28-2.63,4.99-4.67,8.11-6.11
				c3.12-1.44,6.59-2.16,10.38-2.16c4.14,0,7.8,0.86,10.96,2.58c3.16,1.72,5.69,4.16,7.59,7.32v-9.06h14.65v51.12
				c0,5.58-1.35,10.38-4.06,14.43c-2.71,4.04-6.46,7.16-11.28,9.36c-4.81,2.19-10.38,3.29-16.7,3.29c-5.9,0-10.98-0.97-15.23-2.9
				c-4.25-1.93-7.96-4.65-11.12-8.17l9.06-9.17c2.04,2.32,4.57,4.16,7.59,5.53c3.02,1.37,6.25,2.05,9.69,2.05
				c2.74,0,5.27-0.45,7.59-1.36s4.16-2.36,5.53-4.37s2.05-4.7,2.05-8.08v-5.37c-1.69,3.02-4.13,5.34-7.32,6.95
				C359.26,223.6,355.87,224.41,352.29,224.41z M358.08,211.03c1.33,0,2.58-0.19,3.74-0.58c1.16-0.39,2.23-0.91,3.21-1.58
				c0.98-0.67,1.9-1.48,2.74-2.42c0.84-0.95,1.51-1.98,2-3.11v-11.59c-0.7-1.97-1.72-3.67-3.06-5.11c-1.34-1.44-2.81-2.55-4.43-3.32
				c-1.62-0.77-3.3-1.16-5.06-1.16c-1.76,0-3.41,0.39-4.95,1.16c-1.55,0.77-2.86,1.88-3.95,3.32c-1.09,1.44-1.93,3.04-2.53,4.79
				c-0.6,1.76-0.9,3.58-0.9,5.48c0,2.04,0.33,3.9,1,5.58c0.67,1.69,1.6,3.18,2.79,4.48c1.19,1.3,2.6,2.3,4.22,3
				C354.54,210.68,356.26,211.03,358.08,211.03z"/>
		</g>
	</g>
	<g>
		<g>
			<path class="st1" d="M83.36,255.58c-0.21-0.35-0.95-0.9-2.21-1.63c-1.26-0.74-2.85-1.53-4.74-2.37c-1.9-0.84-3.97-1.58-6.22-2.21
				c-2.25-0.63-4.5-0.95-6.74-0.95c-2.95,0-5.23,0.51-6.85,1.52c-1.62,1.01-2.42,2.56-2.42,4.66c0,1.67,0.61,3,1.84,3.98
				c1.23,0.98,3,1.83,5.32,2.57c2.32,0.73,5.16,1.59,8.54,2.56c4.78,1.26,8.92,2.77,12.44,4.55c3.51,1.78,6.2,4.07,8.06,6.85
				c1.86,2.79,2.79,6.49,2.79,11.09c0,4.19-0.77,7.73-2.32,10.62c-1.55,2.89-3.64,5.23-6.27,7.01c-2.63,1.78-5.64,3.07-9.01,3.87
				s-6.85,1.2-10.43,1.2c-3.65,0-7.4-0.37-11.22-1.11c-3.83-0.74-7.5-1.79-11.01-3.16c-3.51-1.37-6.74-3.04-9.7-5.01l7.59-15.07
				c0.28,0.35,1.19,1,2.74,1.95c1.54,0.95,3.46,1.93,5.74,2.95c2.28,1.02,4.83,1.92,7.64,2.69c2.81,0.77,5.65,1.16,8.54,1.16
				c3.09,0,5.39-0.48,6.9-1.44c1.51-0.96,2.27-2.3,2.27-4.02c0-1.89-0.79-3.35-2.37-4.4c-1.58-1.05-3.72-1.99-6.43-2.83
				c-2.71-0.84-5.81-1.78-9.33-2.83c-4.57-1.4-8.34-2.97-11.33-4.72c-2.99-1.75-5.2-3.88-6.64-6.39c-1.44-2.52-2.16-5.66-2.16-9.43
				c0-5.24,1.25-9.66,3.74-13.26c2.49-3.6,5.85-6.32,10.06-8.17c4.21-1.85,8.82-2.78,13.8-2.78c3.51,0,6.9,0.42,10.17,1.26
				c3.27,0.84,6.32,1.9,9.17,3.16c2.84,1.26,5.39,2.53,7.64,3.79L83.36,255.58z"/>
			<path class="st1" d="M123.08,309.43c-4.71,0-8.89-0.76-12.54-2.28c-3.65-1.52-6.76-3.6-9.33-6.23c-2.57-2.63-4.51-5.64-5.85-9.03
				c-1.33-3.39-2-6.99-2-10.8c0-4.98,1.18-9.62,3.53-13.91c2.35-4.29,5.74-7.75,10.17-10.38c4.43-2.63,9.76-3.95,16.02-3.95
				c6.32,0,11.68,1.35,16.07,4.06c4.39,2.71,7.67,6.24,9.85,10.59l-16.44,4.95c-1.05-1.69-2.41-2.99-4.06-3.9
				c-1.65-0.91-3.5-1.37-5.53-1.37c-2.32,0-4.41,0.58-6.27,1.74s-3.34,2.76-4.43,4.81c-1.09,2.05-1.63,4.5-1.63,7.37
				c0,2.8,0.56,5.25,1.69,7.37c1.12,2.11,2.6,3.77,4.43,4.96c1.83,1.19,3.9,1.79,6.22,1.79c1.4,0,2.72-0.23,3.95-0.69
				c1.23-0.46,2.35-1.11,3.37-1.95c1.02-0.84,1.81-1.79,2.37-2.85l16.44,5.06c-1.33,2.81-3.25,5.32-5.74,7.53
				c-2.49,2.21-5.43,3.95-8.8,5.22C131.2,308.79,127.37,309.43,123.08,309.43z"/>
			<path class="st1" d="M204.75,308.37h-16.86v-30.46c0-3.51-0.72-6.09-2.16-7.74c-1.44-1.65-3.36-2.48-5.74-2.48
				c-1.26,0-2.69,0.39-4.27,1.17c-1.58,0.78-3.04,1.88-4.37,3.29c-1.34,1.42-2.35,3.08-3.06,4.97v31.25h-16.86v-76.93h16.86v31.56
				c2.04-3.25,4.72-5.76,8.06-7.52c3.34-1.77,7.01-2.65,11.01-2.65c3.79,0,6.83,0.62,9.12,1.87c2.28,1.25,4.02,2.89,5.22,4.93
				c1.19,2.04,2,4.27,2.42,6.69c0.42,2.42,0.63,4.81,0.63,7.16V308.37z"/>
			<path class="st1" d="M237.1,309.43c-4.71,0-8.89-0.75-12.54-2.24c-3.65-1.49-6.76-3.53-9.33-6.1c-2.57-2.57-4.51-5.54-5.85-8.91
				c-1.33-3.37-2-6.89-2-10.58c0-5.24,1.18-10.02,3.53-14.33c2.35-4.31,5.74-7.79,10.17-10.45c4.43-2.66,9.76-3.98,16.02-3.98
				c6.25,0,11.57,1.31,15.96,3.94c4.39,2.63,7.75,6.07,10.06,10.32c2.32,4.25,3.48,8.87,3.48,13.85c0,0.97-0.05,1.92-0.16,2.85
				s-0.19,1.75-0.26,2.44H225.3c0.21,2.39,0.9,4.41,2.05,6.04c1.16,1.64,2.65,2.89,4.48,3.74c1.83,0.85,3.76,1.28,5.8,1.28
				c2.53,0,4.9-0.6,7.11-1.79c2.21-1.19,3.74-2.81,4.58-4.85l14.33,4c-1.41,2.88-3.39,5.43-5.95,7.64
				c-2.57,2.21-5.58,3.95-9.06,5.22C245.16,308.79,241.32,309.43,237.1,309.43z M224.88,275.92h24.03c-0.28-2.21-0.95-4.14-2-5.78
				c-1.05-1.64-2.46-2.91-4.21-3.82c-1.76-0.91-3.69-1.36-5.8-1.36c-2.18,0-4.13,0.45-5.85,1.36c-1.72,0.91-3.11,2.18-4.16,3.82
				C225.83,271.78,225.16,273.71,224.88,275.92z"/>
			<path class="st1" d="M265.87,281.08c0-5.33,1.05-10.12,3.16-14.38c2.11-4.26,4.99-7.63,8.64-10.12
				c3.65-2.49,7.87-3.74,12.65-3.74c3.86,0,7.38,0.93,10.54,2.79c3.16,1.86,5.55,4.3,7.17,7.32v-31.51h16.86v58.17
				c0,1.69,0.28,2.86,0.84,3.53c0.56,0.67,1.47,1.07,2.74,1.21v14.02c-2.95,0.56-5.34,0.84-7.17,0.84c-2.88,0-5.22-0.63-7.01-1.9
				c-1.79-1.26-2.9-3.02-3.32-5.27l-0.32-2.85c-1.97,3.44-4.64,6.01-8.01,7.69s-6.92,2.53-10.64,2.53c-3.79,0-7.29-0.71-10.49-2.13
				c-3.2-1.42-5.97-3.41-8.33-5.97c-2.35-2.56-4.16-5.57-5.43-9.03S265.87,285.1,265.87,281.08z M308.13,287.73v-11.25
				c-0.7-1.84-1.7-3.44-3-4.81c-1.3-1.36-2.78-2.46-4.43-3.27c-1.65-0.82-3.32-1.23-5-1.23c-1.83,0-3.5,0.38-5.01,1.13
				c-1.51,0.75-2.83,1.79-3.95,3.12c-1.12,1.33-1.99,2.85-2.58,4.55c-0.6,1.71-0.9,3.51-0.9,5.42c0,1.98,0.33,3.8,1,5.47
				c0.67,1.67,1.6,3.14,2.79,4.4c1.19,1.26,2.6,2.23,4.22,2.92c1.62,0.68,3.37,1.02,5.27,1.02c1.19,0,2.35-0.19,3.48-0.56
				c1.12-0.38,2.19-0.87,3.21-1.48c1.02-0.61,1.95-1.4,2.79-2.35C306.86,289.85,307.56,288.83,308.13,287.73z"/>
			<path class="st1" d="M332.15,288.69v-35.01h16.86v31.24c0,3.32,0.67,5.86,2,7.63c1.33,1.77,3.23,2.65,5.69,2.65
				c1.54,0,3.02-0.26,4.43-0.77c1.4-0.51,2.77-1.34,4.11-2.5c1.33-1.16,2.53-2.66,3.58-4.49v-33.76h16.86v36.01
				c0,1.66,0.26,2.82,0.79,3.48s1.46,1.05,2.79,1.19v14.02c-1.55,0.28-2.9,0.49-4.06,0.63c-1.16,0.14-2.2,0.21-3.11,0.21
				c-2.95,0-5.31-0.61-7.06-1.83c-1.76-1.22-2.85-2.94-3.27-5.16l-0.32-3.33c-2.53,3.61-5.67,6.27-9.43,7.97
				c-3.76,1.7-7.96,2.55-12.59,2.55c-5.62,0-9.91-1.77-12.86-5.31C333.63,300.57,332.15,295.43,332.15,288.69z"/>
			<path class="st1" d="M393.27,231.45h16.86v57.32c0,2.32,0.42,3.98,1.26,4.96c0.84,0.98,2.04,1.48,3.58,1.48
				c1.05,0,2.12-0.16,3.21-0.47c1.09-0.32,2.06-0.69,2.9-1.11l2.21,12.65c-2.11,0.98-4.53,1.76-7.27,2.32
				c-2.74,0.56-5.3,0.84-7.69,0.84c-4.78,0-8.48-1.28-11.12-3.85c-2.63-2.57-3.95-6.21-3.95-10.92V231.45z"/>
			<path class="st1" d="M423.52,246.73v-15.28h16.86v15.28H423.52z M423.52,308.37v-55.32h16.86v55.32H423.52z"/>
			<path class="st1" d="M500.02,308.37h-16.86v-30.46c0-3.58-0.68-6.18-2.05-7.79c-1.37-1.62-3.18-2.43-5.43-2.43
				c-1.55,0-3.13,0.41-4.74,1.22c-1.62,0.81-3.07,1.93-4.37,3.35c-1.3,1.42-2.3,3.04-3,4.87v31.25H446.7v-54.69h15.17v9.33
				c1.4-2.14,3.16-3.98,5.27-5.5c2.11-1.52,4.53-2.68,7.27-3.48c2.74-0.8,5.72-1.19,8.96-1.19c3.58,0,6.48,0.64,8.69,1.92
				c2.21,1.28,3.9,2.96,5.06,5.03c1.16,2.08,1.93,4.31,2.32,6.69c0.38,2.39,0.58,4.72,0.58,7.01V308.37z"/>
			<path class="st1" d="M527.42,309.43c-3.65,0-6.99-0.72-10.01-2.16c-3.02-1.44-5.6-3.44-7.75-6.01c-2.14-2.56-3.81-5.53-5.01-8.9
				c-1.2-3.37-1.79-6.99-1.79-10.85c0-4.07,0.63-7.83,1.9-11.28c1.26-3.44,3.04-6.48,5.32-9.12c2.28-2.63,4.99-4.67,8.11-6.11
				c3.12-1.44,6.59-2.16,10.38-2.16c4.14,0,7.8,0.86,10.96,2.58c3.16,1.72,5.69,4.16,7.59,7.32v-9.06h14.65v51.12
				c0,5.58-1.35,10.38-4.06,14.43c-2.71,4.04-6.46,7.16-11.28,9.36c-4.81,2.19-10.38,3.29-16.7,3.29c-5.9,0-10.98-0.97-15.23-2.9
				c-4.25-1.93-7.96-4.65-11.12-8.17l9.06-9.17c2.04,2.32,4.57,4.16,7.59,5.53c3.02,1.37,6.25,2.05,9.69,2.05
				c2.74,0,5.27-0.45,7.59-1.36s4.16-2.36,5.53-4.37s2.05-4.7,2.05-8.08v-5.37c-1.69,3.02-4.13,5.34-7.32,6.95
				C534.39,308.62,531,309.43,527.42,309.43z M533.21,296.04c1.33,0,2.58-0.19,3.74-0.58c1.16-0.39,2.23-0.91,3.21-1.58
				c0.98-0.67,1.9-1.48,2.74-2.42c0.84-0.95,1.51-1.98,2-3.11v-11.59c-0.7-1.97-1.72-3.67-3.06-5.11c-1.34-1.44-2.81-2.55-4.43-3.32
				c-1.62-0.77-3.3-1.16-5.06-1.16c-1.76,0-3.41,0.39-4.95,1.16c-1.55,0.77-2.86,1.88-3.95,3.32c-1.09,1.44-1.93,3.04-2.53,4.79
				c-0.6,1.76-0.9,3.58-0.9,5.48c0,2.04,0.33,3.9,1,5.58c0.67,1.69,1.6,3.18,2.79,4.48c1.19,1.3,2.6,2.3,4.22,3
				C529.67,295.69,531.39,296.04,533.21,296.04z"/>
		</g>
	</g>
	<g>
		<path class="st1" d="M271.49,361.28v-42.6h18.18c2.04,0,3.91,0.41,5.61,1.23c1.7,0.82,3.17,1.92,4.41,3.3
			c1.24,1.38,2.2,2.93,2.88,4.65c0.68,1.72,1.02,3.48,1.02,5.28c0,2.44-0.57,4.76-1.71,6.96c-1.14,2.2-2.72,3.99-4.74,5.37
			c-2.02,1.38-4.41,2.07-7.17,2.07h-8.64v13.74H271.49z M281.33,338.96h8.04c0.76,0,1.46-0.22,2.1-0.66s1.16-1.1,1.56-1.98
			c0.4-0.88,0.6-1.96,0.6-3.24c0-1.32-0.23-2.41-0.69-3.27c-0.46-0.86-1.04-1.49-1.74-1.89c-0.7-0.4-1.43-0.6-2.19-0.6h-7.68V338.96
			z"/>
		<path class="st1" d="M304.97,317.48h9.6v32.63c0,1.32,0.24,2.26,0.72,2.82s1.16,0.84,2.04,0.84c0.6,0,1.21-0.09,1.83-0.27
			c0.62-0.18,1.17-0.39,1.65-0.63l1.26,7.2c-1.2,0.56-2.58,1-4.14,1.32c-1.56,0.32-3.02,0.48-4.38,0.48c-2.72,0-4.83-0.73-6.33-2.19
			c-1.5-1.46-2.25-3.53-2.25-6.22V317.48z"/>
		<path class="st1" d="M320.21,352c0-2.05,0.58-3.84,1.74-5.38c1.16-1.54,2.76-2.75,4.8-3.64c2.04-0.89,4.38-1.33,7.02-1.33
			c1.28,0,2.54,0.11,3.78,0.33c1.24,0.22,2.32,0.53,3.24,0.93v-1.38c0-1.66-0.52-2.94-1.56-3.83s-2.62-1.33-4.74-1.33
			c-1.76,0-3.41,0.3-4.95,0.9c-1.54,0.6-3.17,1.46-4.89,2.58l-2.88-6.12c2.08-1.36,4.25-2.38,6.51-3.06
			c2.26-0.68,4.65-1.02,7.17-1.02c4.72,0,8.39,1.11,11.01,3.32c2.62,2.21,3.93,5.42,3.93,9.61v8.06c0,0.94,0.15,1.6,0.45,1.97
			s0.83,0.6,1.59,0.68v7.98c-0.8,0.16-1.55,0.28-2.25,0.36c-0.7,0.08-1.31,0.12-1.83,0.12c-1.8,0-3.17-0.36-4.11-1.08
			s-1.53-1.7-1.77-2.94l-0.18-1.38c-1.4,1.8-3.07,3.17-5.01,4.11s-3.97,1.41-6.09,1.41c-2.08,0-3.95-0.43-5.61-1.3
			c-1.66-0.87-2.97-2.05-3.93-3.55C320.69,355.53,320.21,353.86,320.21,352z M339.29,353.13c0.44-0.35,0.8-0.73,1.08-1.16
			c0.28-0.42,0.42-0.83,0.42-1.21v-2.72c-0.8-0.31-1.69-0.55-2.67-0.72c-0.98-0.17-1.89-0.26-2.73-0.26c-1.76,0-3.22,0.38-4.38,1.13
			c-1.16,0.75-1.74,1.74-1.74,2.98c0,0.69,0.2,1.33,0.6,1.91c0.4,0.58,0.95,1.04,1.65,1.39c0.7,0.35,1.53,0.52,2.49,0.52
			s1.92-0.17,2.88-0.52S338.65,353.67,339.29,353.13z"/>
		<path class="st1" d="M374.45,359.6c-0.88,0.36-1.85,0.72-2.91,1.08c-1.06,0.36-2.17,0.65-3.33,0.87c-1.16,0.22-2.3,0.33-3.42,0.33
			c-1.6,0-3.07-0.27-4.41-0.8c-1.34-0.53-2.4-1.41-3.18-2.63c-0.78-1.22-1.17-2.84-1.17-4.85v-16.2h-4.02v-7.26h4.02v-10.02h9.6
			v10.02h6.42v7.26h-6.42v12.85c0,1.02,0.26,1.75,0.78,2.2c0.52,0.45,1.18,0.67,1.98,0.67c0.68,0,1.41-0.12,2.19-0.36
			s1.45-0.5,2.01-0.78L374.45,359.6z"/>
		<path class="st1" d="M377.03,361.28v-21.66h-4.02v-7.26h4.02v-2.58c0-2.64,0.45-4.92,1.35-6.84c0.9-1.92,2.18-3.41,3.84-4.47
			c1.66-1.06,3.59-1.59,5.79-1.59c1.36,0,2.72,0.16,4.08,0.48c1.36,0.32,2.74,0.78,4.14,1.38l-1.74,7.2c-0.6-0.28-1.3-0.51-2.1-0.69
			c-0.8-0.18-1.54-0.27-2.22-0.27c-1.16,0-2.04,0.37-2.64,1.11c-0.6,0.74-0.9,1.85-0.9,3.33v2.94h7.32v7.26h-7.32v21.66H377.03z"/>
		<path class="st1" d="M409.85,361.88c-2.68,0-5.07-0.43-7.17-1.3c-2.1-0.87-3.87-2.05-5.31-3.55c-1.44-1.5-2.53-3.21-3.27-5.14
			s-1.11-3.96-1.11-6.09c0-2.17,0.37-4.22,1.11-6.15s1.83-3.64,3.27-5.14c1.44-1.5,3.21-2.68,5.31-3.55c2.1-0.87,4.49-1.3,7.17-1.3
			s5.06,0.43,7.14,1.3c2.08,0.87,3.84,2.05,5.28,3.55c1.44,1.5,2.54,3.21,3.3,5.14s1.14,3.98,1.14,6.15c0,2.13-0.38,4.16-1.14,6.09
			s-1.86,3.65-3.3,5.14c-1.44,1.5-3.2,2.68-5.28,3.55C414.91,361.44,412.53,361.88,409.85,361.88z M402.83,345.8
			c0,1.59,0.31,2.99,0.93,4.19c0.62,1.2,1.45,2.14,2.49,2.79c1.04,0.66,2.24,0.99,3.6,0.99c1.32,0,2.51-0.34,3.57-1.02
			c1.06-0.68,1.89-1.62,2.49-2.83c0.6-1.2,0.9-2.58,0.9-4.13c0-1.59-0.3-2.99-0.9-4.19c-0.6-1.2-1.43-2.14-2.49-2.8
			c-1.06-0.66-2.25-0.99-3.57-0.99c-1.36,0-2.56,0.33-3.6,0.99c-1.04,0.66-1.87,1.59-2.49,2.8
			C403.14,342.81,402.83,344.21,402.83,345.8z"/>
		<path class="st1" d="M448.43,338c-2.32,0-4.42,0.37-6.3,1.11c-1.88,0.74-3.24,1.83-4.08,3.27v18.9h-9.6v-31.14h8.82v6
			c1.08-2.12,2.48-3.78,4.2-4.98c1.72-1.2,3.52-1.82,5.4-1.86c0.44,0,0.77,0,0.99,0c0.22,0,0.41,0.02,0.57,0.06V338z"/>
		<path class="st1" d="M499.25,361.28h-9.6v-17.34c0-2-0.38-3.47-1.14-4.41c-0.76-0.94-1.74-1.41-2.94-1.41
			c-1.28,0-2.54,0.51-3.78,1.53c-1.24,1.02-2.12,2.33-2.64,3.94v17.69h-9.6v-17.34c0-2.04-0.38-3.52-1.14-4.44
			c-0.76-0.92-1.74-1.38-2.94-1.38c-1.24,0-2.48,0.5-3.72,1.5c-1.24,1-2.14,2.29-2.7,3.87v17.79h-9.6v-31.14h8.64v5.31
			c1.16-1.85,2.73-3.28,4.71-4.28c1.98-1,4.29-1.51,6.93-1.51c2.6,0,4.6,0.6,6,1.8c1.4,1.2,2.3,2.61,2.7,4.23
			c1.2-1.93,2.79-3.42,4.77-4.46c1.98-1.04,4.21-1.57,6.69-1.57c2,0,3.62,0.37,4.86,1.09s2.18,1.68,2.82,2.87
			c0.64,1.18,1.08,2.45,1.32,3.81s0.36,2.69,0.36,3.99V361.28z"/>
	</g>
	<g>
		<g>
			<path class="st0" d="M433.33,220.36l-22.23-23.7c-1.91-2.02-3.43-3.75-4.57-5.19c-1.14-1.44-1.94-2.77-2.42-4.01
				c-0.48-1.23-0.72-2.57-0.72-4.01c0-2.42,0.59-4.52,1.77-6.3c1.18-1.77,2.81-3.14,4.88-4.11c2.07-0.97,4.4-1.45,6.99-1.45
				c2.32,0,4.5,0.39,6.55,1.18c2.05,0.79,3.73,1.99,5.05,3.6c1.32,1.62,1.98,3.68,1.98,6.2c0,2.16-0.51,4.12-1.53,5.89
				c-1.02,1.77-2.41,3.4-4.16,4.88c-1.75,1.48-3.72,2.87-5.9,4.18c-1.59,0.94-3.01,1.84-4.26,2.71c-1.25,0.87-2.23,1.77-2.93,2.71
				c-0.71,0.94-1.06,1.96-1.06,3.08c0,0.94,0.28,1.88,0.85,2.84c0.57,0.96,1.41,1.75,2.52,2.37c1.11,0.62,2.44,0.94,3.99,0.94
				c1.73,0,3.45-0.44,5.18-1.33c1.73-0.89,3.31-2.17,4.74-3.85c1.43-1.68,2.57-3.73,3.41-6.14c0.84-2.41,1.26-5.14,1.26-8.18h8.8
				c0,4.59-0.71,8.64-2.11,12.14c-1.41,3.5-3.29,6.43-5.63,8.8c-2.34,2.36-4.97,4.14-7.88,5.32c-2.91,1.18-5.89,1.77-8.93,1.77
				c-3.5,0-6.5-0.71-9-2.12c-2.5-1.41-4.4-3.23-5.69-5.46c-1.3-2.22-1.94-4.59-1.94-7.11c0-2.56,0.59-4.79,1.77-6.7
				c1.18-1.91,2.67-3.58,4.47-5.02c1.8-1.44,3.58-2.69,5.35-3.77c1.95-1.25,3.57-2.26,4.84-3.04c1.27-0.78,2.23-1.52,2.86-2.24
				c0.64-0.71,0.96-1.53,0.96-2.47c0-0.98-0.33-1.76-0.99-2.34c-0.66-0.58-1.51-0.87-2.56-0.87c-0.73,0-1.39,0.17-1.98,0.5
				c-0.59,0.33-1.03,0.76-1.33,1.27c-0.3,0.51-0.44,1.1-0.44,1.77c0,0.62,0.19,1.21,0.58,1.77c0.39,0.56,1.05,1.28,1.98,2.17
				c0.93,0.89,2.22,2.2,3.85,3.94l27.96,29.36H433.33z"/>
		</g>
	</g>
</g>
</svg>
