<?xml version="1.0" encoding="utf-8"?>
<!-- Generator: Adobe Illustrator 26.2.1, SVG Export Plug-In . SVG Version: 6.00 Build 0)  -->
<svg version="1.1" id="Layer_1" xmlns="http://www.w3.org/2000/svg" xmlns:xlink="http://www.w3.org/1999/xlink" x="0px" y="0px"
	 viewBox="0 0 608.69 290.95" style="enable-background:new 0 0 608.69 290.95;" xml:space="preserve">
<style type="text/css">
	.st0{fill:#4285F4;}
	.st1{fill:#001588;}
</style>
<g>
	<g>
		<g>
			<path class="st0" d="M35.92,59.61c-4.1,0-7.81-0.78-11.11-2.35c-3.31-1.56-6.15-3.67-8.54-6.31c-2.38-2.64-4.22-5.62-5.5-8.92
				c-1.28-3.31-1.92-6.73-1.92-10.27c0-3.64,0.68-7.1,2.04-10.38c1.36-3.28,3.26-6.22,5.69-8.81c2.43-2.59,5.32-4.63,8.65-6.11
				c3.33-1.49,6.97-2.23,10.92-2.23c4.05,0,7.73,0.78,11.04,2.35c3.31,1.57,6.15,3.68,8.54,6.35c2.38,2.67,4.22,5.65,5.5,8.96
				c1.28,3.31,1.92,6.68,1.92,10.11c0,3.64-0.67,7.1-2,10.38c-1.33,3.28-3.23,6.22-5.69,8.81c-2.46,2.59-5.35,4.64-8.65,6.15
				C43.49,58.85,39.86,59.61,35.92,59.61z M21.69,31.92c0,2.1,0.31,4.14,0.92,6.11c0.62,1.97,1.53,3.73,2.73,5.27
				c1.2,1.54,2.7,2.77,4.5,3.69c1.79,0.92,3.85,1.38,6.15,1.38c2.41,0,4.51-0.47,6.31-1.42c1.79-0.95,3.28-2.22,4.46-3.81
				c1.18-1.59,2.06-3.37,2.65-5.35c0.59-1.97,0.88-3.99,0.88-6.04c0-2.1-0.31-4.13-0.92-6.08c-0.62-1.95-1.54-3.7-2.77-5.27
				c-1.23-1.56-2.74-2.78-4.54-3.65c-1.8-0.87-3.82-1.31-6.08-1.31c-2.41,0-4.5,0.46-6.27,1.38c-1.77,0.92-3.26,2.17-4.46,3.73
				c-1.21,1.56-2.1,3.33-2.69,5.31C21.98,27.85,21.69,29.87,21.69,31.92z"/>
			<path class="st0" d="M90.76,59.99c-3.03,0-5.67-0.64-7.92-1.93c-2.26-1.29-4.03-3.04-5.31-5.27v22.82H65.22V19.3h10.69v6.58
				c1.49-2.27,3.36-4.04,5.62-5.31c2.26-1.26,4.9-1.89,7.92-1.89c2.72,0,5.22,0.53,7.5,1.59c2.28,1.06,4.27,2.53,5.96,4.39
				c1.69,1.87,3,4.04,3.92,6.52s1.38,5.15,1.38,8.03c0,3.94-0.74,7.48-2.23,10.61c-1.49,3.13-3.55,5.61-6.19,7.43
				C97.16,59.08,94.14,59.99,90.76,59.99z M86.61,49.61c1.33,0,2.55-0.29,3.65-0.86c1.1-0.57,2.06-1.33,2.88-2.28
				c0.82-0.95,1.45-2.05,1.88-3.32c0.43-1.27,0.65-2.6,0.65-4c0-1.44-0.24-2.76-0.73-3.96c-0.49-1.19-1.17-2.25-2.04-3.17
				c-0.87-0.92-1.9-1.63-3.08-2.13c-1.18-0.5-2.46-0.75-3.85-0.75c-0.82,0-1.65,0.12-2.5,0.37s-1.64,0.6-2.38,1.07
				c-0.74,0.47-1.42,1.02-2.04,1.66c-0.62,0.64-1.13,1.38-1.54,2.21v8.18c0.56,1.34,1.31,2.52,2.23,3.56
				c0.92,1.04,1.97,1.87,3.15,2.49C84.09,49.3,85.32,49.61,86.61,49.61z"/>
			<path class="st0" d="M129.91,59.99c-3.44,0-6.49-0.55-9.15-1.63c-2.67-1.09-4.94-2.57-6.81-4.45c-1.87-1.88-3.3-4.04-4.27-6.5
				c-0.97-2.46-1.46-5.03-1.46-7.72c0-3.83,0.86-7.31,2.58-10.46c1.72-3.15,4.19-5.69,7.42-7.63c3.23-1.94,7.13-2.91,11.69-2.91
				c4.56,0,8.45,0.96,11.65,2.88c3.2,1.92,5.65,4.43,7.35,7.53c1.69,3.11,2.54,6.48,2.54,10.11c0,0.71-0.04,1.4-0.12,2.08
				c-0.08,0.68-0.14,1.27-0.19,1.78H121.3c0.15,1.75,0.65,3.22,1.5,4.41c0.85,1.2,1.94,2.11,3.27,2.73
				c1.33,0.62,2.74,0.93,4.23,0.93c1.85,0,3.58-0.43,5.19-1.31c1.62-0.87,2.73-2.05,3.35-3.54l10.46,2.92
				c-1.03,2.1-2.47,3.96-4.35,5.58c-1.87,1.62-4.08,2.88-6.62,3.81S132.99,59.99,129.91,59.99z M120.99,35.53h17.54
				c-0.21-1.61-0.69-3.02-1.46-4.22c-0.77-1.2-1.8-2.13-3.08-2.79c-1.28-0.66-2.69-0.99-4.23-0.99c-1.59,0-3.01,0.33-4.27,0.99
				c-1.26,0.66-2.27,1.59-3.04,2.79C121.68,32.51,121.19,33.92,120.99,35.53z"/>
			<path class="st0" d="M192.14,59.22h-12.31V36.99c0-2.61-0.5-4.51-1.5-5.69c-1-1.18-2.32-1.77-3.96-1.77
				c-1.13,0-2.28,0.3-3.46,0.89c-1.18,0.59-2.24,1.41-3.19,2.44c-0.95,1.04-1.68,2.22-2.19,3.55v22.81h-12.31V19.3h11.08v6.81
				c1.03-1.56,2.31-2.9,3.85-4.02c1.54-1.11,3.31-1.96,5.31-2.54c2-0.58,4.18-0.87,6.54-0.87c2.62,0,4.73,0.47,6.35,1.4
				c1.62,0.93,2.85,2.16,3.69,3.67c0.85,1.52,1.41,3.14,1.69,4.89c0.28,1.74,0.42,3.45,0.42,5.12V59.22z"/>
			<path class="st0" d="M244.29,20.69c-0.15-0.26-0.69-0.65-1.62-1.19c-0.92-0.54-2.08-1.12-3.46-1.73
				c-1.38-0.62-2.9-1.15-4.54-1.62c-1.64-0.46-3.28-0.69-4.92-0.69c-2.15,0-3.82,0.37-5,1.11c-1.18,0.74-1.77,1.87-1.77,3.4
				c0,1.22,0.45,2.19,1.35,2.9c0.9,0.71,2.19,1.34,3.88,1.87c1.69,0.53,3.77,1.16,6.23,1.87c3.49,0.92,6.51,2.03,9.08,3.32
				c2.56,1.3,4.52,2.97,5.88,5c1.36,2.04,2.04,4.74,2.04,8.1c0,3.06-0.56,5.64-1.69,7.75c-1.13,2.11-2.65,3.82-4.58,5.12
				c-1.92,1.3-4.12,2.24-6.58,2.83c-2.46,0.59-5,0.88-7.61,0.88c-2.67,0-5.4-0.27-8.19-0.81c-2.8-0.54-5.47-1.31-8.04-2.31
				c-2.56-1-4.92-2.22-7.08-3.65l5.54-11c0.2,0.26,0.87,0.73,2,1.42c1.13,0.69,2.53,1.41,4.19,2.15c1.67,0.74,3.52,1.4,5.58,1.96
				c2.05,0.57,4.13,0.85,6.23,0.85c2.26,0,3.94-0.35,5.04-1.05c1.1-0.7,1.65-1.68,1.65-2.94c0-1.38-0.58-2.45-1.73-3.21
				c-1.15-0.76-2.72-1.45-4.69-2.07c-1.98-0.61-4.24-1.3-6.81-2.07c-3.33-1.02-6.09-2.17-8.27-3.44c-2.18-1.27-3.8-2.83-4.85-4.67
				c-1.05-1.84-1.58-4.13-1.58-6.89c0-3.82,0.91-7.05,2.73-9.68c1.82-2.63,4.27-4.61,7.35-5.97c3.08-1.35,6.44-2.03,10.08-2.03
				c2.56,0,5.04,0.31,7.42,0.92c2.38,0.62,4.61,1.38,6.69,2.31c2.08,0.92,3.94,1.85,5.58,2.77L244.29,20.69z"/>
			<path class="st0" d="M273.21,59.99c-3.44,0-6.5-0.56-9.19-1.67c-2.69-1.11-4.96-2.63-6.81-4.55c-1.85-1.92-3.24-4.12-4.19-6.59
				c-0.95-2.48-1.42-5.08-1.42-7.81c0-2.78,0.47-5.41,1.42-7.88c0.95-2.48,2.35-4.67,4.19-6.59c1.85-1.92,4.12-3.44,6.81-4.55
				c2.69-1.11,5.76-1.67,9.19-1.67c3.44,0,6.49,0.56,9.15,1.67c2.66,1.11,4.92,2.63,6.77,4.55c1.85,1.92,3.26,4.12,4.23,6.59
				c0.97,2.48,1.46,5.1,1.46,7.88c0,2.73-0.49,5.33-1.46,7.81c-0.97,2.48-2.38,4.67-4.23,6.59c-1.85,1.92-4.1,3.44-6.77,4.55
				C279.7,59.44,276.65,59.99,273.21,59.99z M264.21,39.38c0,2.04,0.4,3.83,1.19,5.38c0.79,1.54,1.86,2.74,3.19,3.58
				c1.33,0.85,2.87,1.27,4.61,1.27c1.69,0,3.22-0.43,4.58-1.31c1.36-0.87,2.42-2.08,3.19-3.62c0.77-1.54,1.15-3.31,1.15-5.3
				c0-2.04-0.38-3.83-1.15-5.38c-0.77-1.54-1.83-2.74-3.19-3.59c-1.36-0.85-2.88-1.27-4.58-1.27c-1.74,0-3.28,0.42-4.61,1.27
				c-1.33,0.85-2.4,2.04-3.19,3.59C264.61,35.55,264.21,37.34,264.21,39.38z"/>
			<path class="st0" d="M296.67,44.86V19.3h12.31v22.81c0,2.43,0.49,4.28,1.46,5.57c0.97,1.29,2.36,1.93,4.15,1.93
				c1.13,0,2.2-0.19,3.23-0.56c1.02-0.37,2.03-0.98,3-1.83c0.97-0.84,1.85-1.94,2.62-3.28V19.3h12.31v26.28
				c0,1.21,0.19,2.06,0.58,2.54c0.38,0.48,1.06,0.77,2.04,0.87v10.23c-1.13,0.2-2.12,0.36-2.96,0.46c-0.85,0.1-1.6,0.15-2.27,0.15
				c-2.15,0-3.87-0.44-5.15-1.33c-1.28-0.89-2.08-2.14-2.38-3.76l-0.23-2.43c-1.85,2.64-4.14,4.58-6.88,5.82
				c-2.74,1.24-5.81,1.86-9.19,1.86c-4.1,0-7.23-1.29-9.38-3.88C297.75,53.53,296.67,49.78,296.67,44.86z"/>
			<path class="st0" d="M367.06,29.38c-2.98,0-5.67,0.47-8.08,1.42c-2.41,0.95-4.15,2.35-5.23,4.19v24.23h-12.31V19.3h11.31v7.69
				c1.38-2.72,3.18-4.85,5.38-6.38c2.2-1.54,4.51-2.33,6.92-2.38c0.56,0,0.99,0,1.27,0c0.28,0,0.53,0.03,0.73,0.08V29.38z"/>
			<path class="st0" d="M387.36,59.99c-3.44,0-6.49-0.56-9.15-1.67c-2.67-1.11-4.94-2.63-6.81-4.55c-1.87-1.92-3.3-4.12-4.27-6.59
				c-0.97-2.48-1.46-5.1-1.46-7.88c0-3.64,0.86-7.02,2.58-10.15c1.72-3.13,4.19-5.66,7.42-7.58c3.23-1.92,7.13-2.88,11.69-2.88
				c4.61,0,8.52,0.99,11.73,2.96c3.2,1.97,5.6,4.55,7.19,7.73l-12,3.62c-0.77-1.23-1.76-2.18-2.96-2.85c-1.21-0.67-2.55-1-4.04-1
				c-1.69,0-3.22,0.42-4.58,1.27c-1.36,0.85-2.44,2.02-3.23,3.51c-0.8,1.49-1.19,3.29-1.19,5.38c0,2.04,0.41,3.83,1.23,5.38
				c0.82,1.54,1.9,2.75,3.23,3.62c1.33,0.87,2.85,1.31,4.54,1.31c1.03,0,1.99-0.17,2.89-0.5c0.9-0.33,1.72-0.81,2.46-1.42
				c0.74-0.62,1.32-1.31,1.73-2.08l12,3.69c-0.97,2.05-2.37,3.88-4.19,5.5c-1.82,1.62-3.96,2.88-6.42,3.81
				S390.49,59.99,387.36,59.99z"/>
			<path class="st0" d="M426.98,59.99c-3.44,0-6.49-0.55-9.15-1.63c-2.67-1.09-4.94-2.57-6.81-4.45c-1.87-1.88-3.3-4.04-4.27-6.5
				c-0.97-2.46-1.46-5.03-1.46-7.72c0-3.83,0.86-7.31,2.58-10.46c1.72-3.15,4.19-5.69,7.42-7.63c3.23-1.94,7.13-2.91,11.69-2.91
				c4.56,0,8.45,0.96,11.65,2.88c3.2,1.92,5.65,4.43,7.35,7.53c1.69,3.11,2.54,6.48,2.54,10.11c0,0.71-0.04,1.4-0.12,2.08
				c-0.08,0.68-0.14,1.27-0.19,1.78h-29.84c0.15,1.75,0.65,3.22,1.5,4.41c0.85,1.2,1.93,2.11,3.27,2.73
				c1.33,0.62,2.74,0.93,4.23,0.93c1.85,0,3.58-0.43,5.19-1.31c1.62-0.87,2.73-2.05,3.35-3.54l10.46,2.92
				c-1.03,2.1-2.47,3.96-4.35,5.58c-1.87,1.62-4.08,2.88-6.61,3.81C432.86,59.53,430.05,59.99,426.98,59.99z M418.05,35.53h17.54
				c-0.2-1.61-0.69-3.02-1.46-4.22c-0.77-1.2-1.8-2.13-3.08-2.79c-1.28-0.66-2.69-0.99-4.23-0.99c-1.59,0-3.01,0.33-4.27,0.99
				c-1.26,0.66-2.27,1.59-3.04,2.79C418.74,32.51,418.26,33.92,418.05,35.53z"/>
		</g>
	</g>
	<g>
		<polygon class="st1" points="144.92,73.55 128.04,126.55 110.95,73.55 93.15,73.55 119.75,146.19 136.23,146.19 162.63,73.55 		
			"/>
		<rect x="162.93" y="71.5" class="st1" width="16.37" height="14.84"/>
		<rect x="162.93" y="92.48" class="st1" width="16.37" height="53.72"/>
		<path class="st1" d="M229.39,145.17c1.74,1.23,4.01,1.84,6.8,1.84c1.77,0,4.09-0.27,6.96-0.82v-13.61
			c-1.23-0.14-2.11-0.53-2.66-1.18c-0.55-0.65-0.82-1.79-0.82-3.43V71.5H223.3v30.59c-1.57-2.93-3.89-5.3-6.96-7.11
			c-3.07-1.81-6.48-2.71-10.23-2.71c-4.64,0-8.73,1.21-12.28,3.63c-3.55,2.42-6.34,5.7-8.39,9.83c-2.05,4.14-3.07,8.79-3.07,13.96
			c0,3.9,0.61,7.53,1.84,10.89c1.23,3.36,2.98,6.28,5.27,8.77c2.28,2.49,4.98,4.42,8.08,5.8c3.1,1.38,6.5,2.07,10.18,2.07
			c3.61,0,7.06-0.82,10.33-2.46c3.27-1.64,5.87-4.13,7.78-7.47l0.31,2.76C226.57,142.24,227.65,143.94,229.39,145.17z M223.4,126.15
			c-0.55,1.06-1.23,2.05-2.05,2.98c-0.82,0.93-1.72,1.69-2.71,2.28c-0.99,0.6-2.03,1.08-3.12,1.44c-1.09,0.36-2.22,0.54-3.38,0.54
			c-1.84,0-3.55-0.33-5.12-0.99c-1.57-0.66-2.93-1.61-4.09-2.83c-1.16-1.22-2.06-2.65-2.71-4.27c-0.65-1.62-0.97-3.39-0.97-5.32
			c0-1.85,0.29-3.61,0.87-5.26c0.58-1.66,1.41-3.13,2.51-4.42c1.09-1.29,2.37-2.3,3.84-3.03c1.47-0.73,3.09-1.09,4.86-1.09
			c1.64,0,3.26,0.4,4.86,1.19c1.6,0.79,3.03,1.85,4.3,3.18c1.26,1.32,2.23,2.88,2.92,4.67V126.15z"/>
		<path class="st1" d="M487.57,163.48c-2.11-0.37-4.26-0.56-6.45-0.56c-4.5,0-8.49,0.76-11.97,2.27s-6.21,3.58-8.19,6.2
			c-1.98,2.62-2.97,5.68-2.97,9.17c0,3.16,0.82,6.02,2.46,8.57c1.64,2.55,3.87,4.57,6.7,6.05c2.83,1.48,6.02,2.22,9.57,2.22
			c3.61,0,7.08-0.8,10.39-2.4c3.31-1.6,6.15-3.94,8.54-7.01l0.31,2.35c0.41,2.11,1.41,3.79,3.02,5.01c1.6,1.23,3.94,1.84,7.01,1.84
			c0.89,0,1.93-0.07,3.12-0.2c1.19-0.14,2.47-0.34,3.84-0.61v-13.61c-1.3-0.13-2.2-0.52-2.71-1.15c-0.51-0.63-0.77-1.76-0.77-3.36
			v-13.74c0-7.15-2.23-12.62-6.7-16.4c-4.47-3.78-10.73-5.67-18.78-5.67c-4.3,0-8.37,0.58-12.23,1.74c-3.85,1.16-7.56,2.9-11.1,5.22
			l4.91,10.44c2.93-1.91,5.71-3.38,8.34-4.4c2.62-1.02,5.44-1.54,8.44-1.54c3.61,0,6.31,0.76,8.08,2.28
			c1.77,1.52,2.66,3.69,2.66,6.53v2.35C491.53,164.38,489.68,163.85,487.57,163.48z M493.1,178.43c0,0.66-0.24,1.35-0.72,2.07
			c-0.48,0.72-1.09,1.38-1.84,1.97c-1.09,0.92-2.46,1.68-4.09,2.27c-1.64,0.59-3.27,0.89-4.91,0.89c-1.64,0-3.05-0.3-4.25-0.89
			c-1.19-0.59-2.13-1.38-2.81-2.37c-0.68-0.98-1.02-2.07-1.02-3.25c0-2.1,0.99-3.79,2.97-5.08c1.98-1.28,4.47-1.92,7.47-1.92
			c1.43,0,2.98,0.15,4.66,0.44c1.67,0.3,3.19,0.71,4.55,1.23V178.43z"/>
		<polygon class="st1" points="207.16,220.42 178.2,220.42 178.2,192.28 161.42,192.28 161.42,264.93 178.2,264.93 178.2,235.15 
			207.16,235.15 207.16,264.93 223.94,264.93 223.94,192.28 207.16,192.28 		"/>
		<path class="st1" d="M271.67,214.83c-4.26-2.55-9.43-3.83-15.5-3.83c-6.07,0-11.26,1.29-15.55,3.87
			c-4.3,2.58-7.59,5.96-9.87,10.15c-2.29,4.19-3.43,8.83-3.43,13.92c0,3.57,0.65,7,1.94,10.27c1.3,3.27,3.19,6.16,5.68,8.65
			c2.49,2.5,5.51,4.47,9.06,5.92c3.55,1.45,7.6,2.17,12.18,2.17c4.09,0,7.83-0.61,11.2-1.84c3.38-1.23,6.31-2.92,8.8-5.06
			c2.49-2.15,4.42-4.62,5.78-7.42l-13.92-3.89c-0.82,1.98-2.3,3.55-4.45,4.71c-2.15,1.16-4.45,1.74-6.91,1.74
			c-1.98,0-3.85-0.41-5.63-1.24c-1.77-0.83-3.22-2.04-4.35-3.63c-1.13-1.59-1.79-3.55-2-5.87h39.7c0.07-0.67,0.15-1.46,0.26-2.37
			c0.1-0.91,0.15-1.83,0.15-2.77c0-4.83-1.13-9.32-3.38-13.45C279.19,220.73,275.93,217.39,271.67,214.83z M244.3,233.41
			c0.27-2.15,0.92-4.02,1.94-5.61c1.02-1.59,2.37-2.83,4.04-3.71c1.67-0.88,3.56-1.32,5.68-1.32c2.05,0,3.92,0.44,5.63,1.32
			c1.7,0.88,3.07,2.11,4.09,3.71c1.02,1.6,1.67,3.47,1.94,5.61H244.3z"/>
		<path class="st1" d="M311.16,251.68c-1.06,0.31-2.1,0.46-3.12,0.46c-1.5,0-2.66-0.48-3.48-1.43c-0.82-0.96-1.23-2.56-1.23-4.82
			v-55.65h-16.37v61.37c0,4.58,1.28,8.11,3.84,10.6c2.56,2.49,6.15,3.74,10.79,3.74c2.32,0,4.81-0.27,7.47-0.82
			c2.66-0.55,5.01-1.3,7.06-2.25l-2.15-12.28C313.16,251.01,312.22,251.37,311.16,251.68z"/>
		<path class="st1" d="M366.46,218.97c-2.25-2.49-4.9-4.43-7.93-5.85c-3.04-1.41-6.36-2.12-9.98-2.12c-4.03,0-7.54,0.84-10.54,2.52
			c-3,1.68-5.49,4.03-7.47,7.06v-8.76h-14.22v74.9h16.37v-30.35c1.7,2.96,4.06,5.29,7.06,7.01c3,1.71,6.51,2.57,10.54,2.57
			c4.5,0,8.51-1.21,12.02-3.63c3.51-2.42,6.26-5.71,8.24-9.88c1.98-4.17,2.97-8.87,2.97-14.12c0-3.83-0.61-7.39-1.84-10.69
			C370.45,224.35,368.72,221.46,366.46,218.97z M355.98,243.55c-0.58,1.69-1.42,3.16-2.51,4.42c-1.09,1.26-2.37,2.27-3.84,3.03
			c-1.47,0.76-3.09,1.14-4.86,1.14c-1.71,0-3.34-0.41-4.91-1.23c-1.57-0.82-2.97-1.92-4.19-3.31c-1.23-1.38-2.22-2.96-2.97-4.74
			v-10.89c0.55-1.11,1.23-2.09,2.05-2.94c0.82-0.85,1.72-1.58,2.71-2.2c0.99-0.62,2.05-1.09,3.17-1.42
			c1.13-0.33,2.23-0.49,3.33-0.49c1.84,0,3.55,0.33,5.12,0.99c1.57,0.66,2.93,1.61,4.09,2.83c1.16,1.22,2.06,2.63,2.71,4.22
			c0.65,1.59,0.97,3.34,0.97,5.26C356.85,240.09,356.56,241.86,355.98,243.55z"/>
		<path class="st1" d="M424.22,197.14c-1.25-0.76-2.58-1.42-3.98-2v-29.11c0.68-1.84,1.67-3.45,2.97-4.82
			c1.29-1.38,2.71-2.44,4.25-3.2c1.53-0.75,2.92-1.13,4.14-1.13c2.32,0,4.18,0.8,5.58,2.41c1.4,1.61,2.1,4.11,2.1,7.52v29.57h16.37
			v-33.86c0-2.28-0.2-4.6-0.61-6.95c-0.41-2.35-1.19-4.52-2.35-6.5c-1.16-1.98-2.85-3.58-5.06-4.79c-2.22-1.21-5.17-1.81-8.85-1.81
			c-3.89,0-7.45,0.86-10.69,2.57c-3.24,1.71-5.85,4.15-7.83,7.31v-30.65h-16.37v70.6h-13.94c1.74-0.93,3.39-1.98,4.93-3.18
			c3.27-2.52,5.63-5.56,7.06-9.11l-13.71-8.08c-0.96,2.39-2.34,4.31-4.14,5.78c-1.81,1.47-3.77,2.54-5.88,3.22
			c-2.11,0.68-4.19,1.02-6.24,1.02c-2.86,0-5.49-0.6-7.88-1.79c-2.39-1.19-4.42-2.81-6.09-4.86c-1.67-2.05-2.95-4.4-3.84-7.06
			c-0.89-2.66-1.33-5.42-1.33-8.29c0-2.59,0.37-5.18,1.13-7.78c0.75-2.59,1.91-4.94,3.48-7.06c1.57-2.11,3.55-3.8,5.93-5.06
			c2.39-1.26,5.18-1.89,8.39-1.89c1.98,0,4.04,0.29,6.19,0.87c2.15,0.58,4.13,1.59,5.93,3.02c1.81,1.43,3.26,3.45,4.35,6.04l12.89-9
			c-2.46-4.71-6.19-8.53-11.2-11.46c-5.01-2.93-10.93-4.4-17.75-4.4c-5.41,0-10.26,0.94-14.58,2.79c0.45-2.01,0.68-4.08,0.68-6.21
			c0-3.7-0.65-7.19-1.94-10.49c-1.3-3.29-3.17-6.22-5.63-8.77c-2.46-2.55-5.46-4.57-9-6.05c-3.55-1.48-7.61-2.22-12.18-2.22
			c-4.57,0-8.65,0.74-12.23,2.22c-3.58,1.48-6.6,3.49-9.06,6.05c-2.46,2.55-4.32,5.48-5.58,8.77c-0.67,1.76-1.16,3.57-1.48,5.45
			c-0.51-3.03-1.49-5.91-2.97-8.63c-2.25-4.13-5.51-7.47-9.77-10.02c-4.26-2.55-9.43-3.83-15.5-3.83c-6.07,0-11.26,1.29-15.55,3.87
			c-4.3,2.58-7.59,5.96-9.87,10.15c-2.29,4.19-3.43,8.83-3.43,13.92c0,3.57,0.65,7,1.94,10.27c1.3,3.27,3.19,6.15,5.68,8.65
			c2.49,2.5,5.51,4.47,9.06,5.92c3.55,1.45,7.6,2.17,12.18,2.17c4.09,0,7.83-0.61,11.2-1.84s6.31-2.92,8.8-5.07
			c2.49-2.15,4.42-4.62,5.78-7.42L284.79,129c-0.82,1.98-2.3,3.55-4.45,4.71c-2.15,1.16-4.45,1.74-6.91,1.74
			c-1.98,0-3.85-0.41-5.63-1.24c-1.77-0.83-3.22-2.04-4.35-3.63c-1.13-1.59-1.79-3.55-1.99-5.87h39.7c0.31,1.87,0.8,3.7,1.48,5.47
			c1.26,3.29,3.12,6.22,5.58,8.77c2.46,2.56,5.47,4.57,9.06,6.05c3.58,1.48,7.66,2.22,12.23,2.22c3.16,0,6.07-0.36,8.74-1.07
			c-0.02,0.05-0.04,0.09-0.06,0.14c-1.64,4.26-2.45,8.61-2.45,13.05c0,4.64,0.87,9.19,2.61,13.66c1.74,4.47,4.19,8.49,7.37,12.07
			c3.17,3.58,6.96,6.45,11.36,8.59c4.4,2.15,9.23,3.22,14.48,3.22c1.84,0,3.7-0.15,5.56-0.43v68.47h27.11c7.3,0,13.66-1.5,19.08-4.5
			c5.42-3,9.63-7.23,12.64-12.69c3-5.46,4.5-11.87,4.5-19.24c0-6.68-1.37-12.77-4.09-18.26
			C433.62,204.75,429.58,200.38,424.22,197.14z M261.05,114.68c0.27-2.15,0.92-4.02,1.94-5.61c1.02-1.59,2.37-2.83,4.04-3.71
			c1.67-0.88,3.56-1.32,5.68-1.32c2.05,0,3.92,0.44,5.63,1.32c1.7,0.88,3.07,2.12,4.09,3.71c1.02,1.59,1.67,3.47,1.94,5.61H261.05z
			 M335.59,131.67c-1.81,1.16-3.84,1.74-6.09,1.74c-2.32,0-4.37-0.56-6.14-1.69c-1.77-1.13-3.19-2.71-4.25-4.77
			c-1.06-2.05-1.59-4.44-1.59-7.15c0-2.71,0.53-5.1,1.59-7.15c1.06-2.05,2.47-3.64,4.25-4.77c1.77-1.13,3.82-1.69,6.14-1.69
			c2.25,0,4.28,0.56,6.09,1.69c1.81,1.13,3.22,2.72,4.25,4.77c1.02,2.05,1.53,4.44,1.53,7.15c0,2.65-0.51,5-1.53,7.05
			C338.81,128.9,337.4,130.51,335.59,131.67z M421.1,239.6c-1.5,3.31-3.67,5.9-6.5,7.78c-2.83,1.88-6.29,2.81-10.39,2.81h-10.33
			v-43.18h10.33c4.02,0,7.47,0.91,10.33,2.71c2.87,1.81,5.05,4.33,6.55,7.57c1.5,3.24,2.25,6.97,2.25,11.2
			C423.35,232.6,422.6,236.3,421.1,239.6z"/>
		<path class="st1" d="M477.02,252.44c-2.15,1.16-4.45,1.74-6.91,1.74c-1.98,0-3.85-0.41-5.63-1.24c-1.77-0.83-3.22-2.04-4.35-3.63
			c-1.13-1.59-1.79-3.55-2-5.87h39.7c0.07-0.67,0.15-1.46,0.26-2.37s0.15-1.83,0.15-2.77c0-4.83-1.13-9.32-3.38-13.45
			c-2.25-4.13-5.51-7.47-9.77-10.02c-4.26-2.55-9.43-3.83-15.5-3.83c-6.07,0-11.26,1.29-15.55,3.87c-4.3,2.58-7.59,5.96-9.87,10.15
			c-2.29,4.19-3.43,8.83-3.43,13.92c0,3.57,0.65,7,1.94,10.27c1.3,3.27,3.19,6.16,5.68,8.65c2.49,2.5,5.51,4.47,9.06,5.92
			c3.55,1.45,7.6,2.17,12.18,2.17c4.09,0,7.83-0.61,11.2-1.84c3.38-1.23,6.31-2.92,8.8-5.06c2.49-2.15,4.42-4.62,5.78-7.42
			l-13.92-3.89C480.65,249.72,479.17,251.29,477.02,252.44z M459.68,227.8c1.02-1.59,2.37-2.83,4.04-3.71
			c1.67-0.88,3.56-1.32,5.68-1.32c2.05,0,3.92,0.44,5.63,1.32c1.7,0.88,3.07,2.11,4.09,3.71c1.02,1.6,1.67,3.47,1.94,5.61h-23.33
			C458,231.27,458.65,229.4,459.68,227.8z"/>
		<path class="st1" d="M534.27,236.38c-2.93-1.3-6.62-2.59-11.05-3.87c-1.91-0.6-3.5-1.12-4.76-1.56c-1.26-0.44-2.18-0.95-2.76-1.56
			c-0.58-0.6-0.87-1.41-0.87-2.41c0-1,0.29-1.82,0.87-2.46c0.58-0.64,1.35-1.09,2.3-1.36c0.95-0.27,2.01-0.4,3.17-0.4
			c2.25,0,4.57,0.48,6.96,1.43c2.39,0.96,5.12,2.49,8.19,4.6l6.34-10.23c-3.07-2.73-6.36-4.67-9.87-5.83
			c-3.51-1.16-7.11-1.74-10.79-1.74c-4.64,0-8.63,0.74-11.97,2.22c-3.34,1.48-5.92,3.55-7.72,6.2c-1.81,2.66-2.71,5.76-2.71,9.33
			c0,2.96,0.68,5.36,2.05,7.21c1.36,1.85,3.41,3.41,6.14,4.69c2.73,1.28,6.14,2.59,10.23,3.93c2.05,0.54,3.77,1.04,5.17,1.51
			c1.4,0.47,2.44,0.99,3.12,1.56c0.68,0.57,1.02,1.36,1.02,2.37c0,1.35-0.58,2.35-1.74,2.99c-1.16,0.64-2.8,0.97-4.91,0.97
			c-2.73,0-5.65-0.61-8.75-1.84c-3.11-1.23-6.29-3.03-9.57-5.42l-5.63,10.33c3,2.93,6.68,5.15,11.05,6.65
			c4.36,1.5,8.83,2.25,13.4,2.25c6.75,0,12.09-1.52,16.01-4.57c3.92-3.05,5.88-7.25,5.88-12.6c0-3.15-0.73-5.67-2.2-7.58
			C539.4,239.29,537.2,237.68,534.27,236.38z"/>
		<path class="st1" d="M578.88,234.68l19.34-22.86h-17.29l-18.21,21.95v-43.54H549.7l-2.37-9.72c-0.96,0.48-2.1,0.92-3.43,1.33
			c-1.33,0.41-2.58,0.61-3.73,0.61c-1.37,0-2.49-0.38-3.38-1.15c-0.89-0.77-1.33-2.02-1.33-3.75v-21.91h10.95v-12.38h-10.95v-17.09
			h-16.37v17.09h-6.86v12.38h6.86v27.63c0,3.43,0.66,6.19,2,8.27c1.33,2.08,3.14,3.58,5.42,4.49c2.29,0.91,4.79,1.36,7.52,1.36
			c1.91,0,3.85-0.19,5.83-0.56c1.98-0.38,3.87-0.87,5.68-1.48c0.27-0.09,0.54-0.19,0.8-0.28v69.86h16.37v-15.48l5.73-5.77
			l14.02,21.24h17.39L578.88,234.68z"/>
	</g>
	<g>
		<g>
			<path class="st0" d="M268.55,202.25l-21.59-23.02c-1.85-1.96-3.33-3.64-4.44-5.04c-1.1-1.39-1.89-2.69-2.35-3.89
				c-0.46-1.2-0.7-2.5-0.7-3.89c0-2.35,0.57-4.39,1.72-6.11c1.15-1.72,2.73-3.05,4.73-3.99c2.01-0.94,4.27-1.41,6.79-1.41
				c2.25,0,4.37,0.38,6.36,1.14c1.99,0.76,3.62,1.93,4.9,3.5c1.28,1.57,1.92,3.58,1.92,6.02c0,2.09-0.5,4-1.49,5.72
				c-0.99,1.72-2.34,3.3-4.04,4.74c-1.7,1.44-3.61,2.79-5.73,4.05c-1.55,0.91-2.93,1.79-4.14,2.63c-1.21,0.84-2.16,1.72-2.85,2.63
				c-0.68,0.91-1.03,1.9-1.03,2.99c0,0.91,0.27,1.83,0.83,2.76c0.55,0.93,1.37,1.7,2.45,2.31c1.08,0.61,2.37,0.91,3.87,0.91
				c1.68,0,3.35-0.43,5.03-1.29c1.68-0.86,3.21-2.11,4.6-3.74c1.39-1.63,2.49-3.62,3.31-5.96c0.82-2.34,1.23-4.99,1.23-7.95h8.54
				c0,4.46-0.68,8.39-2.05,11.79c-1.37,3.4-3.19,6.25-5.46,8.54c-2.27,2.3-4.82,4.02-7.65,5.16c-2.83,1.15-5.72,1.72-8.67,1.72
				c-3.4,0-6.31-0.69-8.74-2.06c-2.43-1.37-4.27-3.14-5.53-5.3c-1.26-2.16-1.89-4.46-1.89-6.9c0-2.49,0.57-4.65,1.72-6.51
				c1.15-1.85,2.59-3.48,4.34-4.87c1.74-1.39,3.48-2.62,5.2-3.66c1.9-1.21,3.46-2.19,4.7-2.95c1.24-0.76,2.16-1.48,2.78-2.17
				c0.62-0.69,0.93-1.49,0.93-2.4c0-0.95-0.32-1.71-0.96-2.27c-0.64-0.56-1.47-0.84-2.48-0.84c-0.71,0-1.35,0.16-1.92,0.49
				c-0.57,0.32-1,0.74-1.29,1.23c-0.29,0.5-0.43,1.07-0.43,1.72c0,0.61,0.19,1.18,0.56,1.72c0.37,0.54,1.02,1.24,1.92,2.11
				c0.9,0.87,2.15,2.14,3.74,3.83l27.15,28.51H268.55z"/>
		</g>
	</g>
</g>
</svg>
