<?xml version="1.0" encoding="utf-8"?>
<!-- Generator: Adobe Illustrator 26.2.1, SVG Export Plug-In . SVG Version: 6.00 Build 0)  -->
<svg version="1.1" id="Layer_1" xmlns="http://www.w3.org/2000/svg" xmlns:xlink="http://www.w3.org/1999/xlink" x="0px" y="0px"
	 viewBox="0 0 608.69 290.95" style="enable-background:new 0 0 608.69 290.95;" xml:space="preserve">
<style type="text/css">
	.st0{fill:#4285F4;}
	.st1{fill:#001588;}
</style>
<g>
	<g>
		<g>
			<path class="st0" d="M34.43,59.04c-4.12,0-7.84-0.78-11.16-2.35c-3.32-1.57-6.18-3.68-8.57-6.33c-2.39-2.65-4.23-5.64-5.52-8.96
				c-1.29-3.32-1.93-6.76-1.93-10.31c0-3.65,0.68-7.13,2.05-10.42c1.36-3.29,3.27-6.24,5.71-8.84c2.44-2.6,5.34-4.64,8.69-6.14
				c3.35-1.49,7-2.24,10.96-2.24c4.06,0,7.76,0.79,11.08,2.36c3.32,1.57,6.18,3.69,8.57,6.37c2.39,2.68,4.23,5.67,5.52,8.99
				c1.29,3.32,1.93,6.7,1.93,10.15c0,3.66-0.67,7.13-2.01,10.42c-1.34,3.29-3.24,6.24-5.71,8.84c-2.47,2.6-5.37,4.66-8.69,6.18
				C42.04,58.28,38.4,59.04,34.43,59.04z M20.15,31.24c0,2.11,0.31,4.16,0.93,6.14c0.62,1.98,1.53,3.74,2.74,5.29
				c1.21,1.54,2.71,2.78,4.52,3.71c1.8,0.93,3.86,1.39,6.18,1.39c2.42,0,4.53-0.47,6.33-1.43c1.8-0.95,3.29-2.23,4.48-3.82
				c1.18-1.6,2.07-3.38,2.66-5.37c0.59-1.98,0.89-4,0.89-6.06c0-2.11-0.31-4.14-0.93-6.1c-0.62-1.96-1.54-3.72-2.78-5.29
				c-1.24-1.57-2.75-2.79-4.55-3.67c-1.8-0.87-3.83-1.31-6.1-1.31c-2.42,0-4.52,0.46-6.29,1.39c-1.78,0.93-3.27,2.17-4.48,3.74
				c-1.21,1.57-2.11,3.35-2.7,5.33C20.44,27.16,20.15,29.18,20.15,31.24z"/>
			<path class="st0" d="M89.48,59.42c-3.04,0-5.69-0.65-7.95-1.94c-2.27-1.29-4.04-3.06-5.33-5.29v22.9H63.85V18.58h10.73v6.61
				c1.49-2.28,3.37-4.06,5.64-5.32c2.26-1.27,4.91-1.9,7.95-1.9c2.73,0,5.24,0.53,7.53,1.6c2.29,1.06,4.28,2.54,5.98,4.41
				c1.7,1.88,3.01,4.06,3.94,6.54c0.93,2.48,1.39,5.17,1.39,8.06c0,3.96-0.75,7.51-2.24,10.65c-1.49,3.14-3.57,5.63-6.22,7.46
				C95.9,58.51,92.88,59.42,89.48,59.42z M85.31,49c1.34,0,2.56-0.29,3.67-0.86c1.11-0.57,2.07-1.34,2.9-2.29
				c0.82-0.95,1.45-2.06,1.89-3.34c0.44-1.27,0.66-2.61,0.66-4.01c0-1.45-0.24-2.77-0.73-3.97s-1.17-2.26-2.05-3.19
				c-0.88-0.92-1.91-1.64-3.09-2.14c-1.18-0.5-2.47-0.75-3.86-0.75c-0.82,0-1.66,0.12-2.51,0.37c-0.85,0.25-1.65,0.6-2.39,1.07
				c-0.75,0.47-1.43,1.02-2.05,1.66c-0.62,0.64-1.13,1.38-1.54,2.22V42c0.57,1.34,1.31,2.53,2.24,3.57
				c0.93,1.04,1.98,1.87,3.17,2.49C82.79,48.69,84.02,49,85.31,49z"/>
			<path class="st0" d="M128.78,59.42c-3.45,0-6.51-0.55-9.19-1.64c-2.68-1.09-4.95-2.58-6.83-4.47c-1.88-1.88-3.31-4.06-4.28-6.53
				c-0.98-2.47-1.47-5.05-1.47-7.75c0-3.84,0.86-7.34,2.59-10.5c1.72-3.16,4.21-5.71,7.45-7.66c3.24-1.95,7.15-2.92,11.74-2.92
				c4.58,0,8.48,0.96,11.7,2.89c3.22,1.93,5.67,4.45,7.37,7.56c1.7,3.12,2.55,6.5,2.55,10.15c0,0.71-0.04,1.41-0.12,2.09
				c-0.08,0.68-0.14,1.28-0.19,1.79h-29.96c0.15,1.75,0.66,3.23,1.51,4.43c0.85,1.2,1.94,2.11,3.28,2.74
				c1.34,0.63,2.75,0.94,4.25,0.94c1.85,0,3.59-0.44,5.21-1.31c1.62-0.87,2.74-2.06,3.36-3.55l10.5,2.93
				c-1.03,2.11-2.48,3.98-4.36,5.6c-1.88,1.62-4.09,2.9-6.64,3.82S131.87,59.42,128.78,59.42z M119.82,34.87h17.6
				c-0.21-1.62-0.7-3.03-1.47-4.24c-0.77-1.2-1.8-2.14-3.09-2.8c-1.29-0.66-2.7-1-4.25-1c-1.6,0-3.02,0.33-4.29,1
				c-1.26,0.66-2.28,1.6-3.05,2.8C120.52,31.84,120.03,33.25,119.82,34.87z"/>
			<path class="st0" d="M191.24,58.65h-12.35V36.34c0-2.62-0.5-4.52-1.5-5.71c-1-1.18-2.33-1.78-3.98-1.78
				c-1.13,0-2.29,0.3-3.47,0.89c-1.18,0.59-2.25,1.41-3.2,2.45c-0.95,1.04-1.69,2.23-2.2,3.57v22.89h-12.35V18.58h11.12v6.83
				c1.03-1.57,2.32-2.91,3.86-4.03c1.54-1.11,3.32-1.96,5.33-2.55c2.01-0.58,4.2-0.87,6.56-0.87c2.62,0,4.75,0.47,6.37,1.41
				c1.62,0.94,2.86,2.17,3.71,3.69c0.85,1.52,1.42,3.16,1.7,4.9c0.28,1.75,0.42,3.46,0.42,5.13V58.65z"/>
			<path class="st0" d="M243.58,19.97c-0.15-0.26-0.69-0.66-1.62-1.2c-0.93-0.54-2.08-1.12-3.47-1.74
				c-1.39-0.62-2.91-1.16-4.55-1.62c-1.65-0.46-3.29-0.69-4.94-0.69c-2.16,0-3.83,0.37-5.02,1.11c-1.18,0.74-1.78,1.88-1.78,3.41
				c0,1.23,0.45,2.2,1.35,2.91c0.9,0.72,2.2,1.34,3.9,1.88c1.7,0.54,3.78,1.16,6.25,1.88c3.5,0.92,6.54,2.03,9.11,3.34
				c2.57,1.3,4.54,2.98,5.91,5.02c1.36,2.04,2.05,4.75,2.05,8.13c0,3.07-0.57,5.66-1.7,7.78c-1.13,2.12-2.66,3.83-4.59,5.14
				s-4.13,2.25-6.6,2.84c-2.47,0.59-5.02,0.88-7.64,0.88c-2.68,0-5.42-0.27-8.22-0.81c-2.81-0.54-5.5-1.31-8.07-2.32
				c-2.57-1-4.94-2.23-7.1-3.67l5.56-11.04c0.2,0.26,0.87,0.73,2.01,1.43c1.13,0.69,2.53,1.42,4.21,2.16
				c1.67,0.75,3.54,1.4,5.6,1.97c2.06,0.57,4.14,0.85,6.25,0.85c2.26,0,3.95-0.35,5.06-1.06c1.11-0.7,1.66-1.69,1.66-2.95
				c0-1.38-0.58-2.46-1.74-3.22c-1.16-0.77-2.73-1.46-4.71-2.07c-1.98-0.61-4.26-1.31-6.83-2.07c-3.35-1.02-6.11-2.17-8.3-3.45
				c-2.19-1.28-3.81-2.84-4.86-4.68c-1.06-1.84-1.58-4.15-1.58-6.91c0-3.84,0.91-7.08,2.74-9.71c1.83-2.64,4.28-4.63,7.37-5.99
				c3.09-1.36,6.46-2.04,10.11-2.04c2.57,0,5.06,0.31,7.45,0.93c2.39,0.62,4.63,1.39,6.72,2.32c2.08,0.93,3.95,1.85,5.6,2.78
				L243.58,19.97z"/>
			<path class="st0" d="M272.61,59.42c-3.45,0-6.52-0.56-9.23-1.67c-2.7-1.12-4.98-2.64-6.83-4.56c-1.85-1.93-3.26-4.13-4.21-6.62
				c-0.95-2.48-1.43-5.1-1.43-7.83c0-2.79,0.48-5.43,1.43-7.91c0.95-2.48,2.35-4.69,4.21-6.62c1.85-1.93,4.13-3.45,6.83-4.56
				c2.7-1.12,5.78-1.67,9.23-1.67c3.45,0,6.51,0.56,9.19,1.67c2.68,1.12,4.94,2.64,6.79,4.56c1.85,1.93,3.27,4.13,4.25,6.62
				c0.98,2.48,1.47,5.12,1.47,7.91c0,2.74-0.49,5.35-1.47,7.83c-0.98,2.48-2.39,4.69-4.25,6.62c-1.85,1.93-4.12,3.45-6.79,4.56
				C279.12,58.86,276.06,59.42,272.61,59.42z M263.58,38.73c0,2.05,0.4,3.85,1.2,5.4c0.8,1.55,1.86,2.75,3.2,3.6
				c1.34,0.85,2.88,1.27,4.63,1.27c1.7,0,3.23-0.44,4.59-1.31c1.36-0.87,2.43-2.09,3.2-3.64c0.77-1.55,1.16-3.32,1.16-5.32
				c0-2.05-0.39-3.85-1.16-5.4c-0.77-1.55-1.84-2.75-3.2-3.6c-1.36-0.85-2.9-1.27-4.59-1.27c-1.75,0-3.29,0.42-4.63,1.27
				c-1.34,0.85-2.41,2.05-3.2,3.6C263.98,34.88,263.58,36.68,263.58,38.73z"/>
			<path class="st0" d="M296.16,44.23V18.58h12.35v22.89c0,2.43,0.49,4.3,1.47,5.59c0.98,1.29,2.37,1.94,4.17,1.94
				c1.13,0,2.21-0.19,3.24-0.56c1.03-0.37,2.03-0.98,3.01-1.83c0.98-0.85,1.85-1.95,2.62-3.29V18.58h12.35v26.38
				c0,1.22,0.19,2.07,0.58,2.55c0.39,0.48,1.07,0.77,2.05,0.87v10.27c-1.13,0.21-2.12,0.36-2.97,0.46c-0.85,0.1-1.61,0.15-2.28,0.15
				c-2.16,0-3.89-0.45-5.17-1.34c-1.29-0.89-2.08-2.15-2.39-3.78l-0.23-2.44c-1.85,2.65-4.16,4.59-6.91,5.84
				c-2.75,1.25-5.83,1.87-9.23,1.87c-4.12,0-7.26-1.3-9.42-3.89C297.24,52.93,296.16,49.17,296.16,44.23z"/>
			<path class="st0" d="M366.8,28.69c-2.99,0-5.69,0.48-8.11,1.43c-2.42,0.95-4.17,2.36-5.25,4.21v24.32h-12.35V18.58h11.35v7.72
				c1.39-2.73,3.19-4.86,5.4-6.41c2.21-1.54,4.53-2.34,6.95-2.39c0.57,0,0.99,0,1.27,0c0.28,0,0.53,0.03,0.73,0.08V28.69z"/>
			<path class="st0" d="M387.18,59.42c-3.45,0-6.51-0.56-9.19-1.67c-2.68-1.12-4.95-2.64-6.83-4.56c-1.88-1.93-3.31-4.13-4.29-6.62
				c-0.98-2.48-1.47-5.12-1.47-7.91c0-3.65,0.86-7.05,2.59-10.19c1.72-3.14,4.21-5.68,7.45-7.61s7.15-2.89,11.74-2.89
				c4.63,0,8.56,0.99,11.77,2.97c3.22,1.98,5.62,4.57,7.22,7.76l-12.04,3.63c-0.77-1.24-1.76-2.19-2.97-2.86
				c-1.21-0.67-2.56-1-4.05-1c-1.7,0-3.23,0.42-4.59,1.27c-1.36,0.85-2.45,2.02-3.24,3.52c-0.8,1.5-1.2,3.3-1.2,5.4
				c0,2.05,0.41,3.85,1.24,5.4c0.82,1.55,1.9,2.76,3.24,3.64c1.34,0.87,2.86,1.31,4.55,1.31c1.03,0,1.99-0.17,2.9-0.5
				c0.9-0.33,1.72-0.81,2.47-1.43c0.75-0.62,1.32-1.31,1.74-2.08l12.04,3.71c-0.98,2.06-2.38,3.9-4.21,5.52
				c-1.83,1.62-3.98,2.9-6.45,3.82C393.13,58.96,390.32,59.42,387.18,59.42z"/>
			<path class="st0" d="M426.94,59.42c-3.45,0-6.51-0.55-9.19-1.64c-2.68-1.09-4.95-2.58-6.83-4.47c-1.88-1.88-3.31-4.06-4.29-6.53
				c-0.98-2.47-1.47-5.05-1.47-7.75c0-3.84,0.86-7.34,2.59-10.5c1.72-3.16,4.21-5.71,7.45-7.66c3.24-1.95,7.15-2.92,11.74-2.92
				c4.58,0,8.48,0.96,11.7,2.89c3.22,1.93,5.67,4.45,7.37,7.56c1.7,3.12,2.55,6.5,2.55,10.15c0,0.71-0.04,1.41-0.12,2.09
				c-0.08,0.68-0.14,1.28-0.19,1.79H418.3c0.15,1.75,0.66,3.23,1.51,4.43c0.85,1.2,1.94,2.11,3.28,2.74
				c1.34,0.63,2.75,0.94,4.25,0.94c1.85,0,3.59-0.44,5.21-1.31c1.62-0.87,2.74-2.06,3.36-3.55l10.5,2.93
				c-1.03,2.11-2.48,3.98-4.36,5.6c-1.88,1.62-4.09,2.9-6.64,3.82C432.85,58.96,430.03,59.42,426.94,59.42z M417.99,34.87h17.6
				c-0.21-1.62-0.69-3.03-1.47-4.24c-0.77-1.2-1.8-2.14-3.09-2.8c-1.29-0.66-2.7-1-4.25-1c-1.6,0-3.02,0.33-4.28,1
				c-1.26,0.66-2.28,1.6-3.05,2.8C418.68,31.84,418.19,33.25,417.99,34.87z"/>
		</g>
	</g>
	<g>
		<g>
			<path class="st1" d="M109.75,73.03l17.15,53.2l16.95-53.2h17.77l-26.5,72.92h-16.53l-26.7-72.92H109.75z"/>
			<path class="st1" d="M161.92,85.87V70.97h16.43v14.89H161.92z M161.92,145.94V92.03h16.43v53.92H161.92z"/>
			<path class="st1" d="M181.43,119.34c0-5.19,1.03-9.86,3.08-14.01c2.05-4.15,4.86-7.44,8.42-9.87c3.56-2.43,7.67-3.64,12.32-3.64
				c3.76,0,7.19,0.91,10.27,2.72c3.08,1.81,5.41,4.19,6.98,7.14V70.97h16.43v56.69c0,1.64,0.27,2.79,0.82,3.44
				c0.55,0.65,1.44,1.04,2.67,1.18v13.66c-2.88,0.55-5.2,0.82-6.98,0.82c-2.81,0-5.08-0.62-6.83-1.85
				c-1.75-1.23-2.82-2.94-3.23-5.13l-0.31-2.77c-1.92,3.36-4.52,5.85-7.81,7.5c-3.29,1.64-6.74,2.46-10.37,2.46
				c-3.7,0-7.1-0.69-10.22-2.07c-3.12-1.38-5.82-3.32-8.11-5.82c-2.29-2.5-4.06-5.43-5.29-8.8
				C182.05,126.9,181.43,123.26,181.43,119.34z M222.61,125.83v-10.97c-0.69-1.79-1.66-3.36-2.93-4.69
				c-1.27-1.33-2.7-2.39-4.31-3.19c-1.61-0.8-3.23-1.2-4.88-1.2c-1.78,0-3.41,0.37-4.88,1.1c-1.47,0.73-2.76,1.74-3.85,3.04
				c-1.1,1.3-1.93,2.77-2.52,4.44c-0.58,1.66-0.87,3.42-0.87,5.28c0,1.93,0.32,3.71,0.98,5.34c0.65,1.63,1.56,3.06,2.72,4.29
				c1.16,1.23,2.53,2.18,4.11,2.84c1.57,0.66,3.29,1,5.14,1c1.16,0,2.29-0.18,3.39-0.55c1.09-0.37,2.14-0.85,3.13-1.45
				c0.99-0.6,1.9-1.36,2.72-2.29C221.38,127.89,222.06,126.89,222.61,125.83z"/>
			<path class="st1" d="M272.32,146.97c-4.59,0-8.66-0.73-12.22-2.18c-3.56-1.46-6.59-3.44-9.09-5.94c-2.5-2.5-4.4-5.4-5.7-8.68
				c-1.3-3.28-1.95-6.72-1.95-10.31c0-5.11,1.15-9.77,3.44-13.97c2.29-4.2,5.6-7.6,9.91-10.18c4.31-2.59,9.52-3.88,15.61-3.88
				c6.09,0,11.28,1.28,15.56,3.84c4.28,2.56,7.55,5.91,9.81,10.06c2.26,4.15,3.39,8.65,3.39,13.5c0,0.94-0.05,1.87-0.15,2.78
				c-0.1,0.91-0.19,1.7-0.26,2.37h-39.85c0.21,2.33,0.87,4.29,2,5.89c1.13,1.6,2.58,2.81,4.36,3.64c1.78,0.83,3.66,1.25,5.65,1.25
				c2.46,0,4.77-0.58,6.93-1.75c2.16-1.16,3.65-2.74,4.47-4.72l13.97,3.9c-1.37,2.81-3.31,5.29-5.8,7.45
				c-2.5,2.16-5.44,3.85-8.83,5.08C280.17,146.35,276.43,146.97,272.32,146.97z M260.41,114.31h23.42
				c-0.27-2.15-0.92-4.03-1.95-5.63c-1.03-1.6-2.4-2.84-4.11-3.72c-1.71-0.88-3.59-1.32-5.65-1.32c-2.12,0-4.02,0.44-5.7,1.32
				c-1.68,0.88-3.03,2.12-4.06,3.72C261.33,110.28,260.68,112.16,260.41,114.31z"/>
			<path class="st1" d="M329.11,146.97c-4.59,0-8.68-0.74-12.27-2.23c-3.59-1.48-6.62-3.51-9.09-6.07c-2.46-2.56-4.33-5.5-5.6-8.8
				c-1.27-3.31-1.9-6.78-1.9-10.42c0-3.71,0.63-7.22,1.9-10.53c1.27-3.31,3.13-6.24,5.6-8.8c2.46-2.56,5.49-4.59,9.09-6.07
				c3.59-1.48,7.69-2.23,12.27-2.23c4.59,0,8.66,0.74,12.22,2.23c3.56,1.48,6.57,3.51,9.04,6.07c2.46,2.56,4.35,5.5,5.65,8.8
				c1.3,3.31,1.95,6.82,1.95,10.53c0,3.64-0.65,7.12-1.95,10.42c-1.3,3.31-3.18,6.24-5.65,8.8c-2.46,2.56-5.48,4.59-9.04,6.07
				C337.77,146.23,333.7,146.97,329.11,146.97z M317.09,119.45c0,2.72,0.53,5.12,1.59,7.18c1.06,2.06,2.48,3.66,4.26,4.79
				c1.78,1.13,3.83,1.69,6.16,1.69c2.26,0,4.3-0.58,6.11-1.74c1.81-1.16,3.23-2.78,4.26-4.84c1.03-2.06,1.54-4.42,1.54-7.08
				c0-2.72-0.51-5.12-1.54-7.18c-1.03-2.06-2.45-3.66-4.26-4.79c-1.81-1.13-3.85-1.69-6.11-1.69c-2.33,0-4.38,0.56-6.16,1.69
				c-1.78,1.13-3.2,2.73-4.26,4.79C317.62,114.33,317.09,116.72,317.09,119.45z"/>
		</g>
	</g>
	<g>
		<g>
			<path class="st1" d="M335.36,159.13c0-4.45,0.82-8.81,2.46-13.09c1.64-4.28,4.04-8.16,7.19-11.66c3.15-3.49,6.98-6.28,11.5-8.37
				c4.52-2.09,9.65-3.13,15.4-3.13c6.85,0,12.79,1.47,17.82,4.42c5.03,2.94,8.78,6.78,11.25,11.5l-12.94,9.04
				c-1.1-2.6-2.55-4.62-4.36-6.06c-1.81-1.44-3.8-2.45-5.96-3.03c-2.16-0.58-4.23-0.87-6.21-0.87c-3.22,0-6.03,0.63-8.42,1.9
				c-2.4,1.27-4.38,2.96-5.96,5.08c-1.58,2.12-2.74,4.49-3.49,7.09c-0.75,2.6-1.13,5.2-1.13,7.81c0,2.88,0.44,5.65,1.34,8.32
				c0.89,2.67,2.17,5.03,3.85,7.09c1.68,2.05,3.71,3.68,6.11,4.88c2.4,1.2,5.03,1.8,7.91,1.8c2.05,0,4.14-0.34,6.26-1.03
				c2.12-0.68,4.09-1.76,5.91-3.23c1.81-1.47,3.2-3.41,4.16-5.8l13.76,8.11c-1.44,3.56-3.8,6.61-7.09,9.14
				c-3.29,2.53-7,4.47-11.14,5.8c-4.14,1.33-8.23,2-12.27,2c-5.27,0-10.12-1.08-14.53-3.23c-4.42-2.16-8.22-5.03-11.4-8.63
				c-3.18-3.59-5.65-7.63-7.39-12.12C336.23,168.36,335.36,163.79,335.36,159.13z"/>
			<path class="st1" d="M455.72,196.31h-16.43v-29.68c0-3.42-0.7-5.93-2.11-7.55c-1.4-1.61-3.27-2.41-5.6-2.41
				c-1.23,0-2.62,0.38-4.16,1.14c-1.54,0.76-2.96,1.83-4.26,3.21c-1.3,1.38-2.29,3-2.98,4.84v30.45h-16.43v-74.97h16.43v30.76
				c1.99-3.17,4.6-5.61,7.86-7.33c3.25-1.72,6.83-2.58,10.73-2.58c3.7,0,6.66,0.61,8.88,1.82c2.22,1.22,3.92,2.82,5.08,4.81
				c1.16,1.99,1.95,4.16,2.36,6.52c0.41,2.36,0.62,4.69,0.62,6.98V196.31z"/>
			<path class="st1" d="M458.08,180.43c0-3.51,0.99-6.58,2.98-9.21c1.99-2.63,4.72-4.71,8.22-6.22s7.5-2.28,12.02-2.28
				c2.19,0,4.35,0.19,6.47,0.57c2.12,0.38,3.97,0.91,5.55,1.59v-2.36c0-2.85-0.89-5.03-2.67-6.55c-1.78-1.52-4.49-2.29-8.11-2.29
				c-3.01,0-5.84,0.51-8.47,1.54c-2.64,1.03-5.43,2.5-8.37,4.42l-4.93-10.48c3.56-2.33,7.27-4.07,11.14-5.24
				c3.87-1.16,7.96-1.75,12.27-1.75c8.08,0,14.36,1.9,18.84,5.69c4.48,3.79,6.73,9.28,6.73,16.46v13.79c0,1.61,0.26,2.74,0.77,3.37
				c0.51,0.64,1.42,1.02,2.72,1.16v13.66c-1.37,0.27-2.65,0.48-3.85,0.62c-1.2,0.14-2.24,0.21-3.13,0.21
				c-3.08,0-5.43-0.62-7.04-1.85c-1.61-1.23-2.62-2.91-3.03-5.03l-0.31-2.36c-2.4,3.08-5.26,5.43-8.57,7.03
				c-3.32,1.61-6.8,2.41-10.42,2.41c-3.56,0-6.76-0.74-9.6-2.23c-2.84-1.48-5.08-3.51-6.73-6.07
				C458.9,186.47,458.08,183.6,458.08,180.43z M490.74,182.36c0.75-0.59,1.37-1.25,1.85-1.98c0.48-0.73,0.72-1.42,0.72-2.08v-4.65
				c-1.37-0.53-2.89-0.94-4.57-1.24c-1.68-0.3-3.24-0.45-4.67-0.45c-3.01,0-5.51,0.64-7.5,1.93c-1.99,1.29-2.98,2.98-2.98,5.1
				c0,1.19,0.34,2.28,1.03,3.27c0.68,0.99,1.63,1.78,2.82,2.37c1.2,0.59,2.62,0.89,4.26,0.89c1.64,0,3.29-0.3,4.93-0.89
				C488.28,184.04,489.64,183.28,490.74,182.36z"/>
			<path class="st1" d="M550.92,193.43c-1.51,0.62-3.17,1.23-4.98,1.85c-1.81,0.62-3.71,1.11-5.7,1.49
				c-1.99,0.37-3.94,0.56-5.85,0.56c-2.74,0-5.25-0.46-7.55-1.37c-2.29-0.91-4.11-2.41-5.44-4.5c-1.34-2.09-2-4.86-2-8.3v-27.73
				h-6.88v-12.43h6.88v-17.15h16.43v17.15h10.99v12.43h-10.99v21.99c0,1.74,0.44,3,1.34,3.77c0.89,0.77,2.02,1.15,3.39,1.15
				c1.16,0,2.41-0.21,3.75-0.62c1.33-0.41,2.48-0.85,3.44-1.34L550.92,193.43z"/>
		</g>
	</g>
	<path class="st1" d="M227.05,192.2v72.92h-16.84v-29.88h-29.06v29.88H164.3V192.2h16.84v28.24h29.06V192.2H227.05z"/>
	<path class="st1" d="M259.4,266.14c-4.59,0-8.66-0.73-12.22-2.18c-3.56-1.46-6.59-3.44-9.09-5.94c-2.5-2.5-4.4-5.4-5.7-8.68
		c-1.3-3.28-1.95-6.72-1.95-10.31c0-5.11,1.15-9.77,3.44-13.97c2.29-4.2,5.6-7.6,9.91-10.18c4.31-2.59,9.52-3.88,15.61-3.88
		c6.09,0,11.28,1.28,15.56,3.84c4.28,2.56,7.55,5.91,9.81,10.06c2.26,4.15,3.39,8.65,3.39,13.5c0,0.94-0.05,1.87-0.15,2.78
		s-0.19,1.7-0.26,2.38H247.9c0.21,2.33,0.87,4.29,2,5.89c1.13,1.6,2.58,2.81,4.36,3.64c1.78,0.83,3.66,1.25,5.65,1.25
		c2.46,0,4.78-0.58,6.93-1.75c2.16-1.16,3.65-2.74,4.47-4.72l13.97,3.9c-1.37,2.81-3.3,5.29-5.8,7.45c-2.5,2.16-5.44,3.85-8.83,5.08
		C267.26,265.53,263.51,266.14,259.4,266.14z M247.49,233.49h23.42c-0.28-2.16-0.93-4.03-1.95-5.63c-1.03-1.6-2.4-2.84-4.11-3.72
		c-1.71-0.88-3.59-1.32-5.65-1.32c-2.12,0-4.02,0.44-5.7,1.32c-1.68,0.88-3.03,2.12-4.06,3.72
		C248.41,229.45,247.76,231.33,247.49,233.49z"/>
	<path class="st1" d="M290.31,190.15h16.43v55.86c0,2.26,0.41,3.88,1.23,4.83c0.82,0.96,1.99,1.44,3.49,1.44
		c1.03,0,2.07-0.15,3.13-0.46c1.06-0.31,2-0.67,2.82-1.08l2.16,12.32c-2.05,0.96-4.42,1.71-7.09,2.26c-2.67,0.55-5.17,0.82-7.5,0.82
		c-4.66,0-8.27-1.25-10.83-3.75c-2.57-2.5-3.85-6.05-3.85-10.64V190.15z"/>
	<path class="st1" d="M349.98,266.14c-4.04,0-7.57-0.86-10.58-2.58c-3.01-1.72-5.38-4.06-7.09-7.03v30.46h-16.43v-75.18h14.27v8.79
		c1.99-3.04,4.48-5.4,7.5-7.08c3.01-1.69,6.54-2.53,10.58-2.53c3.63,0,6.97,0.71,10.01,2.13c3.05,1.42,5.7,3.37,7.96,5.87
		c2.26,2.5,4,5.4,5.24,8.7c1.23,3.31,1.85,6.88,1.85,10.73c0,5.26-0.99,9.99-2.98,14.17c-1.99,4.18-4.74,7.49-8.27,9.92
		C358.52,264.93,354.5,266.14,349.98,266.14z M344.44,252.28c1.78,0,3.41-0.38,4.88-1.15c1.47-0.76,2.76-1.78,3.85-3.04
		c1.09-1.26,1.93-2.74,2.52-4.44c0.58-1.7,0.87-3.47,0.87-5.33c0-1.93-0.33-3.69-0.98-5.28c-0.65-1.6-1.56-3.01-2.72-4.24
		c-1.16-1.23-2.53-2.18-4.11-2.84c-1.58-0.66-3.29-1-5.14-1c-1.1,0-2.21,0.17-3.34,0.49c-1.13,0.33-2.19,0.8-3.18,1.42
		c-0.99,0.62-1.9,1.36-2.72,2.21c-0.82,0.85-1.51,1.84-2.05,2.95v10.93c0.75,1.78,1.75,3.37,2.98,4.75
		c1.23,1.39,2.63,2.49,4.21,3.32C341.08,251.87,342.72,252.28,344.44,252.28z"/>
	<path class="st1" d="M376.89,265.12V192.2h27.21c8.01,0,14.7,1.63,20.08,4.88c5.37,3.25,9.43,7.63,12.17,13.15
		c2.74,5.51,4.11,11.62,4.11,18.33c0,7.39-1.51,13.83-4.52,19.31c-3.01,5.48-7.24,9.72-12.68,12.73
		c-5.44,3.01-11.83,4.52-19.15,4.52H376.89z M423.31,228.56c0-4.24-0.75-7.99-2.26-11.25c-1.51-3.25-3.7-5.78-6.57-7.6
		c-2.88-1.81-6.33-2.72-10.37-2.72h-10.37v43.34h10.37c4.11,0,7.58-0.94,10.42-2.82c2.84-1.88,5.01-4.48,6.52-7.81
		C422.56,236.38,423.31,232.67,423.31,228.56z"/>
	<path class="st1" d="M470.7,266.14c-4.59,0-8.66-0.73-12.22-2.18c-3.56-1.46-6.59-3.44-9.09-5.94c-2.5-2.5-4.4-5.4-5.7-8.68
		c-1.3-3.28-1.95-6.72-1.95-10.31c0-5.11,1.15-9.77,3.44-13.97c2.29-4.2,5.6-7.6,9.91-10.18s9.52-3.88,15.61-3.88
		c6.09,0,11.28,1.28,15.56,3.84c4.28,2.56,7.55,5.91,9.81,10.06c2.26,4.15,3.39,8.65,3.39,13.5c0,0.94-0.05,1.87-0.15,2.78
		s-0.19,1.7-0.26,2.38H459.2c0.21,2.33,0.87,4.29,2,5.89c1.13,1.6,2.58,2.81,4.36,3.64c1.78,0.83,3.66,1.25,5.65,1.25
		c2.46,0,4.78-0.58,6.93-1.75c2.16-1.16,3.65-2.74,4.47-4.72l13.97,3.9c-1.37,2.81-3.3,5.29-5.8,7.45c-2.5,2.16-5.44,3.85-8.83,5.08
		C478.56,265.53,474.81,266.14,470.7,266.14z M458.79,233.49h23.42c-0.28-2.16-0.93-4.03-1.95-5.63c-1.03-1.6-2.4-2.84-4.11-3.72
		c-1.71-0.88-3.59-1.32-5.65-1.32c-2.12,0-4.02,0.44-5.7,1.32c-1.68,0.88-3.03,2.12-4.06,3.72
		C459.71,229.45,459.06,231.33,458.79,233.49z"/>
	<path class="st1" d="M522.46,266.14c-4.59,0-9.07-0.75-13.45-2.26c-4.38-1.5-8.08-3.73-11.09-6.68l5.65-10.37
		c3.29,2.4,6.49,4.21,9.6,5.44c3.11,1.23,6.04,1.85,8.78,1.85c2.12,0,3.76-0.32,4.93-0.97c1.16-0.65,1.75-1.65,1.75-3
		c0-1.01-0.34-1.8-1.03-2.38c-0.69-0.57-1.73-1.1-3.13-1.57c-1.4-0.47-3.13-0.98-5.19-1.52c-4.11-1.35-7.53-2.66-10.27-3.95
		c-2.74-1.28-4.79-2.85-6.16-4.7c-1.37-1.85-2.05-4.27-2.05-7.24c0-3.57,0.91-6.69,2.72-9.36c1.81-2.66,4.4-4.74,7.75-6.22
		c3.35-1.48,7.36-2.23,12.02-2.23c3.7,0,7.31,0.58,10.83,1.75c3.53,1.16,6.83,3.12,9.91,5.85l-6.37,10.27
		c-3.08-2.12-5.82-3.66-8.22-4.62c-2.4-0.96-4.72-1.44-6.98-1.44c-1.16,0-2.23,0.14-3.18,0.4c-0.96,0.27-1.73,0.72-2.31,1.36
		c-0.58,0.64-0.87,1.46-0.87,2.47c0,1.01,0.29,1.81,0.87,2.42c0.58,0.6,1.51,1.12,2.77,1.56c1.27,0.44,2.86,0.96,4.78,1.56
		c4.45,1.28,8.15,2.57,11.09,3.88c2.94,1.31,5.15,2.92,6.62,4.84c1.47,1.92,2.21,4.45,2.21,7.61c0,5.38-1.97,9.59-5.91,12.65
		C534.6,264.62,529.24,266.14,522.46,266.14z"/>
	<path class="st1" d="M583.98,265.12l-14.07-21.32l-5.75,5.79v15.53h-16.43v-74.97h16.43v43.7l18.28-22.03h17.36l-19.41,22.94
		l21.05,30.35H583.98z"/>
	<g>
		<g>
			<path class="st0" d="M271.82,202.2l-21.67-23.1c-1.86-1.97-3.35-3.65-4.45-5.05c-1.11-1.4-1.89-2.7-2.36-3.91
				c-0.47-1.2-0.7-2.5-0.7-3.9c0-2.36,0.58-4.41,1.73-6.14c1.15-1.73,2.74-3.06,4.75-4c2.02-0.94,4.29-1.41,6.81-1.41
				c2.26,0,4.39,0.38,6.38,1.15c1.99,0.77,3.63,1.94,4.92,3.51c1.28,1.58,1.93,3.59,1.93,6.04c0,2.1-0.5,4.02-1.5,5.74
				c-1,1.73-2.35,3.32-4.05,4.76c-1.71,1.44-3.62,2.8-5.75,4.07c-1.55,0.91-2.94,1.79-4.15,2.64c-1.22,0.85-2.17,1.73-2.86,2.64
				c-0.69,0.91-1.03,1.91-1.03,3c0,0.91,0.28,1.84,0.83,2.77c0.55,0.93,1.37,1.71,2.46,2.31c1.08,0.61,2.38,0.91,3.89,0.91
				c1.68,0,3.37-0.43,5.05-1.3c1.68-0.86,3.22-2.11,4.62-3.75c1.4-1.64,2.5-3.63,3.32-5.98c0.82-2.35,1.23-5.01,1.23-7.98h8.57
				c0,4.48-0.69,8.42-2.06,11.83c-1.37,3.41-3.2,6.27-5.48,8.57c-2.28,2.31-4.84,4.03-7.68,5.18c-2.84,1.15-5.74,1.73-8.71,1.73
				c-3.41,0-6.34-0.69-8.77-2.07c-2.44-1.38-4.29-3.15-5.55-5.32c-1.26-2.17-1.89-4.47-1.89-6.93c0-2.49,0.57-4.67,1.73-6.53
				c1.15-1.86,2.6-3.49,4.35-4.89c1.75-1.4,3.49-2.62,5.22-3.68c1.9-1.21,3.48-2.2,4.72-2.96c1.24-0.76,2.17-1.49,2.79-2.18
				c0.62-0.69,0.93-1.5,0.93-2.41c0-0.95-0.32-1.71-0.96-2.28c-0.64-0.56-1.47-0.85-2.49-0.85c-0.71,0-1.35,0.16-1.93,0.49
				c-0.58,0.33-1.01,0.74-1.3,1.24c-0.29,0.5-0.43,1.07-0.43,1.72c0,0.61,0.19,1.18,0.56,1.72c0.38,0.54,1.02,1.25,1.93,2.12
				s2.16,2.15,3.76,3.84l27.25,28.62H271.82z"/>
		</g>
	</g>
</g>
</svg>
