<?xml version="1.0" encoding="utf-8"?>
<!-- Generator: Adobe Illustrator 27.0.1, SVG Export Plug-In . SVG Version: 6.00 Build 0)  -->
<svg version="1.1" id="Layer_1" xmlns="http://www.w3.org/2000/svg" xmlns:xlink="http://www.w3.org/1999/xlink" x="0px" y="0px"
	 viewBox="0 0 500 290.95" style="enable-background:new 0 0 500 290.95;" xml:space="preserve">
<style type="text/css">
	.st0{fill:#4285F4;}
	.st1{fill:#001588;}
</style>
<g>
	<g>
		<g>
			<path class="st0" d="M32.5,57.18c-3.69,0-7.02-0.7-9.99-2.11c-2.97-1.41-5.53-3.3-7.68-5.67c-2.14-2.37-3.79-5.05-4.94-8.02
				c-1.15-2.97-1.73-6.05-1.73-9.23c0-3.27,0.61-6.39,1.83-9.34c1.22-2.95,2.93-5.59,5.12-7.92c2.19-2.33,4.78-4.16,7.78-5.5
				c3-1.34,6.27-2.01,9.82-2.01c3.64,0,6.95,0.7,9.92,2.11c2.97,1.41,5.53,3.31,7.68,5.71c2.14,2.4,3.79,5.08,4.94,8.06
				c1.15,2.97,1.73,6.01,1.73,9.09c0,3.27-0.6,6.39-1.8,9.34c-1.2,2.95-2.9,5.59-5.12,7.92c-2.21,2.33-4.81,4.17-7.78,5.53
				C39.31,56.5,36.05,57.18,32.5,57.18z M19.71,32.29c0,1.89,0.28,3.72,0.83,5.5c0.55,1.78,1.37,3.35,2.45,4.74
				c1.08,1.38,2.43,2.49,4.05,3.32c1.61,0.83,3.46,1.24,5.53,1.24c2.17,0,4.06-0.43,5.67-1.28c1.61-0.85,2.95-1.99,4.01-3.42
				c1.06-1.43,1.86-3.03,2.39-4.81c0.53-1.77,0.8-3.58,0.8-5.43c0-1.89-0.28-3.71-0.83-5.46c-0.55-1.75-1.38-3.33-2.49-4.74
				c-1.11-1.41-2.47-2.5-4.08-3.29c-1.61-0.78-3.44-1.18-5.46-1.18c-2.17,0-4.05,0.42-5.64,1.25c-1.59,0.83-2.93,1.95-4.01,3.35
				c-1.08,1.41-1.89,3-2.42,4.77C19.97,28.63,19.71,30.44,19.71,32.29z"/>
			<path class="st0" d="M81.81,57.53c-2.72,0-5.1-0.58-7.12-1.74c-2.03-1.16-3.62-2.74-4.77-4.74v20.51H58.85V20.94h9.61v5.92
				c1.34-2.04,3.02-3.63,5.05-4.77c2.03-1.14,4.4-1.7,7.12-1.7c2.44,0,4.69,0.48,6.74,1.43c2.05,0.95,3.84,2.27,5.36,3.95
				c1.52,1.68,2.7,3.63,3.53,5.86c0.83,2.23,1.25,4.63,1.25,7.22c0,3.54-0.67,6.72-2.01,9.54c-1.34,2.82-3.19,5.04-5.57,6.68
				C87.56,56.71,84.85,57.53,81.81,57.53z M78.08,48.19c1.2,0,2.29-0.26,3.28-0.77c0.99-0.51,1.86-1.2,2.59-2.05
				c0.74-0.85,1.3-1.85,1.69-2.99c0.39-1.14,0.59-2.34,0.59-3.59c0-1.3-0.22-2.48-0.66-3.56c-0.44-1.07-1.05-2.03-1.83-2.85
				c-0.78-0.83-1.71-1.47-2.77-1.91c-1.06-0.45-2.21-0.67-3.46-0.67c-0.74,0-1.49,0.11-2.25,0.33c-0.76,0.22-1.48,0.54-2.14,0.96
				c-0.67,0.42-1.28,0.92-1.83,1.49c-0.55,0.58-1.01,1.24-1.38,1.99v7.36c0.51,1.2,1.18,2.27,2.01,3.2
				c0.83,0.93,1.77,1.68,2.84,2.23C75.82,47.92,76.92,48.19,78.08,48.19z"/>
			<path class="st0" d="M117.01,57.53c-3.09,0-5.83-0.49-8.23-1.47c-2.4-0.98-4.44-2.31-6.12-4c-1.68-1.69-2.96-3.64-3.84-5.85
				c-0.88-2.21-1.31-4.52-1.31-6.94c0-3.44,0.77-6.58,2.32-9.41c1.54-2.83,3.77-5.12,6.67-6.86c2.9-1.74,6.41-2.61,10.51-2.61
				c4.1,0,7.6,0.86,10.48,2.59c2.88,1.72,5.08,3.98,6.61,6.77c1.52,2.79,2.28,5.82,2.28,9.09c0,0.64-0.03,1.26-0.1,1.87
				c-0.07,0.61-0.13,1.15-0.17,1.6h-26.83c0.14,1.57,0.59,2.89,1.35,3.97c0.76,1.08,1.74,1.89,2.94,2.45
				c1.2,0.56,2.47,0.84,3.8,0.84c1.66,0,3.22-0.39,4.67-1.18c1.45-0.78,2.46-1.84,3.01-3.18l9.4,2.63
				c-0.92,1.89-2.23,3.56-3.91,5.01c-1.68,1.45-3.67,2.59-5.95,3.42C122.3,57.11,119.78,57.53,117.01,57.53z M108.99,35.54h15.77
				c-0.18-1.45-0.62-2.72-1.31-3.79c-0.69-1.08-1.61-1.91-2.77-2.51c-1.15-0.59-2.42-0.89-3.8-0.89c-1.43,0-2.71,0.3-3.84,0.89
				c-1.13,0.59-2.04,1.43-2.73,2.51C109.61,32.82,109.17,34.09,108.99,35.54z"/>
			<path class="st0" d="M172.96,56.84h-11.07V36.85c0-2.35-0.45-4.05-1.35-5.11c-0.9-1.06-2.09-1.59-3.56-1.59
				c-1.01,0-2.05,0.27-3.11,0.8c-1.06,0.53-2.02,1.27-2.87,2.2c-0.85,0.93-1.51,2-1.97,3.19v20.51h-11.06V20.94h9.96v6.12
				c0.92-1.41,2.08-2.61,3.46-3.61c1.38-1,2.97-1.76,4.77-2.28c1.8-0.52,3.76-0.78,5.88-0.78c2.35,0,4.25,0.42,5.71,1.26
				c1.45,0.84,2.56,1.94,3.32,3.3c0.76,1.36,1.27,2.83,1.52,4.39c0.25,1.57,0.38,3.1,0.38,4.6V56.84z"/>
			<path class="st0" d="M219.85,22.19c-0.14-0.23-0.62-0.59-1.45-1.07c-0.83-0.48-1.87-1-3.11-1.56s-2.61-1.04-4.08-1.45
				c-1.48-0.41-2.95-0.62-4.43-0.62c-1.94,0-3.44,0.33-4.5,1c-1.06,0.66-1.59,1.68-1.59,3.06c0,1.1,0.4,1.97,1.21,2.61
				c0.81,0.64,1.97,1.2,3.49,1.68c1.52,0.48,3.39,1.04,5.6,1.68c3.13,0.82,5.86,1.82,8.16,2.99c2.3,1.17,4.07,2.67,5.29,4.5
				c1.22,1.83,1.83,4.26,1.83,7.28c0,2.75-0.51,5.07-1.52,6.97c-1.02,1.9-2.39,3.43-4.12,4.6c-1.73,1.17-3.7,2.01-5.91,2.54
				c-2.21,0.53-4.5,0.79-6.85,0.79c-2.4,0-4.85-0.24-7.37-0.73c-2.51-0.48-4.92-1.18-7.23-2.08c-2.31-0.9-4.43-1.99-6.36-3.28
				l4.98-9.89c0.18,0.23,0.78,0.66,1.8,1.28c1.01,0.62,2.27,1.27,3.77,1.94c1.5,0.67,3.17,1.26,5.01,1.76
				c1.84,0.51,3.71,0.76,5.6,0.76c2.03,0,3.54-0.32,4.53-0.95c0.99-0.63,1.49-1.51,1.49-2.64c0-1.24-0.52-2.2-1.56-2.89
				c-1.04-0.69-2.44-1.31-4.22-1.86c-1.78-0.55-3.82-1.17-6.12-1.86c-3-0.92-5.48-1.95-7.43-3.09c-1.96-1.15-3.41-2.54-4.36-4.19
				c-0.95-1.65-1.42-3.71-1.42-6.19c0-3.44,0.82-6.34,2.46-8.7c1.64-2.36,3.84-4.15,6.6-5.36c2.77-1.21,5.79-1.82,9.06-1.82
				c2.31,0,4.53,0.28,6.67,0.83c2.14,0.55,4.15,1.25,6.02,2.08c1.87,0.83,3.54,1.66,5.01,2.49L219.85,22.19z"/>
			<path class="st0" d="M245.85,57.53c-3.09,0-5.84-0.5-8.26-1.5c-2.42-1-4.46-2.36-6.12-4.09c-1.66-1.73-2.92-3.7-3.77-5.93
				c-0.85-2.23-1.28-4.57-1.28-7.02c0-2.5,0.43-4.86,1.28-7.09c0.85-2.23,2.11-4.2,3.77-5.93c1.66-1.73,3.7-3.09,6.12-4.09
				c2.42-1,5.17-1.5,8.26-1.5c3.09,0,5.83,0.5,8.23,1.5c2.4,1,4.43,2.36,6.09,4.09c1.66,1.73,2.93,3.7,3.8,5.93
				c0.87,2.23,1.31,4.59,1.31,7.09c0,2.45-0.44,4.79-1.31,7.02c-0.88,2.23-2.14,4.2-3.8,5.93c-1.66,1.73-3.69,3.09-6.09,4.09
				C251.68,57.03,248.94,57.53,245.85,57.53z M237.76,39c0,1.83,0.36,3.45,1.07,4.83c0.71,1.39,1.67,2.46,2.87,3.22
				c1.2,0.76,2.58,1.14,4.15,1.14c1.52,0,2.89-0.39,4.12-1.17c1.22-0.78,2.18-1.87,2.87-3.26c0.69-1.39,1.04-2.98,1.04-4.77
				c0-1.84-0.35-3.45-1.04-4.83c-0.69-1.39-1.65-2.46-2.87-3.22c-1.22-0.76-2.59-1.14-4.12-1.14c-1.57,0-2.95,0.38-4.15,1.14
				c-1.2,0.76-2.16,1.84-2.87,3.22C238.12,35.55,237.76,37.16,237.76,39z"/>
			<path class="st0" d="M266.94,43.92V20.94h11.07v20.5c0,2.18,0.44,3.85,1.31,5.01c0.88,1.16,2.12,1.74,3.73,1.74
				c1.01,0,1.98-0.17,2.9-0.5c0.92-0.33,1.82-0.88,2.7-1.64c0.87-0.76,1.66-1.74,2.35-2.95V20.94h11.07v23.63
				c0,1.09,0.17,1.85,0.52,2.28c0.35,0.43,0.96,0.69,1.83,0.78v9.2c-1.02,0.18-1.9,0.32-2.66,0.41c-0.76,0.09-1.44,0.14-2.04,0.14
				c-1.94,0-3.48-0.4-4.63-1.2c-1.15-0.8-1.87-1.93-2.14-3.38l-0.21-2.19c-1.66,2.37-3.72,4.12-6.19,5.23
				c-2.47,1.12-5.22,1.67-8.26,1.67c-3.69,0-6.5-1.16-8.44-3.49C267.91,51.72,266.94,48.34,266.94,43.92z"/>
			<path class="st0" d="M330.22,30c-2.68,0-5.1,0.43-7.26,1.28c-2.17,0.85-3.73,2.11-4.7,3.77v21.78h-11.06V20.94h10.17v6.92
				c1.24-2.44,2.86-4.36,4.84-5.74c1.98-1.38,4.06-2.1,6.22-2.14c0.51,0,0.89,0,1.14,0c0.25,0,0.47,0.02,0.66,0.07V30z"/>
			<path class="st0" d="M348.48,57.53c-3.09,0-5.83-0.5-8.23-1.5c-2.4-1-4.44-2.36-6.12-4.09c-1.68-1.73-2.96-3.7-3.84-5.93
				c-0.88-2.23-1.31-4.59-1.31-7.09c0-3.27,0.77-6.31,2.32-9.13c1.54-2.82,3.77-5.09,6.67-6.81c2.9-1.73,6.41-2.59,10.51-2.59
				c4.15,0,7.66,0.89,10.55,2.66c2.88,1.78,5.04,4.09,6.47,6.95l-10.79,3.25c-0.69-1.11-1.58-1.96-2.66-2.56
				c-1.08-0.6-2.29-0.9-3.63-0.9c-1.52,0-2.89,0.38-4.11,1.14c-1.22,0.76-2.19,1.81-2.91,3.16c-0.72,1.34-1.07,2.95-1.07,4.83
				c0,1.84,0.37,3.45,1.11,4.83c0.74,1.39,1.71,2.47,2.9,3.26c1.2,0.78,2.56,1.17,4.08,1.17c0.92,0,1.79-0.15,2.59-0.45
				c0.81-0.3,1.54-0.73,2.21-1.28c0.67-0.55,1.19-1.18,1.56-1.87l10.79,3.32c-0.88,1.84-2.13,3.49-3.77,4.95
				c-1.64,1.45-3.56,2.59-5.77,3.42C353.81,57.11,351.29,57.53,348.48,57.53z"/>
			<path class="st0" d="M384.1,57.53c-3.09,0-5.83-0.49-8.23-1.47c-2.4-0.98-4.44-2.31-6.12-4c-1.68-1.69-2.96-3.64-3.84-5.85
				c-0.88-2.21-1.31-4.52-1.31-6.94c0-3.44,0.77-6.58,2.32-9.41c1.54-2.83,3.77-5.12,6.67-6.86c2.9-1.74,6.41-2.61,10.51-2.61
				c4.1,0,7.6,0.86,10.48,2.59c2.88,1.72,5.08,3.98,6.6,6.77c1.52,2.79,2.28,5.82,2.28,9.09c0,0.64-0.03,1.26-0.1,1.87
				c-0.07,0.61-0.13,1.15-0.17,1.6h-26.83c0.14,1.57,0.59,2.89,1.35,3.97c0.76,1.08,1.74,1.89,2.94,2.45
				c1.2,0.56,2.47,0.84,3.8,0.84c1.66,0,3.22-0.39,4.67-1.18c1.45-0.78,2.46-1.84,3.01-3.18l9.41,2.63
				c-0.92,1.89-2.23,3.56-3.91,5.01c-1.68,1.45-3.66,2.59-5.95,3.42C389.39,57.11,386.86,57.53,384.1,57.53z M376.07,35.54h15.77
				c-0.18-1.45-0.62-2.72-1.31-3.79c-0.69-1.08-1.61-1.91-2.77-2.51c-1.15-0.59-2.42-0.89-3.8-0.89c-1.43,0-2.71,0.3-3.84,0.89
				c-1.13,0.59-2.04,1.43-2.73,2.51C376.7,32.82,376.26,34.09,376.07,35.54z"/>
		</g>
	</g>
	<g>
		<g>
			<path class="st1" d="M99.97,67.1l15.36,47.65l15.18-47.65h15.91l-23.73,65.32h-14.81L83.96,67.1H99.97z"/>
			<path class="st1" d="M146.7,78.6V65.26h14.72V78.6H146.7z M146.7,132.41v-48.3h14.72v48.3H146.7z"/>
			<path class="st1" d="M164.18,108.59c0-4.65,0.92-8.84,2.76-12.55c1.84-3.72,4.35-6.66,7.54-8.84c3.19-2.17,6.87-3.26,11.04-3.26
				c3.37,0,6.44,0.81,9.2,2.44c2.76,1.63,4.84,3.76,6.26,6.39V65.26h14.72v50.78c0,1.47,0.24,2.5,0.74,3.08
				c0.49,0.58,1.29,0.94,2.39,1.06v12.24c-2.58,0.49-4.66,0.74-6.25,0.74c-2.52,0-4.55-0.55-6.12-1.66c-1.56-1.1-2.53-2.64-2.9-4.6
				l-0.28-2.48c-1.72,3.01-4.05,5.24-6.99,6.72c-2.94,1.47-6.04,2.21-9.29,2.21c-3.31,0-6.36-0.62-9.15-1.86
				c-2.79-1.24-5.21-2.98-7.27-5.21c-2.06-2.24-3.63-4.87-4.74-7.89C164.73,115.35,164.18,112.09,164.18,108.59z M201.07,114.39
				v-9.82c-0.61-1.61-1.49-3.01-2.62-4.2c-1.14-1.19-2.42-2.14-3.86-2.86c-1.44-0.71-2.9-1.07-4.37-1.07c-1.6,0-3.05,0.33-4.37,0.98
				c-1.32,0.66-2.47,1.56-3.45,2.72c-0.98,1.16-1.73,2.49-2.25,3.97c-0.52,1.49-0.78,3.07-0.78,4.73c0,1.73,0.29,3.32,0.87,4.78
				c0.58,1.46,1.39,2.74,2.44,3.84c1.04,1.1,2.27,1.95,3.68,2.55c1.41,0.6,2.94,0.89,4.6,0.89c1.04,0,2.05-0.16,3.04-0.49
				c0.98-0.33,1.92-0.76,2.81-1.3c0.89-0.54,1.7-1.22,2.44-2.05C199.96,116.24,200.57,115.35,201.07,114.39z"/>
			<path class="st1" d="M245.59,133.33c-4.11,0-7.76-0.65-10.95-1.95c-3.19-1.3-5.9-3.08-8.14-5.32c-2.24-2.24-3.94-4.84-5.11-7.78
				c-1.17-2.94-1.75-6.02-1.75-9.23c0-4.58,1.03-8.75,3.08-12.51c2.05-3.76,5.01-6.8,8.88-9.12c3.86-2.32,8.52-3.48,13.98-3.48
				c5.46,0,10.1,1.15,13.94,3.44c3.83,2.29,6.76,5.3,8.79,9.01c2.02,3.71,3.03,7.74,3.03,12.09c0,0.84-0.05,1.68-0.14,2.49
				c-0.09,0.82-0.17,1.52-0.23,2.13h-35.69c0.18,2.09,0.78,3.85,1.79,5.28c1.01,1.43,2.31,2.52,3.91,3.26
				c1.59,0.75,3.28,1.12,5.06,1.12c2.21,0,4.28-0.52,6.21-1.56c1.93-1.04,3.27-2.45,4-4.23l12.51,3.5c-1.23,2.52-2.96,4.74-5.2,6.67
				c-2.24,1.93-4.88,3.45-7.91,4.55C252.63,132.78,249.27,133.33,245.59,133.33z M234.92,104.08h20.97
				c-0.25-1.93-0.83-3.61-1.75-5.05c-0.92-1.43-2.15-2.54-3.68-3.34c-1.53-0.79-3.22-1.19-5.06-1.19c-1.9,0-3.6,0.4-5.11,1.19
				c-1.5,0.79-2.71,1.9-3.63,3.34C235.75,100.47,235.16,102.15,234.92,104.08z"/>
			<path class="st1" d="M296.46,133.33c-4.11,0-7.77-0.67-10.99-1.99c-3.22-1.33-5.93-3.14-8.14-5.44
				c-2.21-2.29-3.88-4.92-5.01-7.88c-1.14-2.96-1.7-6.07-1.7-9.34c0-3.32,0.57-6.47,1.7-9.43c1.13-2.96,2.81-5.59,5.01-7.89
				c2.21-2.3,4.92-4.11,8.14-5.44c3.22-1.33,6.88-2,10.99-2c4.11,0,7.76,0.67,10.95,2c3.19,1.33,5.89,3.14,8.1,5.44
				c2.21,2.3,3.89,4.92,5.06,7.89c1.16,2.96,1.75,6.1,1.75,9.43c0,3.26-0.58,6.37-1.75,9.34c-1.17,2.96-2.85,5.59-5.06,7.88
				c-2.21,2.3-4.91,4.11-8.1,5.44C304.22,132.67,300.57,133.33,296.46,133.33z M285.7,108.68c0,2.44,0.47,4.58,1.43,6.43
				c0.95,1.85,2.22,3.27,3.82,4.29c1.59,1.01,3.43,1.52,5.52,1.52c2.02,0,3.85-0.52,5.47-1.56c1.62-1.04,2.9-2.49,3.82-4.33
				s1.38-3.96,1.38-6.34c0-2.44-0.46-4.58-1.38-6.43s-2.19-3.28-3.82-4.29c-1.63-1.01-3.45-1.52-5.47-1.52
				c-2.09,0-3.93,0.51-5.52,1.52c-1.6,1.01-2.87,2.44-3.82,4.29C286.17,104.09,285.7,106.24,285.7,108.68z"/>
		</g>
	</g>
	<g>
		<g>
			<path class="st1" d="M218.91,194.55v-38.91l-14.08,28.33h-8.28l-14.08-28.33v38.91h-15.09v-65.32h16.37l16.93,34.13l17.02-34.13
				h16.28v65.32H218.91z"/>
			<path class="st1" d="M262.97,195.47c-4.11,0-7.76-0.65-10.95-1.95c-3.19-1.3-5.9-3.08-8.14-5.32c-2.24-2.24-3.94-4.84-5.11-7.78
				c-1.17-2.94-1.75-6.02-1.75-9.23c0-4.58,1.03-8.75,3.08-12.51c2.05-3.76,5.01-6.8,8.88-9.12c3.86-2.32,8.52-3.48,13.98-3.48
				c5.46,0,10.1,1.15,13.94,3.44c3.83,2.29,6.76,5.3,8.79,9.01c2.02,3.71,3.04,7.74,3.04,12.09c0,0.85-0.05,1.68-0.14,2.49
				s-0.17,1.52-0.23,2.13h-35.69c0.18,2.09,0.78,3.85,1.79,5.28c1.01,1.43,2.31,2.52,3.91,3.26c1.59,0.75,3.28,1.12,5.06,1.12
				c2.21,0,4.28-0.52,6.21-1.56c1.93-1.04,3.27-2.45,4-4.23l12.51,3.5c-1.23,2.52-2.96,4.74-5.2,6.67
				c-2.24,1.93-4.88,3.45-7.91,4.55C270.01,194.92,266.65,195.47,262.97,195.47z M252.3,166.21h20.97
				c-0.25-1.93-0.83-3.61-1.75-5.05c-0.92-1.43-2.15-2.54-3.68-3.33c-1.53-0.79-3.22-1.19-5.06-1.19c-1.9,0-3.6,0.4-5.11,1.19
				c-1.5,0.79-2.71,1.9-3.63,3.33C253.13,162.6,252.55,164.28,252.3,166.21z"/>
			<path class="st1" d="M313.94,195.47c-4.11,0-7.76-0.65-10.95-1.95c-3.19-1.3-5.9-3.08-8.14-5.32c-2.24-2.24-3.94-4.84-5.11-7.78
				c-1.17-2.94-1.75-6.02-1.75-9.23c0-4.58,1.03-8.75,3.08-12.51c2.05-3.76,5.01-6.8,8.88-9.12c3.86-2.32,8.52-3.48,13.98-3.48
				c5.46,0,10.1,1.15,13.94,3.44c3.83,2.29,6.76,5.3,8.79,9.01c2.02,3.71,3.04,7.74,3.04,12.09c0,0.85-0.05,1.68-0.14,2.49
				s-0.17,1.52-0.23,2.13h-35.69c0.18,2.09,0.78,3.85,1.79,5.28c1.01,1.43,2.31,2.52,3.91,3.26c1.59,0.75,3.28,1.12,5.06,1.12
				c2.21,0,4.28-0.52,6.21-1.56c1.93-1.04,3.27-2.45,4-4.23l12.51,3.5c-1.23,2.52-2.96,4.74-5.2,6.67
				c-2.24,1.93-4.88,3.45-7.91,4.55C320.97,194.92,317.62,195.47,313.94,195.47z M303.26,166.21h20.97
				c-0.25-1.93-0.83-3.61-1.75-5.05c-0.92-1.43-2.15-2.54-3.68-3.33c-1.53-0.79-3.22-1.19-5.06-1.19c-1.9,0-3.6,0.4-5.11,1.19
				c-1.5,0.79-2.71,1.9-3.63,3.33C304.09,162.6,303.51,164.28,303.26,166.21z"/>
			<path class="st1" d="M372.53,191.97c-1.35,0.55-2.84,1.1-4.46,1.66c-1.63,0.55-3.33,1-5.11,1.33c-1.78,0.34-3.53,0.51-5.24,0.51
				c-2.45,0-4.71-0.41-6.76-1.22c-2.06-0.82-3.68-2.16-4.88-4.03c-1.2-1.87-1.79-4.35-1.79-7.43v-24.84h-6.16V146.8h6.16v-15.36
				h14.72v15.36h9.84v11.13h-9.84v19.7c0,1.56,0.4,2.68,1.2,3.37c0.8,0.69,1.81,1.03,3.04,1.03c1.04,0,2.16-0.18,3.36-0.55
				c1.2-0.37,2.22-0.77,3.08-1.2L372.53,191.97z"/>
			<path class="st1" d="M373.64,140.73v-13.34h14.72v13.34H373.64z M373.64,194.55v-48.3h14.72v48.3H373.64z"/>
			<path class="st1" d="M440.42,194.55H425.7v-26.59c0-3.12-0.6-5.39-1.79-6.8c-1.2-1.41-2.78-2.12-4.74-2.12
				c-1.35,0-2.73,0.36-4.14,1.06c-1.41,0.71-2.68,1.68-3.82,2.92c-1.14,1.24-2.01,2.66-2.62,4.25v27.28h-14.72V146.8h13.25v8.14
				c1.23-1.87,2.76-3.47,4.6-4.8c1.84-1.33,3.96-2.34,6.35-3.04c2.39-0.69,5-1.04,7.82-1.04c3.13,0,5.66,0.56,7.59,1.68
				c1.93,1.12,3.4,2.58,4.42,4.39c1.01,1.81,1.69,3.76,2.02,5.84c0.34,2.08,0.51,4.12,0.51,6.12V194.55z"/>
			<path class="st1" d="M464.34,195.47c-3.19,0-6.1-0.63-8.74-1.89c-2.64-1.26-4.89-3-6.76-5.24c-1.87-2.24-3.33-4.83-4.37-7.77
				c-1.04-2.94-1.56-6.1-1.56-9.48c0-3.56,0.55-6.84,1.66-9.84c1.1-3,2.65-5.66,4.65-7.96c1.99-2.3,4.35-4.08,7.08-5.34
				c2.73-1.26,5.75-1.89,9.06-1.89c3.62,0,6.81,0.75,9.57,2.25c2.76,1.5,4.97,3.63,6.62,6.39v-7.91h12.79v44.62
				c0,4.87-1.18,9.06-3.54,12.59c-2.36,3.53-5.64,6.25-9.84,8.17c-4.2,1.92-9.06,2.87-14.58,2.87c-5.15,0-9.58-0.84-13.29-2.53
				c-3.71-1.69-6.95-4.06-9.71-7.13l7.91-8c1.78,2.02,3.99,3.63,6.62,4.83c2.64,1.2,5.46,1.79,8.46,1.79c2.39,0,4.6-0.4,6.62-1.19
				c2.02-0.79,3.63-2.06,4.83-3.81s1.79-4.1,1.79-7.05v-4.69c-1.47,2.64-3.6,4.66-6.39,6.07
				C470.43,194.76,467.47,195.47,464.34,195.47z M469.4,183.79c1.16,0,2.25-0.17,3.27-0.51c1.01-0.34,1.95-0.8,2.81-1.38
				c0.86-0.58,1.66-1.29,2.39-2.12c0.74-0.83,1.32-1.73,1.75-2.71v-10.12c-0.61-1.72-1.5-3.2-2.67-4.46
				c-1.17-1.26-2.45-2.22-3.86-2.9c-1.41-0.67-2.88-1.01-4.42-1.01c-1.53,0-2.98,0.34-4.32,1.01c-1.35,0.68-2.5,1.64-3.45,2.9
				c-0.95,1.26-1.69,2.65-2.21,4.19c-0.52,1.53-0.78,3.13-0.78,4.78c0,1.78,0.29,3.4,0.87,4.88c0.58,1.47,1.39,2.78,2.44,3.91
				c1.04,1.14,2.27,2.01,3.68,2.62C466.3,183.48,467.81,183.79,469.4,183.79z"/>
		</g>
	</g>
	<g>
		<g>
			<path class="st1" d="M57.09,214.9c-0.18-0.31-0.83-0.78-1.93-1.43c-1.1-0.64-2.48-1.33-4.14-2.07c-1.66-0.74-3.47-1.38-5.43-1.93
				c-1.96-0.55-3.93-0.83-5.89-0.83c-2.58,0-4.57,0.44-5.98,1.33c-1.41,0.88-2.12,2.24-2.12,4.06c0,1.46,0.54,2.62,1.61,3.47
				c1.07,0.85,2.62,1.6,4.65,2.24c2.02,0.64,4.51,1.39,7.45,2.24c4.17,1.1,7.79,2.42,10.86,3.97c3.07,1.55,5.41,3.55,7.04,5.98
				c1.62,2.44,2.44,5.66,2.44,9.68c0,3.66-0.68,6.75-2.02,9.27c-1.35,2.53-3.17,4.57-5.47,6.12c-2.3,1.55-4.92,2.68-7.87,3.38
				c-2.94,0.7-5.98,1.05-9.11,1.05c-3.19,0-6.46-0.32-9.8-0.97c-3.34-0.64-6.55-1.56-9.61-2.76c-3.07-1.2-5.89-2.65-8.46-4.37
				l6.62-13.15c0.24,0.31,1.04,0.87,2.39,1.7c1.35,0.83,3.02,1.69,5.01,2.58c1.99,0.89,4.22,1.67,6.67,2.35
				c2.45,0.68,4.94,1.01,7.45,1.01c2.7,0,4.71-0.42,6.03-1.26c1.32-0.84,1.98-2.01,1.98-3.51c0-1.65-0.69-2.93-2.07-3.84
				c-1.38-0.91-3.25-1.74-5.61-2.47c-2.36-0.73-5.08-1.55-8.14-2.47c-3.99-1.22-7.28-2.59-9.89-4.12c-2.61-1.52-4.54-3.38-5.8-5.58
				c-1.26-2.2-1.89-4.94-1.89-8.23c0-4.57,1.09-8.43,3.27-11.57c2.18-3.14,5.11-5.52,8.79-7.14c3.68-1.62,7.7-2.42,12.05-2.42
				c3.07,0,6.02,0.37,8.88,1.1c2.85,0.74,5.52,1.66,8,2.76c2.48,1.1,4.71,2.21,6.67,3.31L57.09,214.9z"/>
			<path class="st1" d="M91.77,261.91c-4.11,0-7.76-0.67-10.95-1.99c-3.19-1.33-5.9-3.14-8.14-5.44c-2.24-2.3-3.94-4.92-5.11-7.89
				c-1.17-2.96-1.75-6.1-1.75-9.43c0-4.35,1.03-8.4,3.08-12.14c2.05-3.75,5.01-6.77,8.88-9.06c3.86-2.3,8.52-3.45,13.98-3.45
				c5.52,0,10.2,1.18,14.03,3.54c3.83,2.36,6.7,5.44,8.6,9.25l-14.35,4.32c-0.92-1.47-2.1-2.61-3.54-3.4
				c-1.44-0.8-3.05-1.2-4.83-1.2c-2.02,0-3.85,0.51-5.47,1.52s-2.91,2.41-3.86,4.2c-0.95,1.79-1.43,3.93-1.43,6.43
				c0,2.44,0.49,4.58,1.47,6.43c0.98,1.85,2.27,3.29,3.86,4.33c1.59,1.04,3.4,1.56,5.43,1.56c1.23,0,2.38-0.2,3.45-0.6
				c1.07-0.4,2.05-0.97,2.94-1.7c0.89-0.74,1.58-1.56,2.07-2.48l14.35,4.42c-1.17,2.45-2.84,4.65-5.01,6.58
				c-2.18,1.93-4.74,3.45-7.68,4.55C98.86,261.36,95.51,261.91,91.77,261.91z"/>
			<path class="st1" d="M163.07,260.99h-14.72V234.4c0-3.06-0.63-5.32-1.89-6.76c-1.26-1.44-2.93-2.16-5.01-2.16
				c-1.1,0-2.35,0.34-3.73,1.02c-1.38,0.68-2.65,1.64-3.82,2.88c-1.17,1.24-2.06,2.69-2.67,4.34v27.28h-14.72v-67.16h14.72v27.55
				c1.78-2.84,4.12-5.03,7.04-6.57c2.91-1.54,6.12-2.31,9.61-2.31c3.31,0,5.96,0.54,7.96,1.63c1.99,1.09,3.51,2.52,4.55,4.31
				c1.04,1.78,1.75,3.73,2.12,5.84c0.37,2.11,0.55,4.2,0.55,6.25V260.99z"/>
			<path class="st1" d="M191.31,261.91c-4.11,0-7.76-0.65-10.95-1.95c-3.19-1.3-5.9-3.08-8.14-5.32c-2.24-2.24-3.94-4.84-5.11-7.78
				c-1.17-2.94-1.75-6.02-1.75-9.23c0-4.58,1.03-8.75,3.08-12.51c2.05-3.76,5.01-6.8,8.88-9.12c3.86-2.32,8.52-3.48,13.98-3.48
				c5.46,0,10.1,1.15,13.94,3.44c3.83,2.29,6.76,5.3,8.79,9.01c2.02,3.71,3.04,7.74,3.04,12.09c0,0.85-0.05,1.68-0.14,2.49
				c-0.09,0.82-0.17,1.52-0.23,2.13h-35.69c0.18,2.09,0.78,3.85,1.79,5.28c1.01,1.43,2.31,2.52,3.91,3.26
				c1.59,0.75,3.28,1.12,5.06,1.12c2.21,0,4.28-0.52,6.21-1.56c1.93-1.04,3.27-2.45,4-4.23l12.51,3.5c-1.23,2.52-2.96,4.74-5.2,6.67
				c-2.24,1.93-4.88,3.45-7.91,4.55C198.35,261.36,194.99,261.91,191.31,261.91z M180.64,232.66h20.97
				c-0.25-1.93-0.83-3.61-1.75-5.05c-0.92-1.43-2.15-2.54-3.68-3.33c-1.53-0.79-3.22-1.19-5.06-1.19c-1.9,0-3.6,0.4-5.11,1.19
				c-1.5,0.79-2.71,1.9-3.63,3.33C181.47,229.04,180.88,230.73,180.64,232.66z"/>
			<path class="st1" d="M216.42,237.16c0-4.65,0.92-8.84,2.76-12.55c1.84-3.72,4.35-6.66,7.54-8.84c3.19-2.17,6.87-3.26,11.04-3.26
				c3.37,0,6.44,0.81,9.2,2.44c2.76,1.63,4.84,3.76,6.26,6.39v-27.51h14.72v50.78c0,1.47,0.24,2.5,0.74,3.08
				c0.49,0.58,1.29,0.94,2.39,1.06v12.24c-2.58,0.49-4.66,0.74-6.26,0.74c-2.51,0-4.55-0.55-6.12-1.66c-1.56-1.1-2.53-2.64-2.9-4.6
				l-0.28-2.48c-1.72,3.01-4.05,5.24-6.99,6.72c-2.94,1.47-6.04,2.21-9.29,2.21c-3.31,0-6.36-0.62-9.15-1.86
				c-2.79-1.24-5.21-2.98-7.27-5.21c-2.06-2.24-3.63-4.87-4.74-7.89C216.97,243.93,216.42,240.67,216.42,237.16z M253.31,242.97
				v-9.82c-0.61-1.61-1.49-3.01-2.62-4.2c-1.14-1.19-2.42-2.14-3.86-2.86c-1.44-0.71-2.9-1.07-4.37-1.07c-1.6,0-3.05,0.33-4.37,0.98
				c-1.32,0.66-2.47,1.56-3.45,2.72c-0.98,1.16-1.73,2.49-2.25,3.97c-0.52,1.49-0.78,3.07-0.78,4.73c0,1.73,0.29,3.32,0.87,4.78
				c0.58,1.46,1.39,2.74,2.44,3.84c1.04,1.1,2.27,1.95,3.68,2.55c1.41,0.6,2.94,0.89,4.6,0.89c1.04,0,2.05-0.16,3.04-0.49
				c0.98-0.33,1.92-0.76,2.81-1.29c0.89-0.54,1.7-1.22,2.44-2.05C252.21,244.82,252.82,243.93,253.31,242.97z"/>
			<path class="st1" d="M274.28,243.81v-30.56H289v27.27c0,2.9,0.58,5.12,1.75,6.66c1.16,1.54,2.82,2.31,4.97,2.31
				c1.35,0,2.64-0.22,3.86-0.67c1.23-0.45,2.42-1.17,3.59-2.18c1.16-1.01,2.21-2.32,3.13-3.92v-29.47h14.72v31.43
				c0,1.45,0.23,2.46,0.69,3.04s1.27,0.92,2.44,1.04v12.24c-1.35,0.24-2.53,0.43-3.54,0.55c-1.01,0.12-1.92,0.18-2.71,0.18
				c-2.58,0-4.63-0.53-6.16-1.59c-1.53-1.06-2.48-2.56-2.85-4.5l-0.28-2.91c-2.21,3.15-4.95,5.47-8.23,6.96
				c-3.28,1.49-6.95,2.23-10.99,2.23c-4.91,0-8.65-1.55-11.22-4.64C275.57,254.18,274.28,249.69,274.28,243.81z"/>
			<path class="st1" d="M327.64,193.83h14.72v50.04c0,2.03,0.37,3.47,1.1,4.33c0.74,0.86,1.78,1.29,3.13,1.29
				c0.92,0,1.85-0.14,2.81-0.41c0.95-0.28,1.79-0.6,2.53-0.97l1.93,11.04c-1.84,0.86-3.96,1.53-6.35,2.02
				c-2.39,0.49-4.63,0.74-6.72,0.74c-4.17,0-7.41-1.12-9.71-3.36c-2.3-2.24-3.45-5.42-3.45-9.53V193.83z"/>
			<path class="st1" d="M354.04,207.17v-13.34h14.72v13.34H354.04z M354.04,260.99v-48.3h14.72v48.3H354.04z"/>
			<path class="st1" d="M420.83,260.99h-14.72V234.4c0-3.12-0.6-5.39-1.79-6.8c-1.2-1.41-2.78-2.12-4.74-2.12
				c-1.35,0-2.73,0.36-4.14,1.06c-1.41,0.71-2.68,1.68-3.82,2.92c-1.14,1.24-2.01,2.66-2.62,4.25v27.28h-14.72v-47.74h13.25v8.14
				c1.23-1.87,2.76-3.47,4.6-4.8c1.84-1.33,3.96-2.34,6.35-3.04c2.39-0.69,5-1.04,7.82-1.04c3.13,0,5.66,0.56,7.59,1.68
				c1.93,1.12,3.4,2.58,4.42,4.39c1.01,1.81,1.69,3.76,2.02,5.84c0.34,2.08,0.51,4.12,0.51,6.12V260.99z"/>
			<path class="st1" d="M444.75,261.91c-3.19,0-6.1-0.63-8.74-1.89c-2.64-1.26-4.89-3-6.76-5.24c-1.87-2.24-3.33-4.83-4.37-7.77
				c-1.04-2.94-1.56-6.1-1.56-9.48c0-3.56,0.55-6.84,1.66-9.84c1.1-3,2.65-5.66,4.65-7.96c1.99-2.3,4.35-4.08,7.08-5.34
				c2.73-1.26,5.75-1.89,9.06-1.89c3.62,0,6.81,0.75,9.57,2.25c2.76,1.5,4.97,3.63,6.62,6.39v-7.91h12.79v44.62
				c0,4.87-1.18,9.06-3.54,12.59c-2.36,3.53-5.64,6.25-9.84,8.17c-4.2,1.92-9.06,2.87-14.58,2.87c-5.15,0-9.58-0.84-13.29-2.53
				c-3.71-1.69-6.95-4.06-9.71-7.13l7.91-8c1.78,2.02,3.99,3.63,6.62,4.83c2.64,1.2,5.46,1.79,8.46,1.79c2.39,0,4.6-0.4,6.62-1.19
				c2.02-0.79,3.63-2.06,4.83-3.81s1.79-4.1,1.79-7.05v-4.69c-1.47,2.64-3.6,4.66-6.39,6.07
				C450.83,261.2,447.87,261.91,444.75,261.91z M449.81,250.23c1.16,0,2.25-0.17,3.27-0.51c1.01-0.34,1.95-0.8,2.81-1.38
				c0.86-0.58,1.66-1.29,2.39-2.12c0.74-0.83,1.32-1.73,1.75-2.71v-10.12c-0.61-1.72-1.5-3.2-2.67-4.46
				c-1.17-1.26-2.45-2.22-3.86-2.9c-1.41-0.67-2.88-1.01-4.42-1.01c-1.53,0-2.98,0.34-4.32,1.01c-1.35,0.68-2.5,1.64-3.45,2.9
				c-0.95,1.26-1.69,2.65-2.21,4.19c-0.52,1.53-0.78,3.13-0.78,4.78c0,1.78,0.29,3.4,0.87,4.88c0.58,1.47,1.39,2.78,2.44,3.91
				c1.04,1.14,2.27,2.01,3.68,2.62C446.71,249.92,448.21,250.23,449.81,250.23z"/>
		</g>
	</g>
	<g>
		<g>
			<path class="st0" d="M146.68,186.55l-19.41-20.69c-1.67-1.76-3-3.27-3.99-4.53c-0.99-1.25-1.7-2.42-2.11-3.5
				c-0.42-1.08-0.62-2.24-0.62-3.5c0-2.12,0.52-3.95,1.55-5.5c1.03-1.55,2.45-2.74,4.26-3.59c1.81-0.84,3.84-1.26,6.1-1.26
				c2.02,0,3.93,0.34,5.72,1.03c1.79,0.69,3.25,1.73,4.41,3.15c1.15,1.41,1.73,3.21,1.73,5.41c0,1.88-0.45,3.6-1.34,5.14
				c-0.89,1.55-2.1,2.97-3.63,4.26c-1.53,1.29-3.24,2.51-5.15,3.65c-1.39,0.82-2.63,1.61-3.72,2.36c-1.09,0.76-1.94,1.55-2.56,2.36
				c-0.62,0.82-0.92,1.71-0.92,2.69c0,0.82,0.25,1.64,0.74,2.48c0.5,0.84,1.23,1.53,2.2,2.07c0.97,0.54,2.13,0.82,3.48,0.82
				c1.51,0,3.02-0.39,4.52-1.16c1.51-0.77,2.89-1.89,4.14-3.36c1.25-1.47,2.24-3.25,2.98-5.36c0.73-2.1,1.1-4.48,1.1-7.14h7.68
				c0,4.01-0.62,7.54-1.85,10.6c-1.23,3.06-2.87,5.62-4.91,7.68c-2.04,2.06-4.34,3.61-6.88,4.64c-2.54,1.03-5.14,1.55-7.8,1.55
				c-3.06,0-5.68-0.62-7.86-1.85c-2.18-1.23-3.84-2.82-4.97-4.76c-1.13-1.94-1.7-4.01-1.7-6.2c0-2.23,0.51-4.18,1.55-5.85
				c1.03-1.67,2.33-3.13,3.9-4.38c1.57-1.25,3.13-2.35,4.67-3.29c1.71-1.09,3.12-1.97,4.23-2.65c1.11-0.68,1.94-1.33,2.5-1.95
				c0.55-0.62,0.83-1.34,0.83-2.16c0-0.85-0.29-1.53-0.86-2.04c-0.58-0.51-1.32-0.76-2.23-0.76c-0.64,0-1.21,0.15-1.73,0.44
				c-0.52,0.29-0.9,0.66-1.16,1.11c-0.26,0.45-0.39,0.96-0.39,1.54c0,0.54,0.17,1.06,0.51,1.54c0.34,0.49,0.91,1.12,1.73,1.9
				s1.94,1.92,3.36,3.44l24.41,25.63H146.68z"/>
		</g>
	</g>
</g>
</svg>
