

<svg  xmlns="http://www.w3.org/2000/svg" xmlns:xlink="http://www.w3.org/1999/xlink" x="0px" y="0px"
	 viewBox="0 0 111.56 97.8" style="enable-background:new 0 0 111.56 97.8;" xml:space="preserve">
<style type="text/css">
	.st0{fill:#E5332A;}
</style>
<path class="st0" d="M55.78,0C28.63,0,1.49,14.95,0,44.87c-0.19,14.38,8.52,27.28,21.63,35.56l6.38,15.29
	c0.98,2.51,3.57,2.77,5.11,0.68l6.08-8.43c5.29,1.36,10.87,2.07,16.58,2.01c29.7,0.31,56.11-20.18,55.78-45.11
	C110.07,14.95,82.93,0,55.78,0z M55.78,70.23c-19.54,0-36.05-11.62-36.05-25.39c0-13.76,16.51-25.39,36.05-25.39
	c19.54,0,36.05,11.63,36.05,25.39C91.83,58.61,75.32,70.23,55.78,70.23z"/>
</svg>
