

<svg id="Capa_1" xmlns="http://www.w3.org/2000/svg" xmlns:xlink="http://www.w3.org/1999/xlink" x="0px" y="0px"
	 viewBox="0 0 527 512" style="enable-background:new 0 0 527 512;" xml:space="preserve">
<style type="text/css">
	.st0{fill:#001588;stroke:#001588;stroke-width:3;stroke-miterlimit:10;}
</style>
<path class="st0" d="M148.35,405.33L148.35,405.33c0-5.89-4.78-10.66-10.67-10.66H60.33c-17.64,0-32-14.36-32-32V352h186.26
	c5.91,0,10.67-4.78,10.71-10.69c0-5.89-4.78-10.67-10.67-10.67l-163.69-0.02c3.88-16.55,16.73-29.97,33.83-34.26l45.87-11.48
	c3.82-0.96,6.83-3.95,7.77-7.77l5.46-21.82c0.94-3.76-0.23-7.72-3.05-10.37c-10.33-9.71-17.17-23.91-18.3-38.04
	c-0.45-5.55-5.08-9.81-10.65-9.81l-2.26-0.41l-1.17-22.78c3.07,0,5.97-1.3,8-3.61c2.03-2.28,2.97-5.35,2.58-8.38
	c-1-7.81-2.56-21.91-2.56-26.5c0-13.72,0-27.88,39.53-28.29c2.18-0.02,4.33-0.7,6.1-1.98C174.87,96,189.34,96,196.29,96
	c13.99,0,23.34,3.88,28.59,11.88c2.39,3.67,3.63,6.93,3.56,9.47c-0.13,5.89,4.54,10.77,10.43,10.9c6.78-0.04,10.77-4.57,10.9-10.43
	c0.15-6.98-2.22-14.25-7.06-21.63c-6.42-9.81-19.69-21.53-46.42-21.53c-8.02,0-26.26,0-43.82,11.18
	c-50.77,1.56-57.39,27.2-57.39,49.56c0,4.42,0.87,13.1,1.62,19.88c-2.15,1.2-4.12,2.77-5.8,4.67c-4.14,4.69-6.08,10.92-5.29,17.13
	l2.77,22.25c1,7.94,6.21,14.44,13.91,17.39c2.75,14.36,9.64,28.29,19.39,39.17l-2.45,9.86l-39.66,9.92
	c-26.65,6.68-46.14,28.54-50.35,55h-0.9V64c0-17.64,14.36-32,32-32h384c17.64,0,32,14.36,32,32v298.67c0,4.57-1.05,9.09-3.11,13.5
	c-2.5,5.33-0.19,11.69,5.14,14.19c5.38,2.5,11.71,0.19,14.19-5.14c3.39-7.27,5.12-14.85,5.12-22.55V64
	c0-29.4-23.94-53.33-53.33-53.33h-384C30.94,10.66,7,34.6,7,64v298.67C7,392.06,30.94,416,60.33,416h77.35
	C143.6,416,148.35,411.22,148.35,405.33z"/>
<path class="st0" d="M449.75,401.96L449.75,401.96l-58.77-14.68l-4.35-17.43c15.57-15.91,26.33-37.25,29.91-59.26
	c9.15-3.29,16.09-11.5,17.36-21.63l3.95-31.53c0.94-7.47-1.37-14.98-6.29-20.63c-2.43-2.79-5.4-5.01-8.68-6.55l1.32-26.67l5.18-5.21
	c9.58-10.18,17.54-27.56,1.15-52.57c-12.37-18.9-33.24-28.48-62.06-28.48c-11.11,0-36.61,0-60.63,15.83
	c-69.25,1.73-78.23,35.97-78.23,65.79c0,6.78,1.49,20.99,2.62,30.78c-3.67,1.54-6.98,3.86-9.66,6.91
	c-5.03,5.67-7.36,13.25-6.42,20.78l3.95,31.53c1.34,10.84,9.17,19.48,19.26,22.23c3.56,21.1,13.76,41.69,28.37,57.24l-4.71,18.86
	l-58.77,14.68c-40.79,10.18-69.25,46.66-69.25,88.7c0,2.84,1.11,5.57,3.12,7.55c2.01,1.98,4.74,3.11,7.55,3.11l362.67-0.04
	c5.89,0,10.67-4.78,10.67-10.67C519,448.62,490.52,412.16,449.75,401.96z"/>
</svg>
