
<!-- Generator: Adobe Illustrator 22.0.1, SVG Export Plug-In . SVG Version: 6.00 Build 0)  -->
<svg id="Capa_1" xmlns="http://www.w3.org/2000/svg" xmlns:xlink="http://www.w3.org/1999/xlink" x="0px" y="0px"
	 viewBox="0 0 512 389.64" style="enable-background:new 0 0 512 389.64;" xml:space="preserve">
<style type="text/css">
	.st0{fill:#FFFFFF;}
</style>
<g>
	<g>
		<path class="st0" d="M449.5,0H62.61C28.07,0,0,28.07,0,62.61v264.42c0,34.54,28.07,62.61,62.61,62.61h386.78
			c34.54,0,62.61-28.07,62.61-62.61V62.72C512.11,28.18,484.03,0,449.5,0z M483.5,327.03c0,18.75-15.26,34.01-34.01,34.01H62.61
			c-18.75,0-34.01-15.26-34.01-34.01V62.72c0-18.75,15.26-34.01,34.01-34.01h386.78c18.75,0,34.01,15.26,34.01,34.01v264.32H483.5z"
			/>
		<path class="st0" d="M322.9,191.54L448.12,79.24c5.83-5.3,6.36-14.3,1.06-20.23c-5.3-5.83-14.3-6.36-20.23-1.06L256.26,212.94
			l-33.69-30.09c-0.11-0.11-0.21-0.21-0.21-0.32c-0.74-0.74-1.48-1.38-2.33-2.01L82.95,57.84c-5.93-5.3-14.94-4.77-20.23,1.17
			s-4.77,14.94,1.17,20.23l126.7,113.25L64.41,310.61c-5.72,5.4-6.04,14.41-0.64,20.23c2.86,2.97,6.67,4.56,10.49,4.56
			c3.5,0,6.99-1.27,9.75-3.81l128.08-119.82l34.75,31.04c2.75,2.44,6.14,3.6,9.53,3.6c3.39,0,6.89-1.27,9.53-3.71l35.7-31.99
			l127.34,120.98c2.75,2.65,6.36,3.92,9.85,3.92c3.81,0,7.52-1.48,10.38-4.45c5.4-5.72,5.19-14.83-0.53-20.23L322.9,191.54z"/>
	</g>
</g>
</svg>
