<?xml version="1.0" encoding="utf-8"?>
<!-- Generator: Adobe Illustrator 27.1.1, SVG Export Plug-In . SVG Version: 6.00 Build 0)  -->
<svg version="1.1" id="Capa_1" xmlns="http://www.w3.org/2000/svg" xmlns:xlink="http://www.w3.org/1999/xlink" x="0px" y="0px"
	 viewBox="0 0 511.99 389.65" style="enable-background:new 0 0 511.99 389.65;" xml:space="preserve">
<style type="text/css">
	.st0{fill:#FFFFFF;}
</style>
<path class="st0" d="M76.6,389.65v-0.31c-6.1-1.29-10.7-6.72-10.7-13.2c0-25.61,20.83-46.44,46.44-46.44h69.82v-12.01H46.44
	c-12.4,0-24.05-4.83-32.83-13.61S0,283.64,0,271.26V46.44C0,20.83,20.83,0,46.44,0h416.02c25.61,0,46.44,20.83,46.44,46.44v6.97
	c0,7.44-6.05,13.49-13.49,13.49s-13.49-6.05-13.49-13.49v-6.97c0-10.75-8.74-19.49-19.49-19.49H46.41
	c-10.75,0-19.49,8.74-19.49,19.49l-0.03,224.79c0,10.75,8.74,19.49,19.49,19.49h149.25c7.44,0,13.49,6.05,13.49,13.49
	c0,3.56-0.01,25.49-0.01,25.49h56.14c7.42,0,13.46,6.05,13.46,13.49s-6.04,13.49-13.46,13.49H112.38c-5.4,0-10.46,2.22-14.09,6.01
	h313.47c-1.27-5.64,1.15-11.65,6.36-14.67c2.03-1.19,4.37-1.83,6.76-1.83c4.78,0,9.26,2.55,11.68,6.66
	c4.26,7.37,6.41,15.2,6.41,23.29c0,7.44-6.05,13.49-13.49,13.49H76.6V389.65z"/>
<path class="st0" d="M416.63,332.78c-30.66,0-55.61-24.9-55.61-55.51c0-3.74,0.43-7.58,1.28-11.45l-59.94-33.44
	c-10.37,10.29-24.45,16.13-39.18,16.13c-30.61,0-55.51-24.88-55.51-55.46c0-30.64,24.88-55.56,55.46-55.56
	c14.72,0,28.75,5.82,39.05,16.07l59.92-33.39c-0.72-3.57-1.09-7.36-1.09-11.3c0-30.58,24.9-55.46,55.51-55.46
	s55.51,24.9,55.51,55.51c0,30.64-24.9,55.56-55.51,55.56c-14.61,0-28.65-5.84-39.07-16.15l-60,33.42c0.78,3.7,1.18,7.51,1.18,11.35
	c0,3.78-0.39,7.53-1.17,11.19l60.02,33.59c10.44-10.25,24.47-16.06,39.03-16.06c30.66,0,55.61,24.88,55.61,55.46
	c0.01,14.8-5.77,28.73-16.27,39.23C445.37,326.99,431.43,332.78,416.63,332.78z M416.53,253.77c-12.98,0-23.54,10.58-23.54,23.59
	c0,12.93,10.56,23.45,23.54,23.45s23.54-10.52,23.54-23.45C440.07,264.35,429.51,253.77,416.53,253.77z M263.19,169.5
	c-12.96,0-23.5,10.58-23.5,23.59c0,12.93,10.54,23.45,23.5,23.45c12.96,0,23.5-10.52,23.5-23.45
	C286.68,180.08,276.14,169.5,263.19,169.5z M416.53,85.36c-6.3,0-12.23,2.47-16.71,6.94c-4.42,4.43-6.85,10.3-6.84,16.52
	c0,12.99,10.56,23.56,23.54,23.56s23.54-10.56,23.54-23.54c0.01-6.26-2.44-12.15-6.89-16.59S422.81,85.36,416.53,85.36z"/>
</svg>
