
<!-- Generator: Adobe Illustrator 22.0.1, SVG Export Plug-In . SVG Version: 6.00 Build 0)  -->
<svg id="Capa_1" xmlns="http://www.w3.org/2000/svg" xmlns:xlink="http://www.w3.org/1999/xlink" x="0px" y="0px"
	 viewBox="0 0 511.75 512" style="enable-background:new 0 0 511.75 512;" xml:space="preserve">
<style type="text/css">
	.st0{fill:#FFFFFF;}
</style>
<g>
	<g>
		<path class="st0" d="M436.81,75.04C388.47,26.69,324.25,0,255.86,0S123.25,26.69,74.9,75.04
			C-18.37,168.31-25.12,317.32,57.96,418.3c-11.47,23.48-24.98,39.13-40.31,46.63c-9.33,4.61-14.58,14.69-13.08,24.98
			c1.61,10.4,9.54,18.44,19.94,20.05c5.68,0.86,11.79,1.39,18.12,1.39l0,0c31.41,0,64.43-10.83,91.98-29.8
			C171.7,501.49,213.4,512,255.86,512c68.4,0,132.61-26.59,180.96-74.93s74.93-112.67,74.93-180.96S485.16,123.39,436.81,75.04z
			 M416.34,416.48c-42.88,42.88-99.91,66.47-160.48,66.47c-40.52,0-80.29-10.83-114.92-31.2c-2.25-1.29-4.82-2.04-7.29-2.04
			c-3.11,0-6.32,1.07-8.9,3c-32.8,25.41-65.82,29.16-80.29,29.48c17.26-12.86,31.73-32.8,43.85-60.57
			c2.25-5.15,1.29-11.15-2.47-15.44C6.5,316.57,10.68,179.99,95.37,95.3c42.88-42.88,99.91-66.47,160.48-66.47
			s117.6,23.58,160.48,66.47C504.89,183.96,504.89,328.04,416.34,416.48z"/>
		<path class="st0" d="M363.06,171.52H148.65c-8.04,0-14.47,6.43-14.47,14.47c0,8.04,6.43,14.47,14.47,14.47h214.41
			c8.04,0,14.47-6.43,14.47-14.47C377.53,177.96,370.99,171.52,363.06,171.52z"/>
		<path class="st0" d="M363.06,241.53H148.65c-8.04,0-14.47,6.43-14.47,14.47c0,8.04,6.43,14.47,14.47,14.47h214.41
			c8.04,0,14.47-6.43,14.47-14.47C377.53,247.96,370.99,241.53,363.06,241.53z"/>
		<path class="st0" d="M363.06,311.53H148.65c-8.04,0-14.47,6.43-14.47,14.47c0,8.04,6.43,14.47,14.47,14.47h214.41
			c8.04,0,14.47-6.43,14.47-14.47C377.53,317.96,370.99,311.53,363.06,311.53z"/>
	</g>
</g>
</svg>
