<?xml version="1.0" encoding="utf-8"?>
<!-- Generator: Adobe Illustrator 22.0.1, SVG Export Plug-In . SVG Version: 6.00 Build 0)  -->
<svg version="1.1" id="Capa_1" xmlns="http://www.w3.org/2000/svg" xmlns:xlink="http://www.w3.org/1999/xlink" x="0px" y="0px"
	 viewBox="0 0 520 349.33" style="enable-background:new 0 0 520 349.33;" xml:space="preserve">
<style type="text/css">
	.st0{fill:#FFFFFF;}
</style>
<path class="st0" d="M512.71,1.98l-0.02-0.01c-4.49-2.6-10.09-2.61-14.63-0.03L370.67,74.72V36c0-19.85-16.15-36-36-36H59.27
	c0,0,0,0,0,0C39.88,0,24.07,19.86,13.55,57.43C4.81,88.62,0,130.25,0,174.67c0,86.94,18.33,174.67,59.27,174.67h275.39
	c19.85,0,36-16.15,36-36v-38.72l127.39,72.78c2.21,1.27,4.73,1.94,7.28,1.94c2.58,0,5.13-0.68,7.37-1.98
	c4.5-2.63,7.29-7.49,7.29-12.69v-320C520,9.47,517.2,4.6,512.71,1.98z M341.33,249.33v64c0,3.68-2.99,6.67-6.67,6.67H59.36
	c-2.52-0.69-10.33-10.79-17.56-36.72c-5.69-20.4-12.47-55.81-12.47-108.62c0-52.81,6.78-88.21,12.47-108.62
	c7.23-25.93,15.04-36.03,17.56-36.72h275.31c3.68,0,6.67,2.99,6.67,6.67v64c0,5.2,2.79,10.06,7.31,12.7
	c4.49,2.6,10.09,2.61,14.63,0.03l127.39-72.78v269.44l-127.38-72.78c-4.51-2.59-10.12-2.58-14.66,0.04
	C344.13,239.27,341.33,244.13,341.33,249.33z"/>
</svg>
