<?xml version="1.0" encoding="utf-8"?>
<!DOCTYPE svg PUBLIC "-//W3C//DTD SVG 1.1//EN"
    "http://www.w3.org/Graphics/SVG/1.1/DTD/svg11.dtd">
<!-- Generator: Adobe Illustrator 10.0, SVG Export Plug-In . SVG Version: 3.0.0 Build 76)  -->
<svg xmlns="http://www.w3.org/2000/svg" version="1.1" width="193" height="34" viewBox="-1 -1 191 33">
<path fill="#F00" d="M22.477,29.654
    c-2.515-1.575-4.367-7.011-4.367-13.469c0-0.237,0.001-0.471,0.007-0.704l0.003,0.003c-6.994-1.099-12.048-4.111-12.177-7.672
    L5.922,7.853C4.21,9.98,3.233,12.439,3.233,15.059c0,7.71,8.463,14.027,19.198,14.586L22.477,29.654z M0,15.622
    C0,6.995,10.736,0,23.98,0c13.244,0,23.98,6.995,23.98,15.622S37.224,31.244,23.98,31.244C10.736,31.244,0,24.249,0,15.622z
     M23.98,2.254c2.557,0,4.731,3.878,5.537,9.29l0.003-0.008c4.974-0.774,8.457-2.561,8.457-4.639c0-2.79-6.267-5.048-13.997-5.048
    c-7.73,0-13.997,2.259-13.997,5.048c0,2.078,3.482,3.864,8.457,4.639l0.003,0.008C19.249,6.133,21.424,2.254,23.98,2.254z
     M25.528,29.645c10.735-0.559,19.199-6.876,19.199-14.586c0-2.62-0.978-5.079-2.689-7.206l-0.021-0.041
    c-0.129,3.561-5.182,6.573-12.177,7.672l0.003-0.003c0.005,0.233,0.007,0.467,0.007,0.704c0,6.458-1.854,11.894-4.367,13.469
    L25.528,29.645z M23.98,11.946c1.146,0,2.259-0.049,3.324-0.143l-0.001,0.001c-0.53-3.469-1.818-5.917-3.323-5.917
    s-2.792,2.448-3.323,5.917l-0.001-0.001C21.721,11.897,22.834,11.946,23.98,11.946z M23.98,24.792c1.925,0,3.495-4.006,3.579-9.03
    l0.01,0.003c-1.16,0.107-2.36,0.164-3.589,0.164c-1.229,0-2.429-0.056-3.589-0.164l0.011-0.003
    C20.485,20.787,22.055,24.792,23.98,24.792z"/>
<path fill="#F00" d="M122.362,15.622
    c0-6.594,5.346-11.939,11.939-11.939c6.596,0,11.941,5.346,11.941,11.939c0,6.595-5.346,11.939-11.941,11.939
    C127.708,27.561,122.362,22.216,122.362,15.622z M134.301,23.183c3.683,0,6.668-3.386,6.668-7.562
    c0-4.175-2.985-7.562-6.668-7.562c-3.681,0-6.665,3.386-6.665,7.562C127.636,19.797,130.621,23.183,134.301,23.183z"/>
<path fill="#F00" d="M159.79,8.657v18.362h-5.03V8.657h0.017h-7.035V4.505h19.066v4.151h-7H159.79z"/>
<path fill="#F00" d="M172.893,21.954l-0.005,0.005l-1.93,5.061
    h-5.875l9.288-22.514h3.132h3.129l9.289,22.514h-5.876l-1.93-5.061l-0.005-0.005h-4.607H172.893z M177.503,18.154h3.165
    l-0.002,0.001l-3.142-8.24h-0.044l-3.144,8.24l-0.001-0.001H177.503z"/>
<path fill="#F00" d="M67.057,8.657v18.362h-5.031V8.657h0.017h-7.036V4.505h19.067v4.151h-7H67.057z"/>
<path fill="#F00" d="M75.362,15.622
    c0-6.594,5.346-11.939,11.941-11.939c6.594,0,11.94,5.346,11.94,11.939c0,6.595-5.346,11.939-11.94,11.939
    C80.708,27.561,75.362,22.216,75.362,15.622z M87.303,23.183c3.681,0,6.667-3.386,6.667-7.562c0-4.175-2.985-7.562-6.667-7.562
    c-3.682,0-6.667,3.386-6.667,7.562C80.636,19.797,83.621,23.183,87.303,23.183z"/>
<path fill="#F00" d="M110.802,27.019h2.551v-8.443V18.47
    l8.776-13.965h-5.874l-5.453,9.463l-5.452-9.463h-5.876l8.777,13.965v0.105v8.443H110.802z"/>
</svg>
