<svg id="Capa_1" xmlns="http://www.w3.org/2000/svg" xmlns:xlink="http://www.w3.org/1999/xlink" x="0px" y="0px"
	 viewBox="0 0 512 512" style="enable-background:new 0 0 512 512;" xml:space="preserve">
	<path fill="#001588" d="M394.67,512H117.33C52.56,511.93,0.07,459.44,0,394.67V117.33C0.07,52.56,52.56,0.07,117.33,0h277.33
		C459.44,0.07,511.93,52.56,512,117.33v277.33C511.93,459.44,459.44,511.93,394.67,512z M117.33,64C87.88,64,64,87.88,64,117.33
		v277.33C64,424.12,87.88,448,117.33,448h277.33c29.46,0,53.33-23.88,53.33-53.33V117.33C448,87.88,424.12,64,394.67,64H117.33z"/>
	<path fill="#001588" d="M206.23,379.46c-13.46,0.01-26.37-5.37-35.84-14.93l-63.72-63.62c-12.5-12.49-12.51-32.75-0.01-45.26
		c0-0.01,0.01-0.01,0.01-0.01l0,0c12.5-12.49,32.75-12.49,45.25,0l54.32,54.29l153.86-153.86c12.5-12.49,32.75-12.49,45.25,0l0,0
		c12.5,12.49,12.51,32.75,0.01,45.26c-0.01,0.01-0.01,0.01-0.01,0.01L242.05,364.63C232.57,374.15,219.67,379.49,206.23,379.46z"/>
</svg>
