<?xml version="1.0" encoding="utf-8"?>
<!-- Generator: Adobe Illustrator 27.0.1, SVG Export Plug-In . SVG Version: 6.00 Build 0)  -->
<svg version="1.1" id="Layer_1" xmlns="http://www.w3.org/2000/svg" xmlns:xlink="http://www.w3.org/1999/xlink" x="0px" y="0px"
	 viewBox="0 0 208.18 208.18" style="enable-background:new 0 0 208.18 208.18;" xml:space="preserve">
<style type="text/css">
	.st0{fill:#D800EF;}
	.st1{fill:#00FF97;}
	.st2{fill:#001588;}
	.st3{fill:#FFFFFF;}
</style>
<circle class="st0" cx="104.09" cy="104.09" r="96.67"/>
<g>
	<g>
		<ellipse class="st1" cx="104.09" cy="104.09" rx="97.73" ry="97.73"/>
		<path class="st2" d="M104.09,203.06c-54.57,0-98.97-44.4-98.97-98.97s44.4-98.97,98.97-98.97s98.97,44.4,98.97,98.97
			S158.66,203.06,104.09,203.06z M104.09,7.61C50.89,7.61,7.6,50.89,7.6,104.1s43.28,96.49,96.49,96.49
			c53.2,0,96.49-43.28,96.49-96.49S157.29,7.61,104.09,7.61z"/>
	</g>
	<g>
		<path class="st3" d="M174.85,78.31c-10.53-28.88-38.23-49.51-70.76-49.51c-0.03,0-0.07,0-0.1,0l0.1,73.84L174.85,78.31z"/>
		<path class="st2" d="M104.09,103.89c-0.26,0-0.51-0.08-0.72-0.23c-0.33-0.23-0.52-0.61-0.52-1.01l-0.1-73.84
			c0-0.67,0.53-1.22,1.2-1.24c0.02,0,0.13,0,0.15,0c32.05,0,60.96,20.23,71.93,50.33c0.11,0.31,0.1,0.66-0.05,0.96
			c-0.14,0.3-0.4,0.53-0.72,0.64l-70.76,24.33C104.36,103.87,104.23,103.89,104.09,103.89z M105.23,30.05l0.1,70.85l67.9-23.35
			C162.44,49.44,135.36,30.52,105.23,30.05z"/>
	</g>
	<g>
		<g>
			<circle class="st2" cx="104.09" cy="28.47" r="4.59"/>
			<path class="st2" d="M104.09,34.31c-3.22,0-5.84-2.62-5.84-5.84s2.62-5.84,5.84-5.84c3.22,0,5.84,2.62,5.84,5.84
				C109.93,31.69,107.31,34.31,104.09,34.31z M104.09,25.12c-1.85,0-3.35,1.5-3.35,3.35s1.5,3.35,3.35,3.35s3.35-1.5,3.35-3.35
				C107.44,26.63,105.94,25.12,104.09,25.12z"/>
		</g>
		<g>
			<circle class="st2" cx="104.09" cy="179.71" r="4.59"/>
			<path class="st2" d="M104.09,185.55c-3.22,0-5.84-2.62-5.84-5.84s2.62-5.84,5.84-5.84c3.22,0,5.84,2.62,5.84,5.84
				C109.93,182.93,107.31,185.55,104.09,185.55z M104.09,176.36c-1.85,0-3.35,1.5-3.35,3.35s1.5,3.35,3.35,3.35s3.35-1.5,3.35-3.35
				C107.44,177.86,105.94,176.36,104.09,176.36z"/>
		</g>
		<g>
			<ellipse class="st2" cx="28.47" cy="104.09" rx="4.59" ry="4.59"/>
			<path class="st2" d="M28.47,109.93c-3.22,0-5.84-2.62-5.84-5.84s2.62-5.84,5.84-5.84s5.84,2.62,5.84,5.84
				C34.31,107.31,31.69,109.93,28.47,109.93z M28.47,100.74c-1.85,0-3.35,1.5-3.35,3.35s1.5,3.35,3.35,3.35s3.35-1.5,3.35-3.35
				S30.32,100.74,28.47,100.74z"/>
		</g>
		<g>
			<path class="st2" d="M179.71,99.5c2.54,0,4.59,2.06,4.59,4.59c0,2.54-2.06,4.59-4.59,4.59c-2.54,0-4.59-2.06-4.59-4.59
				C175.12,101.55,177.17,99.5,179.71,99.5z"/>
			<path class="st2" d="M179.71,109.93c-3.22,0-5.84-2.62-5.84-5.84s2.62-5.84,5.84-5.84s5.84,2.62,5.84,5.84
				C185.55,107.31,182.93,109.93,179.71,109.93z M179.71,100.74c-1.85,0-3.35,1.5-3.35,3.35s1.5,3.35,3.35,3.35s3.35-1.5,3.35-3.35
				C183.06,102.24,181.56,100.74,179.71,100.74z"/>
		</g>
	</g>
	<g>
		<g>
			<path class="st2" d="M68.4,37.38c0.68,1.17,0.27,2.66-0.89,3.34c-1.17,0.68-2.66,0.27-3.34-0.89c-0.68-1.17-0.27-2.66,0.89-3.34
				C66.23,35.81,67.72,36.21,68.4,37.38z"/>
			<path class="st2" d="M66.29,42.29c-0.32,0-0.64-0.04-0.96-0.13c-0.95-0.25-1.75-0.86-2.24-1.72c-0.49-0.85-0.62-1.85-0.37-2.8
				c0.26-0.95,0.87-1.75,1.72-2.24c0.85-0.49,1.85-0.62,2.8-0.37c0.95,0.25,1.75,0.86,2.24,1.72c0.49,0.85,0.62,1.85,0.37,2.8
				c-0.26,0.95-0.87,1.75-1.72,2.24C67.56,42.13,66.93,42.29,66.29,42.29z M66.28,37.4c-0.21,0-0.41,0.05-0.6,0.16
				c-0.28,0.16-0.48,0.42-0.56,0.73c-0.08,0.31-0.04,0.63,0.12,0.91s0.42,0.48,0.73,0.56c0.31,0.08,0.63,0.04,0.91-0.12
				c0.28-0.16,0.48-0.42,0.56-0.73c0.08-0.31,0.04-0.63-0.12-0.91s-0.42-0.48-0.73-0.56C66.49,37.42,66.38,37.4,66.28,37.4z"/>
		</g>
		<g>
			<path class="st2" d="M37.38,139.78c1.17-0.68,2.66-0.27,3.34,0.89c0.67,1.17,0.27,2.66-0.89,3.34c-1.17,0.67-2.66,0.27-3.34-0.89
				C35.81,141.95,36.21,140.46,37.38,139.78z"/>
			<path class="st2" d="M38.61,145.59c-1.28,0-2.52-0.66-3.2-1.84c-0.49-0.85-0.62-1.85-0.37-2.8c0.26-0.95,0.87-1.75,1.72-2.24
				c0.85-0.49,1.85-0.62,2.8-0.37s1.75,0.86,2.24,1.72c1.02,1.76,0.41,4.02-1.35,5.04C39.87,145.43,39.23,145.59,38.61,145.59z
				 M38.6,140.7c-0.21,0-0.41,0.05-0.6,0.16c-0.28,0.16-0.48,0.42-0.56,0.73s-0.04,0.63,0.12,0.91c0.33,0.57,1.07,0.77,1.64,0.44
				s0.77-1.07,0.44-1.64c-0.16-0.28-0.42-0.48-0.73-0.56C38.81,140.71,38.71,140.7,38.6,140.7z M37.38,139.78L37.38,139.78
				L37.38,139.78z"/>
		</g>
		<g>
			<path class="st2" d="M168.36,64.16c1.17-0.68,2.66-0.27,3.34,0.89c0.68,1.17,0.27,2.66-0.89,3.34c-1.17,0.68-2.66,0.27-3.34-0.89
				C166.79,66.33,167.19,64.84,168.36,64.16z"/>
			<path class="st2" d="M169.58,69.97c-1.28,0-2.52-0.66-3.2-1.84c-0.49-0.85-0.62-1.85-0.37-2.8c0.26-0.95,0.87-1.75,1.72-2.24
				s1.85-0.62,2.8-0.37s1.75,0.86,2.24,1.72c0.49,0.85,0.62,1.85,0.37,2.8c-0.26,0.95-0.87,1.75-1.72,2.24
				C170.84,69.81,170.21,69.97,169.58,69.97z M169.58,65.08c-0.2,0-0.41,0.05-0.6,0.16l0,0c-0.57,0.33-0.77,1.07-0.44,1.64
				s1.07,0.77,1.64,0.44c0.28-0.16,0.48-0.42,0.56-0.73c0.08-0.31,0.04-0.63-0.12-0.91C170.4,65.3,169.99,65.08,169.58,65.08z
				 M168.36,64.17L168.36,64.17L168.36,64.17z"/>
		</g>
	</g>
	<g>
		<g>
			<path class="st2" d="M39.83,64.16c1.17,0.67,1.57,2.17,0.89,3.34s-2.17,1.57-3.34,0.89c-1.17-0.67-1.57-2.17-0.89-3.34
				C37.16,63.89,38.66,63.49,39.83,64.16z"/>
			<path class="st2" d="M38.6,69.97c-0.64,0-1.27-0.17-1.84-0.5c-0.85-0.49-1.46-1.29-1.72-2.24c-0.26-0.95-0.12-1.94,0.37-2.8
				c1.02-1.76,3.28-2.36,5.04-1.35c0.85,0.49,1.46,1.29,1.72,2.24c0.25,0.95,0.12,1.95-0.37,2.8c-0.49,0.85-1.29,1.46-2.24,1.72
				C39.24,69.93,38.92,69.97,38.6,69.97z M38.61,65.08c-0.42,0-0.82,0.22-1.04,0.6c-0.16,0.28-0.2,0.6-0.12,0.91
				c0.08,0.31,0.28,0.57,0.56,0.73c0.28,0.16,0.6,0.2,0.91,0.12c0.31-0.08,0.57-0.28,0.73-0.56s0.2-0.6,0.12-0.91
				c-0.08-0.31-0.28-0.57-0.56-0.73C39.02,65.13,38.81,65.08,38.61,65.08z"/>
		</g>
		<g>
			<path class="st2" d="M170.8,139.78c1.17,0.67,1.57,2.17,0.89,3.34c-0.67,1.17-2.17,1.57-3.34,0.89
				c-1.17-0.68-1.57-2.17-0.89-3.34C168.14,139.51,169.63,139.11,170.8,139.78z"/>
			<path class="st2" d="M169.57,145.59c-0.64,0-1.27-0.17-1.84-0.5c-1.76-1.02-2.37-3.28-1.35-5.04c1.02-1.76,3.28-2.37,5.04-1.35
				c0.85,0.49,1.46,1.29,1.72,2.24c0.26,0.95,0.13,1.95-0.37,2.8c-0.49,0.85-1.29,1.46-2.24,1.72
				C170.21,145.55,169.89,145.59,169.57,145.59z M169.58,140.7c-0.41,0-0.82,0.22-1.04,0.6c-0.33,0.57-0.13,1.31,0.44,1.64
				s1.31,0.13,1.64-0.44c0.16-0.28,0.2-0.6,0.12-0.91s-0.28-0.57-0.56-0.73l0,0C169.99,140.75,169.78,140.7,169.58,140.7z"/>
		</g>
		<g>
			<path class="st2" d="M64.16,168.36c0.68-1.17,2.17-1.57,3.34-0.89c1.17,0.67,1.57,2.17,0.89,3.34c-0.67,1.17-2.17,1.57-3.34,0.89
				C63.89,171.02,63.49,169.53,64.16,168.36z"/>
			<path class="st2" d="M66.28,173.27c-0.64,0-1.27-0.17-1.84-0.5c-1.76-1.02-2.37-3.28-1.35-5.04c1.02-1.76,3.28-2.36,5.04-1.35
				c0.85,0.49,1.46,1.29,1.72,2.24c0.26,0.95,0.12,1.95-0.37,2.8c-0.49,0.85-1.29,1.46-2.24,1.72
				C66.92,173.23,66.6,173.27,66.28,173.27z M66.28,168.38c-0.42,0-0.82,0.21-1.04,0.6c-0.33,0.57-0.13,1.31,0.44,1.64
				c0.28,0.16,0.6,0.21,0.91,0.12c0.31-0.08,0.57-0.28,0.73-0.56s0.2-0.6,0.12-0.91s-0.28-0.57-0.56-0.73
				C66.69,168.43,66.49,168.38,66.28,168.38z M64.16,168.36h0.01H64.16z"/>
		</g>
		<g>
			<path class="st2" d="M139.78,37.38c0.68-1.17,2.17-1.57,3.34-0.89s1.57,2.17,0.89,3.34c-0.68,1.17-2.17,1.57-3.34,0.89
				C139.51,40.05,139.11,38.55,139.78,37.38z"/>
			<path class="st2" d="M141.89,42.29c-0.63,0-1.26-0.16-1.84-0.49c-0.85-0.49-1.46-1.29-1.72-2.24s-0.12-1.94,0.37-2.8l0,0
				c1.02-1.76,3.28-2.36,5.04-1.35c0.85,0.49,1.46,1.29,1.72,2.24s0.13,1.95-0.37,2.8C144.41,41.63,143.17,42.29,141.89,42.29z
				 M140.86,38c-0.33,0.57-0.13,1.31,0.44,1.64c0.28,0.16,0.6,0.21,0.91,0.12c0.31-0.08,0.57-0.28,0.73-0.56
				c0.16-0.28,0.2-0.6,0.12-0.91s-0.28-0.57-0.56-0.73s-0.6-0.2-0.91-0.12C141.28,37.53,141.02,37.72,140.86,38z"/>
		</g>
		<g>
			<path class="st2" d="M139.78,169.5c0.68-1.17,2.17-1.57,3.34-0.89c1.17,0.67,1.57,2.17,0.89,3.34c-0.68,1.17-2.17,1.57-3.34,0.89
				C139.51,172.16,139.11,170.67,139.78,169.5z"/>
			<path class="st2" d="M141.89,174.41c-0.62,0-1.26-0.16-1.84-0.49c-1.76-1.02-2.37-3.28-1.35-5.04c0.49-0.85,1.29-1.46,2.24-1.72
				c0.95-0.26,1.95-0.13,2.8,0.37c1.76,1.02,2.37,3.28,1.35,5.04C144.41,173.75,143.17,174.41,141.89,174.41z M140.86,170.12
				c-0.33,0.57-0.13,1.31,0.44,1.64s1.31,0.13,1.64-0.44s0.13-1.31-0.44-1.64c-0.28-0.16-0.6-0.2-0.91-0.12
				S141.02,169.84,140.86,170.12z"/>
		</g>
	</g>
	<g>
		<path class="st2" d="M131.48,114.9c-23.03-4.04-29.01-7.58-28.49-10.55s7.35-4.26,30.38-0.22c16.46,2.89,36.47,9.24,46.55,12.63
			c1.54,0.52,1.25,2.17-0.37,2.13C168.92,118.64,147.94,117.79,131.48,114.9z"/>
		<path class="st2" d="M179.6,120.13c-0.03,0-0.05,0-0.08,0c-10.96-0.26-31.81-1.12-48.25-4.01c-10.92-1.92-18.55-3.8-23.33-5.75
			c-1.68-0.69-6.78-2.77-6.17-6.24s6.12-3.69,7.92-3.77c5.15-0.21,12.97,0.62,23.89,2.54c16.45,2.89,36.34,9.18,46.73,12.68
			c1.28,0.43,2.03,1.53,1.83,2.67C181.95,119.36,180.91,120.13,179.6,120.13z M131.7,113.67c15.8,2.78,35.76,3.66,46.88,3.95
			c-10.55-3.52-29.62-9.49-45.42-12.27c-10.59-1.86-18.46-2.71-23.36-2.51c-4.93,0.2-5.51,1.36-5.57,1.71s0.09,1.64,4.66,3.51
			C113.43,109.93,121.1,111.81,131.7,113.67z"/>
	</g>
	<g>
		<path class="st2" d="M118.52,84.06c-4.3,14.23-8.47,17.29-12.13,16.19c-3.67-1.11-5.44-5.96-1.14-20.2
			c3.07-10.17,10.29-21.82,14.16-27.64c0.59-0.89,2.62-0.27,2.62,0.79C122.03,60.19,121.6,73.89,118.52,84.06z"/>
		<path class="st2" d="M107.79,101.71c-0.56,0-1.15-0.09-1.75-0.27c-7.02-2.12-4.49-13.43-1.97-21.75
			c3.1-10.27,10.3-21.93,14.31-27.97c0.58-0.87,1.73-1.2,2.93-0.84s1.98,1.27,1.98,2.32c0,7.25-0.46,20.95-3.56,31.21
			C117.42,92.02,113.75,101.71,107.79,101.71z M120.36,53.23c-3.95,5.96-10.93,17.29-13.92,27.18c-2.34,7.76-4.19,17.29,0.31,18.65
			c4.52,1.37,8.24-7.6,10.58-15.36c2.99-9.89,3.45-23.19,3.45-30.34C120.68,53.29,120.49,53.23,120.36,53.23z M118.52,84.06h0.01
			H118.52z"/>
	</g>
	<g>
		<ellipse class="st2" cx="104.92" cy="103.51" rx="9.74" ry="9.74"/>
		<path class="st3" d="M104.92,114.48c-6.06,0-10.98-4.93-10.98-10.98s4.93-10.98,10.98-10.98c6.06,0,10.98,4.93,10.98,10.98
			S110.98,114.48,104.92,114.48z M104.92,95.01c-4.68,0-8.49,3.81-8.49,8.49s3.81,8.49,8.49,8.49s8.49-3.81,8.49-8.49
			C113.42,98.82,109.61,95.01,104.92,95.01z"/>
	</g>
</g>
</svg>
