<?xml version="1.0" encoding="utf-8"?>
<!-- Generator: Adobe Illustrator 27.0.1, SVG Export Plug-In . SVG Version: 6.00 Build 0)  -->
<svg version="1.1" id="Layer_1" xmlns="http://www.w3.org/2000/svg" xmlns:xlink="http://www.w3.org/1999/xlink" x="0px" y="0px"
	 viewBox="0 0 48 48" style="enable-background:new 0 0 48 48;" xml:space="preserve">
<style type="text/css">
	.st0{fill:#FFFFFF;}
</style>
<path class="st0" d="M13.05,42c-0.83,0-1.54-0.29-2.12-0.88c-0.58-0.58-0.88-1.29-0.88-2.12V10.5H8v-3h9.4V6h13.2v1.5H40v3h-2.05V39
	c0,0.8-0.3,1.5-0.9,2.1c-0.6,0.6-1.3,0.9-2.1,0.9H13.05z M34.95,10.5h-21.9V39h21.9V10.5z M18.35,34.7h3V14.75h-3V34.7z M26.65,34.7
	h3V14.75h-3V34.7z M13.05,10.5V39V10.5z"/>
</svg>
