<?xml version="1.0" encoding="utf-8"?>
<!-- Generator: Adobe Illustrator 27.0.1, SVG Export Plug-In . SVG Version: 6.00 Build 0)  -->
<svg version="1.1" id="Layer_1" xmlns="http://www.w3.org/2000/svg" xmlns:xlink="http://www.w3.org/1999/xlink" x="0px" y="0px"
	 viewBox="0 0 24 24" style="enable-background:new 0 0 24 24;" xml:space="preserve">
<style type="text/css">
	.st0{fill:#FFFFFF;}
</style>
<path class="st0" d="M21,6h-3.17L16,4h-6v2h5.12l1.83,2H21v12H5v-9H3v9c0,1.1,0.9,2,2,2h16c1.1,0,2-0.9,2-2V8C23,6.9,22.1,6,21,6z
	 M8,14c0,2.76,2.24,5,5,5s5-2.24,5-5s-2.24-5-5-5S8,11.24,8,14z M13,11c1.65,0,3,1.35,3,3s-1.35,3-3,3s-3-1.35-3-3S11.35,11,13,11z
	 M5,6h3V4H5V1H3v3H0v2h3v3h2V6z"/>
</svg>
