<svg xmlns="http://www.w3.org/2000/svg" xmlns:xlink="http://www.w3.org/1999/xlink" x="0px" y="0px"
	 viewBox="0 0 91.15 91.15" xml:space="preserve">
<style type="text/css">
	.st1{fill:#283371;}
	.st2{fill:#D72929;}
	.st3{fill:#FFFFFF;stroke:#283371;stroke-miterlimit:10;}
	.st4{fill:none;stroke:#283371;stroke-linecap:round;stroke-linejoin:round;stroke-miterlimit:10;}
</style>
<g>
	<circle fill="#ffffff" cx="43.78" cy="43.78" r="40.46"/>
	<path class="st1" d="M2.81,43.78c0-22.59,18.38-40.98,40.98-40.98c22.59,0,40.98,18.38,40.98,40.98S66.38,84.76,43.78,84.76
		C21.19,84.76,2.81,66.38,2.81,43.78z M3.84,43.78c0,22.03,17.92,39.95,39.95,39.95s39.95-17.92,39.95-39.95S65.81,3.84,43.78,3.84
		S3.84,21.76,3.84,43.78z"/>
</g>
<g>
	
		<ellipse transform="matrix(0.9951 -0.0985 0.0985 0.9951 -4.1023 4.5326)" class="st2" cx="43.84" cy="43.8" rx="36.48" ry="36.48"/>
	<path class="st1" d="M6.84,43.8c0-20.4,16.6-37,37-37c20.4,0,37,16.6,37,37c0,20.4-16.6,37-37,37C23.43,80.8,6.84,64.2,6.84,43.8z
		 M7.87,43.8c0,19.83,16.14,35.97,35.97,35.97c19.83,0,35.97-16.14,35.97-35.97c0-19.83-16.14-35.97-35.97-35.97
		C24,7.83,7.87,23.96,7.87,43.8z"/>
</g>
<g>
	<path fill="#ffffff" d="M14.49,33.11c4.36-11.96,15.83-20.5,29.3-20.5c0.01,0,0.03,0,0.04,0l-0.04,30.57L14.49,33.11z"/>
	<path class="st1" d="M43.62,43.67L14.32,33.6c-0.13-0.04-0.24-0.14-0.3-0.27c-0.06-0.12-0.07-0.27-0.02-0.4
		C18.55,20.47,30.51,12.1,43.78,12.1c0.01,0,0.05,0,0.06,0c0.28,0.01,0.5,0.24,0.5,0.51L44.3,43.19c0,0.17-0.08,0.32-0.22,0.42
		c-0.09,0.06-0.19,0.1-0.3,0.1C43.73,43.7,43.67,43.69,43.62,43.67z M15.16,32.8l28.11,9.67l0.04-29.33
		C30.84,13.32,19.63,21.16,15.16,32.8z"/>
</g>
<g>
	<path class="st1" d="M32.44,48.26c9.53-1.67,12.01-3.14,11.79-4.37c-0.22-1.23-3.04-1.76-12.58-0.09
		c-6.81,1.2-15.1,3.83-19.27,5.23c-0.64,0.21-0.52,0.9,0.15,0.88C16.94,49.81,25.63,49.45,32.44,48.26z"/>
	<path class="st1" d="M11.47,49.64c-0.08-0.47,0.23-0.93,0.76-1.1c4.3-1.45,12.54-4.05,19.35-5.25c4.52-0.79,7.76-1.14,9.89-1.05
		c0.75,0.03,3.03,0.12,3.28,1.56c0.25,1.44-1.86,2.3-2.55,2.58c-1.98,0.81-5.14,1.59-9.66,2.38c-6.81,1.2-15.44,1.55-19.98,1.66
		c-0.01,0-0.02,0-0.03,0C11.98,50.42,11.55,50.11,11.47,49.64z M41.8,45.43c1.89-0.77,1.95-1.31,1.93-1.45
		c-0.03-0.15-0.27-0.63-2.31-0.71c-2.03-0.08-5.29,0.27-9.67,1.04c-6.54,1.15-14.43,3.62-18.8,5.08c4.61-0.12,12.87-0.48,19.41-1.63
		C36.74,46.98,39.92,46.2,41.8,45.43z"/>
</g>
<g>
	<path class="st1" d="M37.81,35.49c1.78,5.89,3.5,7.16,5.02,6.7c1.52-0.46,2.25-2.47,0.47-8.36c-1.27-4.21-4.26-9.03-5.86-11.44
		c-0.24-0.37-1.09-0.11-1.09,0.33C36.36,25.61,36.54,31.28,37.81,35.49z"/>
	<path class="st1" d="M37.32,35.64c-1.28-4.25-1.47-9.92-1.47-12.92c0-0.43,0.32-0.81,0.82-0.96c0.5-0.15,0.97-0.01,1.21,0.35
		c1.66,2.5,4.64,7.33,5.93,11.58c1.04,3.44,2.09,8.13-0.82,9c-0.25,0.08-0.49,0.11-0.73,0.11C39.78,42.8,38.27,38.79,37.32,35.64z
		 M36.87,22.78c0,2.96,0.19,8.47,1.43,12.56c0.97,3.21,2.51,6.92,4.38,6.36c1.86-0.56,1.1-4.51,0.13-7.72
		c-1.24-4.1-4.13-8.79-5.76-11.25C37,22.73,36.92,22.75,36.87,22.78z M37.8,35.49L37.8,35.49L37.8,35.49z"/>
</g>
<g>
	
		<ellipse transform="matrix(0.9732 -0.2298 0.2298 0.9732 -8.8413 11.1451)" class="st1" cx="43.44" cy="43.54" rx="4.03" ry="4.03"/>
	<path fill="#ffffff" d="M38.89,43.54c0-2.51,2.04-4.55,4.55-4.55c2.51,0,4.55,2.04,4.55,4.55c0,2.51-2.04,4.55-4.55,4.55
		C40.93,48.09,38.89,46.05,38.89,43.54z M39.92,43.54c0,1.94,1.58,3.52,3.52,3.52c1.94,0,3.52-1.58,3.52-3.52
		c0-1.94-1.58-3.52-3.52-3.52C41.5,40.02,39.92,41.6,39.92,43.54z"/>
</g>
<circle class="st3" cx="67.92" cy="67.92" r="19.93"/>
<g>
	<line class="st4" x1="58.85" y1="67.92" x2="76.98" y2="67.92"/>
	<line class="st4" x1="58.85" y1="67.92" x2="67.92" y2="58.55"/>
	<line class="st4" x1="67.92" y1="77.28" x2="58.85" y2="67.92"/>
</g>
</svg>
