<svg  xmlns="http://www.w3.org/2000/svg" xmlns:xlink="http://www.w3.org/1999/xlink" x="0px" y="0px"
	 viewBox="0 0 48 48" style="enable-background:new 0 0 48 48;" xml:space="preserve">
<path fill="#FFFFFF" d="M9,42c-0.8,0-1.5-0.3-2.1-0.9C6.3,40.5,6,39.8,6,39V9c0-0.8,0.3-1.5,0.9-2.1S8.2,6,9,6h19.7v3H9v30h30V19.3h3
	V39c0,0.8-0.3,1.5-0.9,2.1C40.5,41.7,39.8,42,39,42H9z M16.05,34.15v-3H32v3H16.05z M16.05,27.8v-3H32v3H16.05z M16.05,21.45v-3H32
	v3H16.05z M34.6,17.8v-4.4h-4.4v-3h4.4V6h3v4.4H42v3h-4.4v4.4H34.6z"/>
</svg>
