<svg  xmlns="http://www.w3.org/2000/svg" xmlns:xlink="http://www.w3.org/1999/xlink" x="0px" y="0px"
	 viewBox="0 0 48 48" style="enable-background:new 0 0 48 48;" xml:space="preserve">
<path fill="#ffffff" d="M36.5,28v-6.5H30v-3h6.5V12h3v6.5H46v3h-6.5V28H36.5z M18,23.95c-2.2,0-4-0.7-5.4-2.1c-1.4-1.4-2.1-3.2-2.1-5.4
	s0.7-4,2.1-5.4s3.2-2.1,5.4-2.1s4,0.7,5.4,2.1c1.4,1.4,2.1,3.2,2.1,5.4s-0.7,4-2.1,5.4C22,23.25,20.2,23.95,18,23.95z M2,40v-4.7
	c0-1.17,0.29-2.22,0.88-3.17C3.46,31.18,4.3,30.47,5.4,30c2.5-1.1,4.72-1.88,6.68-2.33C14.03,27.23,16,27,18,27s3.97,0.23,5.9,0.67
	c1.93,0.45,4.15,1.23,6.65,2.33c1.1,0.5,1.95,1.22,2.55,2.15c0.6,0.93,0.9,1.98,0.9,3.15V40H2z M5,37h26v-1.7
	c0-0.53-0.15-1.04-0.45-1.53c-0.3-0.48-0.7-0.84-1.2-1.08c-2.37-1.1-4.37-1.82-6-2.17S19.93,30,18,30s-3.72,0.18-5.38,0.52
	c-1.65,0.35-3.66,1.08-6.03,2.18c-0.5,0.23-0.89,0.59-1.17,1.08S5,34.77,5,35.3V37z M18,20.95c1.3,0,2.38-0.42,3.23-1.27
	c0.85-0.85,1.27-1.93,1.27-3.23s-0.43-2.38-1.27-3.23c-0.85-0.85-1.92-1.28-3.23-1.28s-2.38,0.43-3.23,1.27
	c-0.85,0.85-1.27,1.93-1.27,3.23s0.43,2.38,1.27,3.23C15.62,20.53,16.7,20.95,18,20.95z"/>
</svg>
