<svg  xmlns="http://www.w3.org/2000/svg" xmlns:xlink="http://www.w3.org/1999/xlink" x="0px" y="0px"
	 viewBox="0 0 48 48" xml:space="preserve">
<path fill="#ffffff" d="M6,40V9c0-0.83,0.29-1.54,0.88-2.12S8.17,6,9,6h26c0.83,0,1.54,0.29,2.12,0.88S38,8.17,38,9v11.15
	c-0.33-0.07-0.67-0.11-1-0.12S36.33,20,36,20h-0.5c-0.17,0-0.33,0.02-0.5,0.05V9H9v22h15.05C24.02,31.17,24,31.33,24,31.5V32
	c0,0.33,0.01,0.67,0.02,1s0.06,0.67,0.12,1H12L6,40z M14,17h16v-3H14V17z M14,25.5h10v-3H14V25.5z M34.5,39.5v-6h-6v-3h6v-6h3v6h6v3
	h-6v6H34.5z M9,31V9V31z"/>
</svg>
