<?xml version="1.0" encoding="utf-8"?>
<!-- Generator: Adobe Illustrator 22.1.0, SVG Export Plug-In . SVG Version: 6.00 Build 0)  -->
<svg version="1.1" id="Layer_1" xmlns="http://www.w3.org/2000/svg" xmlns:xlink="http://www.w3.org/1999/xlink" x="0px" y="0px"
	 viewBox="0 0 512 512" style="enable-background:new 0 0 512 512;" xml:space="preserve">
<style type="text/css">
	.st0{fill:#2A317C;}
	.st1{fill:#FFFFFF;}
</style>
<path class="st0" d="M495.1,505.96H18.01c-6.6,0-12-5.4-12-12V16.87c0-6.6,5.4-12,12-12H495.1c6.6,0,12,5.4,12,12v477.09
	C507.1,500.56,501.7,505.96,495.1,505.96z"/>
<path class="st1" d="M295.49,426.55c-4.29,0-7.97-2.94-10.08-8.06l-17.96-43.68c-3.06,0.27-6.58,0.4-10.89,0.4
	c-97.1,0-176.1-63.91-176.1-142.47c0-78.56,79-142.47,176.1-142.47c97.1,0,176.1,63.91,176.1,142.47
	c0,45.14-25.59,86.61-70.21,113.82l-57.48,74.54C302.27,424.62,298.9,426.55,295.49,426.55z M256.56,152.56
	c-61.7,0-113.83,36.72-113.83,80.19c0,43.47,52.13,80.19,113.83,80.19c1.32,0,2.27-0.05,3.32-0.11c1.5-0.08,3.15-0.17,6.13-0.17
	c26.06,0,54.66-13.61,54.94-13.75l8.82-5.36c25.81-15.65,40.62-37.82,40.62-60.81C370.38,189.28,318.26,152.56,256.56,152.56z"/>
</svg>
