<?xml version="1.0" encoding="utf-8"?>
<!-- Generator: Adobe Illustrator 22.0.1, SVG Export Plug-In . SVG Version: 6.00 Build 0)  -->
<svg version="1.1" id="Layer_1" xmlns="http://www.w3.org/2000/svg" xmlns:xlink="http://www.w3.org/1999/xlink" x="0px" y="0px"
	 viewBox="0 0 428.03 215.19" style="enable-background:new 0 0 428.03 215.19;" xml:space="preserve">
<style type="text/css">
	.st0{fill:none;}
	.st1{fill:#ffffff;}
	.st2{fill:#ffffff;}
</style>
<g>
	<path class="st0" d="M417.12,101.3h-3.3v3.49h3.3c0.68,0,1.16-0.13,1.44-0.41c0.28-0.13,0.41-0.55,0.41-1.24
		c0-0.68-0.13-1.1-0.41-1.24C418.16,101.5,417.67,101.3,417.12,101.3z"/>
	<path class="st0" d="M423.09,99.03c-0.69-0.68-1.72-1.44-3.09-2.26c-1.24-0.41-2.54-0.62-3.91-0.62c-1.24,0-2.47,0.21-3.7,0.62
		c-0.55,0.41-1.1,0.76-1.64,1.03c-0.55,0.28-1.03,0.62-1.45,1.03c-0.82,0.82-1.58,1.92-2.26,3.29c-0.55,1.64-0.82,2.95-0.82,3.91
		c0,0.83,0.28,2.06,0.82,3.71c0.28,0.69,0.96,1.72,2.06,3.09c0.82,0.82,1.92,1.57,3.29,2.27c1.24,0.41,2.47,0.61,3.7,0.61
		c1.24,0,2.47-0.2,3.7-0.61c1.37-0.69,2.47-1.45,3.3-2.27c0.96-0.96,1.65-1.99,2.06-3.09c0.55-1.09,0.82-2.33,0.82-3.71
		c0-1.37-0.21-2.6-0.62-3.71C424.66,100.95,423.92,99.86,423.09,99.03z M418.97,112.21c-0.13-0.41-0.2-0.68-0.2-0.82
		c0-0.41,0-0.68,0-0.83v-1.44c-0.28-0.83-0.48-1.37-0.61-1.65c-0.29-0.27-0.76-0.41-1.45-0.41h-2.88v5.15h-2.67v-11.73
		c0-0.82,0.48-1.23,1.44-1.23h4.94c1.51,0,2.54,0.28,3.09,0.82c0.68,0.56,1.03,1.52,1.03,2.88c0,0.96-0.14,1.59-0.41,1.85
		c-0.56,0.69-1.03,1.1-1.45,1.24c0.55,0.28,0.96,0.56,1.23,0.83c0.27,0.55,0.42,1.17,0.42,1.85v1.65c0,0.14,0,0.3,0,0.52
		c0,0.21,0,0.38,0,0.51c0,0.14,0.03,0.31,0.1,0.51c0.07,0.21,0.24,0.31,0.51,0.31H418.97z"/>
	<path class="st1" d="M427,101.5c-0.41-1.37-1.24-2.6-2.47-3.7c-0.97-0.96-2.27-1.85-3.91-2.68c-1.37-0.68-2.88-1.02-4.53-1.02
		c-2.19,0-4.11,0.55-5.76,1.64c-1.92,0.82-3.36,2.2-4.33,4.11c-0.27,0.55-0.51,1.06-0.72,1.55c-0.21,0.48-0.38,0.92-0.52,1.33
		c-0.27,1.37-0.41,2.47-0.41,3.29c0,1.65,0.27,3.09,0.83,4.33c0.54,1.37,1.36,2.68,2.46,3.91c1.24,1.1,2.54,1.92,3.91,2.47
		c1.51,0.68,3.02,1.02,4.53,1.02c1.1,0,2.6-0.28,4.53-0.82c1.37-0.55,2.68-1.44,3.91-2.68c0.96-0.96,1.78-2.19,2.47-3.71
		c0.69-1.5,1.03-3.01,1.03-4.53C428.03,104.66,427.69,103.15,427,101.5z M425.15,109.73c-0.41,1.1-1.1,2.13-2.06,3.09
		c-0.82,0.82-1.92,1.57-3.3,2.27c-1.23,0.41-2.47,0.61-3.7,0.61c-1.24,0-2.47-0.2-3.7-0.61c-1.37-0.69-2.47-1.45-3.29-2.27
		c-1.1-1.37-1.79-2.4-2.06-3.09c-0.55-1.64-0.82-2.88-0.82-3.71c0-0.96,0.28-2.26,0.82-3.91c0.69-1.37,1.44-2.47,2.26-3.29
		c0.42-0.42,0.89-0.76,1.45-1.03c0.54-0.27,1.1-0.62,1.64-1.03c1.24-0.41,2.47-0.62,3.7-0.62c1.37,0,2.68,0.21,3.91,0.62
		c1.37,0.82,2.4,1.58,3.09,2.26c0.82,0.82,1.57,1.92,2.26,3.29c0.41,1.1,0.62,2.34,0.62,3.71
		C425.97,107.41,425.7,108.64,425.15,109.73z"/>
	<path class="st2" d="M421.44,111.38c0-0.13,0-0.31,0-0.51c0-0.21,0-0.38,0-0.52v-1.65c0-0.68-0.14-1.3-0.42-1.85
		c-0.28-0.27-0.68-0.55-1.23-0.83c0.42-0.13,0.89-0.54,1.45-1.24c0.27-0.27,0.41-0.89,0.41-1.85c0-1.37-0.35-2.33-1.03-2.88
		c-0.55-0.54-1.58-0.82-3.09-0.82h-4.94c-0.96,0-1.44,0.41-1.44,1.23v11.73h2.67v-5.15h2.88c0.69,0,1.16,0.14,1.45,0.41
		c0.13,0.28,0.33,0.82,0.61,1.65v1.44c0,0.15,0,0.41,0,0.83c0,0.14,0.07,0.41,0.2,0.82h3.09c-0.28,0-0.45-0.1-0.51-0.31
		C421.48,111.69,421.44,111.53,421.44,111.38z M418.56,104.38c-0.28,0.28-0.76,0.41-1.44,0.41h-3.3v-3.49h3.3
		c0.54,0,1.03,0.2,1.44,0.62c0.28,0.14,0.41,0.55,0.41,1.24C418.97,103.84,418.84,104.25,418.56,104.38z"/>
	<path class="st1" d="M279.42,215.19c-1.26,0-2.33-0.86-2.95-2.36l-5.26-12.79c-0.9,0.08-1.93,0.12-3.19,0.12
		c-28.44,0-51.57-18.72-51.57-41.72c0-23,23.13-41.72,51.57-41.72c28.44,0,51.57,18.72,51.57,41.72c0,13.22-7.49,25.36-20.56,33.33
		l-16.83,21.83C281.4,214.62,280.42,215.19,279.42,215.19z M268.02,134.95c-18.07,0-33.33,10.75-33.33,23.48
		c0,12.73,15.26,23.48,33.33,23.48c0.39,0,0.66-0.01,0.97-0.03c0.44-0.02,0.92-0.05,1.79-0.05c7.63,0,16.01-3.98,16.09-4.03
		l2.58-1.57c7.56-4.58,11.89-11.07,11.89-17.81C301.35,145.7,286.08,134.95,268.02,134.95z"/>
	<path class="st1" d="M0,93.4l11-0.1c3.01,0,5.63,1.09,7.78,3.24c2.15,2.15,3.24,4.77,3.24,7.77v21.06
		c3.59-4.89,8.39-8.09,14.32-9.53c2.69-0.65,5.38-0.98,7.97-0.98c3.9,0,7.75,0.75,11.43,2.22c5.73,2.46,10.59,6.38,14.46,11.68
		c3.89,5.33,5.86,12.76,5.86,22.09v47.24l-0.8,0.09H54.44l-0.1-42.23c0-2.92-0.25-5.64-0.74-8.1c-0.48-2.38-1.6-4.86-3.32-7.36
		c-2.82-3.95-6.75-5.96-11.65-5.96c-5.31,0-9.44,1.91-12.27,5.69c-2.88,3.85-4.34,9.24-4.34,16.03v41.84l-21.92,0.1L0,93.4z"/>
	<path class="st1" d="M118.24,199.68c-11.6,0-20.8-3.83-27.33-11.39c-6.5-7.31-9.8-17.9-9.8-31.45c0-12.95,3.2-23.23,9.5-30.55
		c6.54-7.56,15.73-11.39,27.33-11.39c12.19,0,21.78,3.72,28.51,11.07c6.52,7.54,9.82,18.12,9.82,31.47v3.3
		c0,1.13-0.13,1.93-0.38,2.46l-0.19,0.39l-51.72,0.05c0.37,5.58,1.83,9.77,4.34,12.46c2.46,3.03,6.19,4.55,11.12,4.55
		c3.25,0,6.04-0.67,8.3-1.99c0.63-0.23,1.07-0.51,1.49-0.93l1.54-1.54c0.3-0.71,1.08-1.53,2.44-2.58c1.44-1.11,3.47-1.67,6.04-1.67
		h15.91l-0.22,0.88c-2.13,8.61-6.45,15.27-12.83,19.79C135.83,197.31,127.79,199.68,118.24,199.68z M118.54,133.93
		c-4.16,0-7.61,1.34-10.24,3.97c-2.51,2.51-3.93,6.12-4.23,10.74l29-0.09c-0.55-4.79-1.89-8.38-4.01-10.67
		C126.63,135.26,123.09,133.93,118.54,133.93z"/>
	<path class="st1" d="M161.57,198.18l-0.1-104.79l11.61-0.1c3,0,5.61,1.03,7.76,3.07c2.16,2.06,3.25,4.63,3.25,7.64v94.08l-0.8,0.09
		H161.57z"/>
	<path class="st1" d="M188.87,198.18l-0.1-104.79l11.6-0.1c3,0,5.61,1.03,7.76,3.07c2.16,2.06,3.25,4.63,3.25,7.64v94.08l-0.8,0.09
		H188.87z"/>
	<path class="st1" d="M359.66,199.68c-8.75-0.41-16.81-2.87-23.98-7.33c-7.32-4.53-11.04-13.96-11.04-28v-47.54l22.52-0.1l0.1,51.84
		c0,4.53,1.31,7.85,3.9,9.88c2.64,2.08,5.7,3.13,9.11,3.13c3.41,0,6.53-1.06,9.27-3.14c2.68-2.03,4.04-5.35,4.04-9.87v-40.83
		c0-3,1.03-5.61,3.07-7.76c2.05-2.16,4.72-3.25,7.94-3.25h11.22l0.1,47.64c0,14.45-3.87,24.08-11.5,28.61
		C376.9,197.42,368.58,199.68,359.66,199.68L359.66,199.68z"/>
	<g>
		<path class="st1" d="M25.59,78.57c-3.89,0-7.42-0.81-10.56-2.44c-3.15-1.63-5.84-3.77-8.07-6.42c-2.23-2.65-3.95-5.68-5.15-9.08
			C0.6,57.23,0,53.72,0,50.11c0-3.75,0.69-7.34,2.07-10.78c1.38-3.43,3.27-6.48,5.68-9.13c2.41-2.65,5.22-4.76,8.44-6.32
			c3.22-1.56,6.67-2.34,10.35-2.34c2.19,0,4.33,0.32,6.42,0.96c2.09,0.64,4.07,1.52,5.95,2.65c1.87,1.13,3.61,2.46,5.2,3.98
			c1.59,1.52,2.92,3.17,3.98,4.94V22.4h2.12v73.47c0,1.41,0.57,2.12,1.7,2.12v2.12c-0.71,0-1.2-0.07-1.49-0.21
			c-0.78-0.35-1.36-0.9-1.75-1.65c-0.39-0.74-0.58-1.54-0.58-2.39v-31c-3.12,4.46-6.57,7.86-10.35,10.19
			C33.96,77.4,29.9,78.57,25.59,78.57z M25.59,76.44c2.62,0,5.06-0.44,7.33-1.33c2.26-0.88,4.35-2.07,6.26-3.56s3.61-3.19,5.1-5.1
			s2.76-3.93,3.82-6.05V40.56c-0.21-2.19-1.03-4.32-2.44-6.37c-1.42-2.05-3.15-3.86-5.2-5.41c-2.05-1.56-4.3-2.8-6.74-3.72
			c-2.44-0.92-4.83-1.38-7.17-1.38c-3.61,0-6.9,0.76-9.87,2.28c-2.97,1.52-5.54,3.54-7.7,6.05c-2.16,2.51-3.84,5.35-5.04,8.49
			c-1.2,3.15-1.8,6.35-1.8,9.61c0,3.47,0.58,6.8,1.75,9.98c1.17,3.19,2.8,5.98,4.88,8.39c2.09,2.41,4.57,4.34,7.43,5.79
			C19.06,75.72,22.19,76.44,25.59,76.44z"/>
		<path class="st1" d="M85.15,78.57c-11.82,0-17.73-8.42-17.73-25.27V22.4h2.12v30.9c0,15.43,5.2,23.15,15.61,23.15
			c2.62,0,5.2-0.48,7.75-1.43c2.55-0.96,4.88-2.26,7.01-3.93c2.12-1.66,3.98-3.66,5.57-6c1.59-2.34,2.81-4.88,3.66-7.64V22.4h2.12
			v50.86c0,1.42,0.57,2.12,1.7,2.12v2.12c-0.78,0-1.27-0.07-1.49-0.21c-0.71-0.28-1.27-0.8-1.7-1.54c-0.42-0.74-0.64-1.57-0.64-2.49
			v-9.77c-2.41,4.67-5.77,8.35-10.09,11.04C94.74,77.22,90.1,78.57,85.15,78.57z"/>
		<path class="st1" d="M129.21,8.18V0h2.12v8.18H129.21z M129.21,77.51V22.4h2.12v55.1H129.21z"/>
		<path class="st1" d="M145.13,49.69c0-3.96,0.67-7.66,2.02-11.09c1.34-3.43,3.22-6.41,5.63-8.92c2.41-2.51,5.22-4.49,8.44-5.95
			c3.22-1.45,6.71-2.18,10.46-2.18c4.67,0,8.83,1.08,12.48,3.24c3.64,2.16,6.39,5.19,8.23,9.08l-2.12,0.74
			c-1.84-3.4-4.44-6.07-7.8-8.02c-3.36-1.95-7.06-2.92-11.1-2.92c-3.4,0-6.55,0.67-9.45,2.02c-2.9,1.35-5.45,3.19-7.64,5.52
			c-2.19,2.34-3.91,5.1-5.15,8.28c-1.24,3.19-1.86,6.58-1.86,10.19c0,3.61,0.64,7.04,1.91,10.3c1.27,3.26,3.03,6.1,5.26,8.55
			c2.23,2.44,4.79,4.37,7.7,5.79c2.9,1.42,6.02,2.12,9.34,2.12c2.12,0,4.26-0.32,6.42-0.96c2.16-0.64,4.14-1.49,5.95-2.55
			s3.34-2.3,4.62-3.72c1.27-1.41,2.12-2.87,2.55-4.35l2.12,0.64c-0.64,1.84-1.65,3.56-3.03,5.15c-1.38,1.59-3.03,2.97-4.94,4.14
			c-1.91,1.17-4.02,2.09-6.32,2.76c-2.3,0.67-4.65,1.01-7.06,1.01c-3.61,0-7.04-0.76-10.3-2.28c-3.26-1.52-6.09-3.59-8.49-6.21
			c-2.41-2.62-4.32-5.68-5.73-9.18C145.84,57.39,145.13,53.65,145.13,49.69z"/>
		<path class="st1" d="M246.85,77.51l-23.46-31.53l-14.97,13.59v17.94h-2.12V0h2.12v56.7L246,22.61h2.87l-23.89,21.87l24.42,33.02
			H246.85z"/>
	</g>
</g>
</svg>
