<?xml version="1.0" encoding="utf-8"?>
<!-- Generator: Adobe Illustrator 22.1.0, SVG Export Plug-In . SVG Version: 6.00 Build 0)  -->
<svg version="1.1" id="Capa_1" xmlns="http://www.w3.org/2000/svg" xmlns:xlink="http://www.w3.org/1999/xlink" x="0px" y="0px"
	 viewBox="0 0 490.67 490.67" style="enable-background:new 0 0 490.67 490.67;" xml:space="preserve">
<style type="text/css">
	.st0{fill:#ffffff;}
</style>
<g>
	<g>
		<path class="st0" d="M245.33,0C110.06,0,0,110.06,0,245.33s110.06,245.33,245.33,245.33s245.33-110.06,245.33-245.33
			S380.61,0,245.33,0z M245.33,469.33c-123.52,0-224-100.48-224-224s100.48-224,224-224s224,100.48,224,224
			S368.85,469.33,245.33,469.33z"/>
	</g>
</g>
<g>
	<g>
		<path class="st0" d="M245.33,234.67c-76.46,0-138.67,62.21-138.67,138.67c0,5.89,4.78,10.67,10.67,10.67S128,379.22,128,373.33
			C128,308.63,180.63,256,245.33,256s117.33,52.63,117.33,117.33c0,5.89,4.78,10.67,10.67,10.67S384,379.22,384,373.33
			C384,296.88,321.79,234.67,245.33,234.67z"/>
	</g>
</g>
<g>
	<g>
		<path class="st0" d="M245.33,64c-41.17,0-74.67,33.49-74.67,74.67s33.49,74.67,74.67,74.67S320,179.84,320,138.67
			S286.51,64,245.33,64z M245.33,192c-29.4,0-53.33-23.94-53.33-53.33s23.94-53.33,53.33-53.33s53.33,23.94,53.33,53.33
			S274.73,192,245.33,192z"/>
	</g>
</g>
</svg>
