<svg xmlns="http://www.w3.org/2000/svg" xmlns:xlink="http://www.w3.org/1999/xlink" x="0px" y="0px"
	 viewBox="0 0 284.57 241.23" style="enable-background:new 0 0 284.57 241.23;" xml:space="preserve">
<style type="text/css">
	.st0{fill:#FFFFFF;}
</style>
<g>
	<path class="st0" d="M133.55,149.79l-7.28,0.05l0.03,27.25c-1.03-3.1-2.54-5.84-4.58-7.91c-7.63-8.43-27.46-8.85-35.05,0.19
		c-2.65,2.86-4.41,6.51-5.29,10.87c-0.78-7.9-5.13-13.41-12.62-16.57c-7.17-2.7-16.53-1.25-21.17,4.84c0,0,0-12.3,0-12.3
		c0.09-3.44-3.22-6.51-6.92-6.42l-6.9,0.05l0.05,61.18l13.76-0.06v-24.43c0-3.97,0.92-7.11,2.73-9.36
		c3.25-4.34,11.78-4.56,15.02,0.16c2.23,2.96,2.49,5.55,2.55,9.03l0.06,24.66H81l0.51-0.06c0,0,0-8.38,0-15.9
		c2.35,10.31,9.83,17.09,22.5,17.14c5.99,0,11.04-1.39,15-4.13c3.37-2.19,5.83-5.41,7.31-9.29l0.01,12.23l14.15,0v-54.99
		c0-1.75-0.69-3.25-2.04-4.46C137.07,150.4,135.44,149.79,133.55,149.79z M104.19,173.83c5.91,0.05,8.44,3.07,9.12,8.54l-18.2,0.05
		C95.38,177.27,98.76,173.83,104.19,173.83z M117.2,196.03c-4.53-0.11-4.8,2.47-7.23,3.93c-3.34,2-9.9,1.51-12.19-1.49
		c-1.57-1.57-2.49-4.02-2.72-7.28l31.25-0.03l0,4.87C123.88,196.03,117.2,196.03,117.2,196.03z"/>
	<path class="st0" d="M250.74,162.91c0,0-6.49,0-6.49,0c-4.17-0.12-7.45,3.65-7.4,8.09l0,17.14c-0.07,6.15-4.9,10.72-9.98,10.77
		c-5.03,0.05-9.79-5.52-9.78-10.78c0.01-9.22-0.06-25.21-0.06-25.21l-14.09,0.07v11.12c-0.95-1.87-2.11-3.54-3.53-4.92
		c-3.99-4.19-11.15-6.4-18.32-6.46c-7.17,0.06-14.33,2.26-18.32,6.46c-2.4,2.32-4.1,5.49-5.17,9.06v-22.21
		c0-1.75-0.69-3.25-2.04-4.46c-1.35-1.19-2.99-1.79-4.88-1.79l-7.28,0.05l0,61.18l14.2,0v-14.29c1.69,5.46,4.99,9.81,9.97,12.48
		c0.29,0.15,0.59,0.29,0.89,0.43c0.24,0.12,0.49,0.23,0.74,0.34c2.78,1.21,6.01,1.95,9.69,2.15c0.25,0.01,0.51,0.03,0.77,0.03
		c0.38,0.01,0.73,0.05,1.12,0.05c0.11,0,0.21-0.01,0.32-0.01c0.11,0,0.21,0.01,0.32,0.01c0.39,0,0.74-0.04,1.12-0.05
		c0.26-0.01,0.52-0.02,0.77-0.03c3.68-0.2,6.91-0.94,9.69-2.15c0.25-0.11,0.5-0.22,0.74-0.34c0.3-0.14,0.6-0.28,0.89-0.43
		c4.72-2.53,7.93-6.57,9.69-11.63c1.21,4.24,3.23,7.34,6.05,9.25c4.82,3.27,10.23,5.08,16.11,5.38c5.99,0,11.58-1.66,16.6-4.94
		c5.14-3.33,7.73-10.42,7.73-21.03L250.74,162.91z M191.91,189.16c-0.07,1.07-0.22,2.08-0.43,3.03c-0.71,3.2-2.19,5.73-4.46,7.27
		c-0.13,0.08-0.26,0.16-0.39,0.24c-0.11,0.06-0.21,0.13-0.32,0.18c-1.22,0.67-2.63,1.08-4.24,1.19c-0.11,0.01-0.22,0.01-0.34,0.02
		c-0.16,0.01-0.32,0.03-0.49,0.03c-0.05,0-0.09,0-0.14,0c-0.05,0-0.09,0-0.14,0c-0.17,0-0.33-0.02-0.49-0.03
		c-0.11,0-0.23-0.01-0.34-0.02c-1.61-0.11-3.02-0.52-4.24-1.19c-0.11-0.06-0.22-0.12-0.32-0.19c-0.13-0.08-0.26-0.15-0.39-0.24
		c-2.27-1.54-3.76-4.08-4.46-7.27c-0.21-0.96-0.36-1.97-0.43-3.03c-0.04-0.55-0.06-1.11-0.06-1.69c0-0.14,0-0.28,0-0.41
		c0-0.07,0-0.15,0.01-0.22c0.12-3.74,1.05-7.26,2.84-9.45c1.75-2.31,4.88-3.53,8.02-3.56c3.14,0.03,6.27,1.25,8.02,3.56
		c1.79,2.19,2.72,5.71,2.84,9.44c0,0.08,0.01,0.15,0.01,0.22c0,0.14,0,0.27,0,0.41C191.97,188.05,191.95,188.61,191.91,189.16z"/>
	<path class="st0" d="M104.6,92.22c3.36,0,6.09-3.47,6.09-7.74c0-4.27-2.73-7.74-6.09-7.74s-6.09,3.47-6.09,7.74
		C98.5,88.75,101.24,92.22,104.6,92.22z"/>
	<path class="st0" d="M103.06,127.37l7.81,18.7c1.2,3.06,4.36,3.39,6.24,0.83l7.44-10.31c6.47,1.66,13.3,2.53,20.27,2.46
		c36.32,0.38,68.62-24.68,68.22-55.17c-1.82-36.58-35.02-54.87-68.22-54.87c-33.2,0-66.4,18.29-68.22,54.87
		C76.37,101.47,87.03,117.24,103.06,127.37z M174.13,62.44h3.22c1.34,0,2.42,1.05,2.46,2.39l0.01,0.08c0,0.03,0,0.06-0.01,0.08
		v18.27c0.88-0.91,3.23-3.34,9.52-9.86c1.17-1.22,2.59-1.23,3.62-1.24l0.16,0c0.75-0.01,2.99,0,2.99,0l0.7,0l-9.66,10.37
		l10.06,14.17l-0.59,0c0,0-2.05,0-2.94,0c0,0-0.01,0-0.01,0c-1.72,0-2.98-0.55-3.75-1.64l-6.48-9.24l-3.61,3.42v7.46h-5.68V62.44z
		 M150.76,78.12c1.05-1.9,2.55-3.44,4.44-4.59c1.9-1.15,4.18-1.73,6.77-1.73c2.5,0,4.72,0.56,6.59,1.68
		c1.87,1.12,3.27,2.63,4.15,4.49c0.11,0.33-0.07,0.39-0.61,0.57c-0.43,0.14-1.29,0.41-3,0.95c-1.47,0.46-2.3-0.42-2.75-0.88
		l-0.14-0.15c-0.35-0.34-0.75-0.64-1.18-0.89c-0.95-0.54-2.01-0.81-3.14-0.81c-1.29,0-2.47,0.33-3.5,0.98
		c-1.04,0.65-1.87,1.56-2.47,2.7c-0.6,1.15-0.91,2.5-0.91,4.02c0,1.46,0.31,2.79,0.93,3.97c0.62,1.18,1.46,2.12,2.5,2.79
		c1.04,0.68,2.21,1.02,3.5,1.02c0.79,0,1.57-0.14,2.31-0.42c0.74-0.28,1.4-0.66,1.96-1.14c0.17-0.15,0.31-0.31,0.46-0.49
		c0.07-0.08,0.1-0.12,0.14-0.15c0.02-0.02,0.05-0.04,0.06-0.07c0.61-0.58,1.4-0.79,2.13-0.66l4.05,1.2l-0.14,0.32
		c-0.54,1.24-1.35,2.34-2.4,3.29c-1.05,0.94-2.31,1.7-3.74,2.25c-1.43,0.55-3.04,0.83-4.79,0.83c-1.91,0-3.66-0.34-5.21-1.01
		c-1.55-0.67-2.91-1.61-4.04-2.79c-1.13-1.18-2.01-2.55-2.62-4.07c-0.61-1.52-0.92-3.16-0.92-4.86
		C149.18,82.14,149.71,80.02,150.76,78.12z M145.53,63.86c1.57,0,2.84,1.27,2.84,2.84c0,1.57-1.27,2.84-2.84,2.84
		c-1.57,0-2.84-1.27-2.84-2.84C142.69,65.14,143.96,63.86,145.53,63.86z M142.69,71.99h3.21c1.36,0,2.47,1.11,2.47,2.47v22.25h-5.68
		V71.99z M118.88,72.17h5.68v13.92c-0.07,5.88,5.33,6.12,5.56,6.13c0.21-0.01,5.61-0.25,5.54-6.13v-2.95c0,0,0-8.67,0-8.75
		c0-1.22,1.1-2.22,2.45-2.22h3.24v14.95c0,2.36-0.81,10.05-11.23,10.05c-9.28,0-11.23-5.47-11.23-10.05V72.17z M93.6,79.53
		c0.58-1.52,1.41-2.88,2.46-4.02c1.05-1.15,2.3-2.07,3.72-2.72c1.42-0.66,2.96-0.99,4.6-0.99c1.89,0,3.62,0.46,5.16,1.37
		c1.22,0.73,2.25,1.63,3.06,2.7v-3.7h5.08v34.35h-3.21c-1.36,0-2.47-1.11-2.47-2.47V92.94c-2.04,2.81-4.83,4.23-8.31,4.23
		c-1.61,0-3.1-0.34-4.45-1.01c-1.34-0.67-2.51-1.6-3.49-2.77c-0.97-1.17-1.73-2.54-2.24-4.07c-0.52-1.53-0.78-3.17-0.78-4.87
		C92.73,82.71,93.02,81.05,93.6,79.53z"/>
</g>
</svg>
