
<!-- Generator: Adobe Illustrator 22.0.1, SVG Export Plug-In . SVG Version: 6.00 Build 0)  -->
<svg id="Capa_1" xmlns="http://www.w3.org/2000/svg" xmlns:xlink="http://www.w3.org/1999/xlink" x="0px" y="0px"
	 viewBox="0 0 512 395.56" style="enable-background:new 0 0 512 395.56;" xml:space="preserve">
<style type="text/css">
	.st0{fill:#FFFFFF;}
</style>
<g>
	<g>
		<path class="st0" d="M298.23,0c-35.36,0-69.99,9.4-100.29,27.24c-27.03,15.94-49.93,38.11-66.72,64.5H55.63
			C24.91,91.74,0,116.65,0,147.37v100.82c0,30.72,24.91,55.63,55.63,55.63h75.59c16.79,26.39,39.69,48.56,66.72,64.5
			c30.3,17.84,64.92,27.24,100.29,27.24c7.92,0,14.25-6.33,14.25-14.25V14.25C312.48,6.44,306.14,0,298.23,0z M124.99,275.32H55.63
			c-14.99,0-27.13-12.14-27.13-27.13V147.37c0-14.99,12.14-27.13,27.13-27.13h69.36C124.99,120.24,124.99,275.32,124.99,275.32z
			 M283.98,366.53c-53.52-4.54-102.29-34.63-130.48-80.86V110c28.19-46.24,76.96-76.32,130.48-80.86V366.53z"/>
		<path class="st0" d="M368.32,87.41c-6.44-4.54-15.31-2.96-19.85,3.59c-4.54,6.44-2.96,15.31,3.59,19.85
			c28.5,19.85,45.5,52.47,45.5,87.09s-17,67.25-45.5,87.09c-6.44,4.54-8.02,13.41-3.59,19.85c2.74,4.01,7.18,6.12,11.72,6.12
			c2.85,0,5.7-0.84,8.13-2.53c36.1-25.23,57.75-66.51,57.75-110.42S404.43,112.53,368.32,87.41z"/>
		<path class="st0" d="M423.43,28.4c-6.44-4.54-15.31-2.96-19.85,3.59c-4.54,6.44-2.96,15.31,3.59,19.85
			c47.82,33.36,76.32,87.94,76.32,146s-28.5,112.75-76.32,146c-6.44,4.54-8.02,13.41-3.59,19.85c2.74,4.01,7.18,6.12,11.72,6.12
			c2.85,0,5.7-0.84,8.13-2.53C478.85,328.63,512,265.29,512,197.83S478.96,67.04,423.43,28.4z"/>
	</g>
</g>
</svg>
